<?xml version="1.0" encoding="utf-8"?>
<!-- Generator: Adobe Illustrator 24.0.3, SVG Export Plug-In . SVG Version: 6.00 Build 0)  -->
<svg version="1.1" xmlns="http://www.w3.org/2000/svg" xmlns:xlink="http://www.w3.org/1999/xlink" x="0px" y="0px"
	 viewBox="0 0 400 400" style="enable-background:new 0 0 400 400;" xml:space="preserve">
<style type="text/css">
	.st0{fill:#FBF0E6;}
	.st1{opacity:0.1;fill:#515151;}
	.st2{fill:#232323;}
	.st3{fill:#A57E55;}
	.st4{opacity:0.4;fill:url(#SVGID_1_);}
	.st5{fill:url(#SVGID_2_);}
	.st6{fill:url(#SVGID_3_);}
	.st7{fill:url(#SVGID_4_);}
	.st8{display:none;}
	.st9{display:inline;fill:url(#SVGID_5_);}
	.st10{display:inline;fill:url(#SVGID_6_);}
	.st11{display:inline;opacity:0.67;}
	.st12{fill:#BDFC86;}
	.st13{opacity:0.5;fill:#FFFFFF;}
	.st14{fill:url(#SVGID_7_);}
	.st15{opacity:0.3;fill:url(#SVGID_8_);}
	.st16{opacity:0.15;fill:#FFFFFF;}
	.st17{fill:url(#SVGID_9_);}
	.st18{fill:url(#SVGID_10_);}
	.st19{fill:none;stroke:#FFFFFF;stroke-width:0.3002;stroke-miterlimit:10;}
	.st20{fill:#FFFFFF;}
	.st21{fill:#0F7AA5;}
	.st22{font-family:'ITCFranklinGothicStd-Med';}
	.st23{font-size:14px;}
	.st24{fill:#A58A47;}
	.st25{font-size:12px;}
	.st26{fill:#2FAD21;}
</style>
<g id="Fondo">
	<g>
		<rect y="-0.2" class="st0" width="400" height="400"/>
		<path class="st1" d="M0,201.7c0,0,61-124.9,200-124.9s200,125.4,200,125.4V-0.2H0V201.7z"/>
		<rect y="181.8" class="st2" width="400" height="218"/>
		<rect x="0.2" y="181.8" class="st3" width="399.7" height="18"/>
		<linearGradient id="SVGID_1_" gradientUnits="userSpaceOnUse" x1="193.1434" y1="333.862" x2="232.3594" y2="-160.4663">
			<stop  offset="5.332341e-03" style="stop-color:#FFFFFF;stop-opacity:0"/>
			<stop  offset="9.059034e-02" style="stop-color:#F7F7F7;stop-opacity:8.571506e-02"/>
			<stop  offset="0.2227" style="stop-color:#E1E1E1;stop-opacity:0.2185"/>
			<stop  offset="0.3851" style="stop-color:#BEBEBE;stop-opacity:0.3818"/>
			<stop  offset="0.5716" style="stop-color:#8C8C8C;stop-opacity:0.5693"/>
			<stop  offset="0.7785" style="stop-color:#4C4C4C;stop-opacity:0.7773"/>
			<stop  offset="1" style="stop-color:#000000"/>
		</linearGradient>
		<path class="st4" d="M0.3,295c0,0,22.7-41.2,199.7-41.2S400,295,400,295v-95.2H0L0.3,295z"/>
		<g id="_x35__2_">
			<g id="Base_1_">
				<g>
					
						<linearGradient id="SVGID_2_" gradientUnits="userSpaceOnUse" x1="159.902" y1="48.2181" x2="168.5161" y2="118.6814" gradientTransform="matrix(-0.1856 -0.9826 0.9826 -0.1856 318.9101 391.7257)">
						<stop  offset="6.239959e-02" style="stop-color:#FFFFFF"/>
						<stop  offset="0.2367" style="stop-color:#ECF6F6"/>
						<stop  offset="0.5921" style="stop-color:#B9E0E0"/>
						<stop  offset="1" style="stop-color:#78C3C3"/>
					</linearGradient>
					<path class="st5" d="M391.7,212.4c0.2,1.3,0,2.7-0.7,4c-0.8,1.4-2.2,2.4-3.8,2.7l-44.2,8.3l0.1,0.7c0,0.2-0.1,0.5-0.3,0.5
						l-1.2,0.2c-0.2,0-0.5-0.1-0.5-0.3l-2.4-12.6c0-0.2,0.1-0.5,0.3-0.5l1.2-0.2c0.2,0,0.5,0.1,0.5,0.3l0.1,0.7l44.2-8.3
						c1.6-0.3,3.3,0.1,4.6,1.1C390.7,209.8,391.4,211.1,391.7,212.4z M342.2,227.8l-0.1-0.7c0-0.2,0.1-0.5,0.3-0.5l44.6-8.4
						c1.4-0.3,2.6-1.1,3.3-2.3c1.2-2.1,0.7-4.8-1.2-6.3c-1.1-0.9-2.5-1.2-3.9-0.9l-44.6,8.4c-0.2,0-0.5-0.1-0.5-0.3l-0.1-0.7
						l-0.4,0.1l2.2,11.8L342.2,227.8z"/>
				</g>
				
					<radialGradient id="SVGID_3_" cx="148.3674" cy="49.8634" r="74.8181" gradientTransform="matrix(-0.1852 -0.9827 0.9917 -0.1869 314.8096 392.4195)" gradientUnits="userSpaceOnUse">
					<stop  offset="0" style="stop-color:#84CBCB;stop-opacity:0.4"/>
					<stop  offset="0.5896" style="stop-color:#39DDE1;stop-opacity:0.5888"/>
					<stop  offset="0.9054" style="stop-color:#16E5EB;stop-opacity:0.69"/>
				</radialGradient>
				<path class="st6" d="M389.3,209.3L389.3,209.3c2.1,1.6,2.7,4.6,1.3,6.8h0c-0.8,1.3-2.1,2.2-3.6,2.5l-45,8.5l-1.9-10.3l45-8.5
					C386.6,208,388.1,208.4,389.3,209.3z"/>
				
					<radialGradient id="SVGID_4_" cx="159.0177" cy="49.2481" r="14.4059" gradientTransform="matrix(-0.1856 -0.9826 0.9826 -0.1856 318.9101 391.7257)" gradientUnits="userSpaceOnUse">
					<stop  offset="0" style="stop-color:#84CBCB;stop-opacity:0.4"/>
					<stop  offset="0.5896" style="stop-color:#39DDE1;stop-opacity:0.5888"/>
					<stop  offset="0.9054" style="stop-color:#16E5EB;stop-opacity:0.69"/>
				</radialGradient>
				<polygon class="st7" points="340,216.1 342.2,227.8 341.8,227.8 339.6,216.2 				"/>
				<g id="COLOR_3_" class="st8">
					
						<radialGradient id="SVGID_5_" cx="160.0255" cy="64.2191" r="21.1514" gradientTransform="matrix(-0.1856 -0.9826 0.9826 -0.1856 318.9101 391.7257)" gradientUnits="userSpaceOnUse">
						<stop  offset="4.280850e-02" style="stop-color:#44D919"/>
						<stop  offset="0.3293" style="stop-color:#49D819"/>
						<stop  offset="0.6584" style="stop-color:#57D619"/>
						<stop  offset="1" style="stop-color:#6DD318"/>
					</radialGradient>
					<path class="st9" d="M365.2,221.8c0,0,0.8-0.9,0.1-4.4c-0.7-3.4-1.7-3.9-1.7-3.9s-0.4,0.5,0.3,4.3S365.2,221.8,365.2,221.8z"/>
					
						<radialGradient id="SVGID_6_" cx="160.0401" cy="-154.0728" r="354.9855" gradientTransform="matrix(-0.1856 -0.9826 0.9826 -0.1856 318.9101 391.7257)" gradientUnits="userSpaceOnUse">
						<stop  offset="4.280850e-02" style="stop-color:#44D919"/>
						<stop  offset="0.3293" style="stop-color:#49D819"/>
						<stop  offset="0.6584" style="stop-color:#57D619"/>
						<stop  offset="1" style="stop-color:#6DD318"/>
					</radialGradient>
					<path class="st10" d="M365.1,221.7l-1.6-8.3l21.5-4.1c1.1-0.2,2.2,0,3.1,0.6v0c1.9,1.3,2.3,3.8,1.1,5.7l-0.1,0.2
						c-0.6,0.9-1.5,1.5-2.6,1.7L365.1,221.7z"/>
					<g class="st11">
						<path class="st12" d="M365.1,221.7c0.3-0.3,0.3-0.6,0.4-1c0-0.4,0-0.7,0-1.1c-0.1-0.7-0.2-1.4-0.3-2.2
							c-0.1-0.7-0.3-1.4-0.6-2.1c-0.3-0.7-0.5-1.4-1.1-1.9c0.6,0.5,0.9,1.2,1.2,1.8c0.3,0.7,0.5,1.4,0.6,2.1
							c0.1,0.7,0.3,1.5,0.3,2.2c0,0.4,0,0.7-0.1,1.1C365.5,221.1,365.4,221.5,365.1,221.7z"/>
					</g>
				</g>
				<g>
					<circle class="st13" cx="370.9" cy="214.8" r="0.7"/>
					<circle class="st13" cx="377.5" cy="212.9" r="0.6"/>
					<circle class="st13" cx="370.1" cy="213.6" r="0.3"/>
					<circle class="st13" cx="375.2" cy="212.4" r="0.3"/>
					<circle class="st13" cx="379.3" cy="213.2" r="0.2"/>
					<circle class="st13" cx="375.6" cy="213.5" r="0.2"/>
					<circle class="st13" cx="372.7" cy="213.9" r="0.6"/>
					<circle class="st13" cx="368.3" cy="214.4" r="0.4"/>
				</g>
				
					<radialGradient id="SVGID_7_" cx="148.3674" cy="49.8634" r="74.8181" gradientTransform="matrix(-0.1852 -0.9827 0.9917 -0.1869 314.8096 392.4195)" gradientUnits="userSpaceOnUse">
					<stop  offset="0.1499" style="stop-color:#6BAEC4;stop-opacity:0"/>
					<stop  offset="0.5099" style="stop-color:#6AB0C6;stop-opacity:0.4235"/>
					<stop  offset="0.7075" style="stop-color:#66B8CC;stop-opacity:0.656"/>
					<stop  offset="0.8653" style="stop-color:#5FC6D6;stop-opacity:0.8415"/>
					<stop  offset="1" style="stop-color:#55D9E5"/>
				</radialGradient>
				<path class="st14" d="M389.3,209.3L389.3,209.3c2.1,1.6,2.7,4.6,1.3,6.8h0c-0.8,1.3-2.1,2.2-3.6,2.5l-45,8.5l-1.9-10.3l45-8.5
					C386.6,208,388.1,208.4,389.3,209.3z"/>
				
					<radialGradient id="SVGID_8_" cx="158.9925" cy="86.4788" r="35.9589" gradientTransform="matrix(-0.1856 -0.9826 0.9826 -0.1856 318.9101 391.7257)" gradientUnits="userSpaceOnUse">
					<stop  offset="0.1309" style="stop-color:#FFFFFF"/>
					<stop  offset="0.2391" style="stop-color:#FFFFFF;stop-opacity:0.8755"/>
					<stop  offset="1" style="stop-color:#FFFFFF;stop-opacity:0"/>
				</radialGradient>
				<path class="st15" d="M373.5,220.1l12.9-2.4c0,0,4.2-0.7,3.4-4.9s-4.6-3.7-4.6-3.7l-13.4,2.5c0,0,14-2,14.7,1.9
					C387.3,217.3,373.5,220.1,373.5,220.1z"/>
				<path class="st16" d="M389.3,209.3L389.3,209.3c2.1,1.6,2.7,4.6,1.3,6.8h0c-0.8,1.3-2.1,2.2-3.6,2.5l-45,8.5l-1.9-10.3l45-8.5
					C386.6,208,388.1,208.4,389.3,209.3z"/>
			</g>
			<g id="Brillos_1_">
				
					<radialGradient id="SVGID_9_" cx="168.0738" cy="75.2774" r="51.2801" gradientTransform="matrix(-0.1856 -0.9826 0.9826 -0.1856 318.9101 391.7257)" gradientUnits="userSpaceOnUse">
					<stop  offset="0" style="stop-color:#FFFFFF"/>
					<stop  offset="0.1155" style="stop-color:#FFFFFF;stop-opacity:0.8845"/>
					<stop  offset="1" style="stop-color:#FFFFFF;stop-opacity:0"/>
				</radialGradient>
				<path class="st17" d="M362.9,222.7l24.6-4.7c0,0,4.1-1.2,3.3-5.6c-0.8-4.4-5.6-3.7-5.6-3.7l-24.3,4.6c0,0,15.7-2.3,16.5,1.7
					C378.1,219,362.9,222.7,362.9,222.7z"/>
				
					<radialGradient id="SVGID_10_" cx="160.2173" cy="69.0451" r="20.6441" gradientTransform="matrix(-0.1856 -0.9826 0.9826 -0.1856 318.9101 391.7257)" gradientUnits="userSpaceOnUse">
					<stop  offset="0" style="stop-color:#FFFFFF"/>
					<stop  offset="0.1413" style="stop-color:#FFFFFF;stop-opacity:0.8587"/>
					<stop  offset="1" style="stop-color:#FFFFFF;stop-opacity:0"/>
				</radialGradient>
				<path class="st18" d="M344.3,224.5c4.1-0.3,8.1-1.1,12.2-1.8c0.9-0.2,1.8-0.3,2.8-0.5c3.1-0.6,6.3-1.2,9.4-1.8
					c0.4-0.1,0.8-0.1,1-0.4c0.3-0.2,0.4-0.7,0.2-1c-0.2-0.2-0.4-0.2-0.7-0.3c-3.9-0.5-7.9,0.4-11.7,1.2c-3.8,0.8-7.6,1.6-11.2,2.8
					c-0.5,0.1-0.9,0.3-1.3,0.6c-0.4,0.3-0.6,0.8-0.5,1.3c0.6,0.1,1.2,0.2,1.8,0.3"/>
				<line class="st19" x1="347.1" y1="224.8" x2="346.4" y2="221.1"/>
				<line class="st19" x1="354.3" y1="223.5" x2="353.6" y2="219.7"/>
				<line class="st19" x1="361.5" y1="222.1" x2="360.8" y2="218.3"/>
				<line class="st19" x1="368.7" y1="220.7" x2="368" y2="217"/>
				<line class="st19" x1="375.9" y1="219.4" x2="375.2" y2="215.6"/>
				<line class="st19" x1="383.1" y1="218" x2="382.4" y2="214.3"/>
			</g>
		</g>
	</g>
</g>
<g id="Agua_1_">
	
		<image style="overflow:visible;" width="196" height="233" xlink:href="Botella_Agua.png"  transform="matrix(0.3841 0 0 0.3841 11.9821 232.5544)">
	</image>
	<g>
		<path class="st20" d="M78.9,357.6H33.6c-6.6,0-11.9-5.3-11.9-11.9v0c0-6.6,5.3-11.9,11.9-11.9h45.3c6.6,0,11.9,5.3,11.9,11.9v0
			C90.8,352.3,85.5,357.6,78.9,357.6z"/>
		<text transform="matrix(1 0 0 1 40.8076 350.0888)" class="st21 st22 st23">Agua</text>
	</g>
</g>
<g id="Acido_sulfurico">
	
		<image style="overflow:visible;" width="132" height="434" xlink:href="Botella_Acido.png"  transform="matrix(0.358 0 0 0.358 134.6462 126.6532)">
	</image>
	<g>
		<path class="st20" d="M193.9,288.8h-68.1c-6.6,0-11.9-5.3-11.9-11.9v0c0-6.6,5.3-11.9,11.9-11.9h68.1c6.6,0,11.9,5.3,11.9,11.9v0
			C205.8,283.5,200.4,288.8,193.9,288.8z"/>
		<text transform="matrix(1 0 0 1 121.0826 281.2494)" class="st24 st22 st25">Ácido Sulfúrico</text>
	</g>
</g>
<g id="Cannabidol">
	
		<image style="overflow:visible;" width="161" height="255" xlink:href="Botella_Cannabidol.png"  transform="matrix(0.3762 0 0 0.3762 232.6203 200.5637)">
	</image>
	<g>
		<path class="st20" d="M290.3,335.5h-62.1c-6.6,0-11.9-5.3-11.9-11.9l0,0c0-6.6,5.3-11.9,11.9-11.9h62.1c6.6,0,11.9,5.3,11.9,11.9
			l0,0C302.3,330.2,296.9,335.5,290.3,335.5z"/>
		<text transform="matrix(1 0 0 1 225.4293 327.951)" class="st26 st22 st23">Cannabidol</text>
	</g>
</g>
<g id="Balon_rojo">
	
		<image style="overflow:visible;" width="192" height="623" xlink:href="Balon_Rojo.png"  transform="matrix(0.3609 0 0 0.3609 274.6337 30.8392)">
	</image>
</g>
</svg>
