<?xml version="1.0" encoding="utf-8"?>
<!-- Generator: Adobe Illustrator 22.0.0, SVG Export Plug-In . SVG Version: 6.00 Build 0)  -->
<svg version="1.1" id="Capa_1" xmlns="http://www.w3.org/2000/svg" xmlns:xlink="http://www.w3.org/1999/xlink" x="0px" y="0px"
	 viewBox="0 0 1000 600" style="enable-background:new 0 0 1000 600;" xml:space="preserve">
<style type="text/css">
	.st0{fill:#87D300;}
	.st1{fill:#6EAC2C;}
	.st2{fill:#57970E;}
	.st3{fill:#63A11F;}
	.st4{fill:#92DD00;}
	.st5{fill:#F0F0F0;}
	.st6{fill:#DDDDDD;}
	.st7{fill:#408300;}
	.st8{fill:#337900;}
	.st9{fill:#C9C9C9;}
	.st10{fill:#280A00;stroke:#000000;stroke-width:5.1686;stroke-miterlimit:10;}
	.st11{fill:#280A00;}
	.st12{fill:#F9DAA8;stroke:#000000;stroke-width:5.1686;stroke-miterlimit:10;}
	.st13{fill:#FBD3BF;}
	.st14{opacity:0.29;fill:#FFFFE6;}
	.st15{fill:#FFE718;}
	.st16{fill:#FFFF91;}
	.st17{fill:#E0AC00;}
	.st18{fill:#FFFF91;stroke:#000000;stroke-width:3.8;stroke-miterlimit:10;}
</style>
<g>
	<g>
		<g>
			<g>
				<path class="st0" d="M236.2,221C236.2,221,236.2,221,236.2,221l-0.3,0C236,221,236.1,221,236.2,221z"/>
				<path class="st0" d="M893.6,209.8l-3.4,0.6c0.1,0.2,0.3,0.3,0.5,0.5c1.2-0.1,2.5-0.3,3.7-0.4C894.2,210.3,893.9,210,893.6,209.8
					z"/>
				<path class="st1" d="M0,0v190.8c1.2,0.2,2.3,0.4,3.5,0.6c2.2-3.7,2.5-9.2,1.6-13.4c1.4,3.2,2.2,6.9,2.5,9.9
					c4.3-11,12.2-16.7,21.5-23.5c-5.1,7.3-13.3,15.4-9.5,24.8c2.6-1.5,4.8-4.9,4.5-7.9c0.4,1.9,1.3,4.4,1.6,6.8
					c2.8-3.3,5.1-7.3,7.8-10c-0.5,4.2-2.2,8.2-1.5,13.1c0.3-0.2,0.6-0.4,1-0.6c0.1-0.6,0.2-1.1,0.3-1.6c0.1,0.5,0.3,0.9,0.5,1.3
					c1.2-0.4,2.6-0.8,3.8-1.4c-0.1,1.2-0.3,3-0.6,4.8c0.1,0,0.1-0.1,0.2-0.1c0.2-1.2,0.4-2.3,0.6-3c0.5,0.5,1.2,1,1.8,1.5
					c1.3-0.8,2.5-1.7,3.4-3c-0.1,1.2-0.3,2.5-0.5,3.8c1.3-3.5,1.1-7,1.8-10.2c1.6,3,2.4,7,3.9,10.6c0.9-2,2.4-3.9,3.2-5.3
					c-1,2.5-0.1,6,1.7,7.9c5.7-7,1-16.1-1.3-23.6c5.8,8,10.8,14.9,11.7,24.8c1-3.3,1-7.2,0.3-10.3c1,2.2,1.6,4.5,2,6.8
					c0.7-1.2,1.6-2.3,2.5-3.4c-1,1.7-1.7,3.7-2.2,5.8c0,0.2,0.1,0.5,0.1,0.7c4.3-11,12.2-16.7,21.5-23.5
					c-5.1,7.3-13.3,15.4-9.5,24.8c2.6-1.5,4.8-4.9,4.5-7.9c0.4,1.9,1.3,4.4,1.6,6.8c2.8-3.3,5.1-7.3,7.8-10
					c-0.5,4.2-2.2,8.2-1.5,13.1c1.3-1.1,3.8-1.4,5.7-2.4c-0.1,1.2-0.3,3-0.6,4.8c0.6-0.5,1.3-0.9,2-1.3c1.4-3.1,3.9-5.7,7.7-7.4
					c0.6,2,0.3,3.8,0,5.6c6.9-1.6,7.7-6.2,6.8-12c3,4.3,5.9,9.5,8.9,13.8c0.5-1.1,1.2-2,2-2.7c-0.1-1.1-0.2-2.2-0.4-3.2
					c0.4,0.9,0.7,1.8,1,2.7c1.6-1.4,3.4-2.4,4.3-4c-0.7,2.1-0.9,4.5-0.8,6.8c4.5-8.2,11.5-13.2,19.4-19c-5.1,7.3-13.3,15.4-9.5,24.8
					c2.6-1.5,4.8-4.9,4.5-7.9c0.4,1.9,1.3,4.4,1.6,6.8c2.8-3.3,5.1-7.3,7.8-10c-0.5,4.2-2.2,8.2-1.5,13.1c1.3-1.1,3.8-1.4,5.7-2.4
					c-0.1,1.2-0.3,3-0.6,4.8c2-1.6,4.5-2.5,6-4.7c-0.3,2.3-0.6,4.9-1.1,7.4c1,0.1,1.9,0.2,2.9,0.3c1.9-3.7,2.1-8.8,1.3-12.8
					c1.4,3.2,2.2,6.9,2.5,9.9c4.3-11,12.2-16.7,21.5-23.5c-5.1,7.3-13.3,15.4-9.5,24.8c2.6-1.5,4.8-4.9,4.5-7.9
					c0.4,1.9,1.3,4.4,1.6,6.8c2.8-3.3,5.1-7.3,7.8-10c-0.5,4.2-2.2,8.2-1.5,13.1c1.3-1.1,3.8-1.4,5.7-2.4c-0.1,1.2-0.3,3-0.6,4.8
					c2-1.6,4.5-2.5,6-4.7c-0.2,1.7-0.4,3.7-0.8,5.6c1.6,0.1,3.2,0.3,4.8,0.4c-0.2-2.1-0.2-4.4-0.2-6.4c1.1,2.1,3.2,3.2,4.8,4.8
					c0-1.6,0-3.2,0-4.3c1.6,1.1,3.7,1.6,4.8,2.7c1.1-4.3,0-8,0-11.7c2.1,2.7,3.7,6.4,5.9,9.6c0.5-2.1,1.6-4.3,2.1-5.9
					c-0.5,2.7,1.1,5.9,3.2,7.5c4.3-8-2.1-16-5.9-22.9c7.5,6.9,13.9,12.8,16.5,22.9c0.3-1.5,0.8-3.1,1.4-4.7
					c-0.1-0.9-0.2-1.8-0.4-2.7c0.3,0.6,0.5,1.2,0.7,1.8c0.4-1,0.9-2,1.5-3c-0.5,1.4-0.8,3-0.9,4.6c0.6,2.2,1,4.5,1.2,6.5
					c4.3-11,12.2-16.7,21.5-23.5c-5.1,7.3-13.3,15.4-9.5,24.8c2.6-1.5,4.8-4.9,4.5-7.9c0.4,1.9,1.3,4.4,1.6,6.8
					c2.8-3.3,5.1-7.3,7.8-10c-0.5,4.2-2.2,8.2-1.5,13.1c1.3-1.1,3.8-1.4,5.7-2.4c-0.1,1.2-0.3,3-0.6,4.8c2-1.6,4.5-2.5,6-4.7
					c-0.2,1.7-0.4,3.7-0.8,5.6c0.7,0,1.4,0.1,2.1,0.1c1-2.7,2.9-5.2,5.8-7.2c0.9,1.9,0.9,3.7,0.9,5.6c6.5-2.8,6.5-7.4,4.6-13
					c3.7,3.7,7.4,8.3,11.1,12c0.9-3.7,4.6-5.6,5.6-8.3c-0.6,4.2,0.7,8.8,2.3,12.8c0.6,0,1.1,0.1,1.7,0.1c-0.3-3-0.3-6.2-0.3-9
					c1.5,3.1,4.6,4.6,7,7c0-2.3,0-4.6,0-6.2c2.3,1.5,5.4,2.3,7,3.9c1.5-6.2,0-11.6,0-17c3.1,3.9,5.4,9.3,8.5,13.9
					c0.8-3.1,2.3-6.2,3.1-8.5c-0.8,3.9,1.5,8.5,4.6,10.8c6.2-11.6-3.1-23.2-8.5-33.2c10.7,9.9,19.9,18.4,23.8,32.7
					c0.1,0,0.1,0.1,0.2,0.1c0.8-3.8,2.3-8.3,4.6-12c-1.4,4.1-1.9,9.3-1,13.8c1.2,0.6,2.4,1.1,3.1,1.9c1.5-6.2,0-11.6,0-17
					c3.1,3.9,5.4,9.3,8.5,13.9c0.8-3.1,2.3-6.2,3.1-8.5c-0.8,3.9,1.5,8.5,4.6,10.8c6.2-11.6-3.1-23.2-8.5-33.2
					c10.8,10,20.1,18.5,24,33.2c0.8-3.9,2.3-8.5,4.6-12.4c-0.8,2.5-1.4,5.4-1.5,8.3c4.7-8.6,11.8-15.1,19.6-22.3
					c-5.4,10-14.6,21.6-8.5,33.1c0,0,0.1,0,0.1,0c3-2.3,5.3-6.9,4.5-10.7c0.8,2.3,2.3,5.4,3.1,8.5c3.1-4.6,5.4-10,8.5-13.9
					c0,5.3-1.5,10.6-0.1,16.6c0.2,0,0.4,0,0.6,0c1.6-1.3,4.4-2.1,6.5-3.4c0,1,0,2.2,0,3.6c1,0,2,0,2.9,0.1c1.6-1.3,3.1-2.6,4-4.4
					c0,1.4,0,3,0,4.5c2.8,0.1,5.5,0.1,8.3,0.2c-0.2-3.3,1.2-6.6,4.5-8.8c0.6,1.2,0.6,2.5,0.6,3.7c4.4-1.9,4.4-5,3.1-8.7
					c2.5,2.5,5,5.6,7.5,8.1c0.6-2.5,3.1-3.7,3.7-5.6c-0.3,2,0.1,4.1,0.7,6.1c0.9-4.5,0.4-9.8-1-13.9c2.3,3.9,3.9,8.5,4.6,12.4
					c3.9-14.7,13.1-23.2,24-33.2c-5.4,10-14.7,21.6-8.5,33.2c3.1-2.3,5.4-7,4.6-10.8c0.8,2.3,2.3,5.4,3.1,8.5
					c3.1-4.6,5.4-10,8.5-13.9c0,5.4-1.5,10.8,0,17c1.5-1.5,4.6-2.3,7-3.9c0,1.5,0,3.8,0,6.1c0,0,0,0,0,0c2.3-2.3,5.4-3.8,6.9-6.9
					c0,1.8,0,3.7-0.1,5.7c1.6,0.7,3.2,1.4,4.2,2.4c1.5-6.2,0-11.6,0-17c3.1,3.9,5.4,9.3,8.5,13.9c0.8-3.1,2.3-6.2,3.1-8.5
					c-0.8,3.9,1.5,8.5,4.6,10.8c6.2-11.6-3.1-23.2-8.5-33.2c10.8,10,20.1,18.5,24,33.2c0.8-3.9,2.3-8.5,4.6-12.4
					c-1.6,4.8-2.1,11.1-0.4,16.1c0,0,0,0,0,0c1.2-3,1.4-6.2,0.5-9.3c1.5,2.9,2.9,5.8,2.9,9.2c4.4-10.6,12.1-19.8,23.7-23.2
					c-5.3,3.4-17,19.4-3.4,20.8c0-2.4,0.5-3.9-1.5-6.3c3.7,1.4,6.1,4.6,6.7,8.3c0.1,0,0.2,0,0.2,0c1.3-2.8,1.8-6,2.2-8.8
					c0.5,2,0.9,4.1,1.6,6.1c-0.1-1.8-0.1-3.6-0.1-5.2c1.5,3.1,4.6,4.6,7,7c0-2.3,0-4.6,0-6.2c2.3,1.5,5.4,2.3,7,3.9
					c1.5-6.2,0-11.6,0-17c3.1,3.9,5.4,9.3,8.5,13.9c0.8-3.1,2.3-6.2,3.1-8.5c-0.8,3.9,1.5,8.5,4.6,10.8c6.2-11.6-3.1-23.2-8.5-33.2
					c9.9,9.2,18.6,17.2,22.9,29.7c0.7-0.8,1.6-1.5,2.6-2.1c0,0,0,0,0,0c0.8-2.3,1.8-4.7,3.1-6.8c-1.2,3.5-1.7,7.7-1.4,11.6
					c5.3-2.7,5.2-6.9,3.5-11.9c3.5,3.4,6.9,7.7,10.4,11.2c0.1-1.7,0-3.4-0.5-5c0.5,1.1,1.1,2.2,1.5,3.3c1.4-2.3,3.8-3.9,4.5-6
					c-0.2,1.7-0.1,3.5,0.2,5.3c4.6-7.7,11.3-14,20.5-16.7c-5.3,3.4-17,19.4-3.4,20.8c0-2.4,0.5-3.9-1.5-6.3c3.3,1.2,5.5,3.8,6.4,6.9
					c0.3,0,0.6,0,0.9,0c0.2-0.2,0.3-0.5,0.5-0.7c0.7-2.2,1.1-4.6,1.4-6.7c0.2,0.9,0.4,1.9,0.7,2.8c1-2.6,1.6-5.2,2.2-7.9
					c0.5,2.9,1,6.3,2.4,9.2c0.5-3.9,2.9-7.3,6.8-8.7c-1.9,2.4-1.5,3.9-1.5,6.3c1-0.1,1.8-0.3,2.6-0.6c0.7-2,1.2-4.1,1.6-6.2
					c0.2,1.5,0.5,3.1,0.9,4.7c4.5-4.8-4.1-16-8.5-18.7c9.6,2.8,16.5,9.5,21.1,17.8c2.7-5.2-5.1-15.2-9.2-17.8
					c6.9,2,12.5,6.1,16.7,11.3c4.2-4.8,9.5-8.6,16-10.5c-4.4,2.8-12.9,13.9-8.5,18.7c0.6-1.9,1.5-3.7,2.4-5.5
					c-0.7,2.3-0.7,4.6-0.2,6.9c0.8,0.3,1.8,0.6,3,0.7c0-2.4,0.5-3.9-1.5-6.3c3.7,1.4,6,4.5,6.7,8.1c0.1,0,0.3,0,0.4,0
					c1.2-2.8,1.7-5.9,2.1-8.5c0.6,2.8,1.3,5.6,2.4,8.3c3.1-0.2,6.2-0.4,9.3-0.6c0.7-2.5,0.7-5.1,0-7.6c1.2,2.4,2.4,4.8,2.8,7.4
					c0.3,0,0.6,0,0.9-0.1c4.5-9.9,12-18.2,22.9-21.4c-4.9,3.1-15.2,16.9-6.1,20.2c0.9-0.1,1.8-0.1,2.7-0.2c0.1-2,0.2-3.4-1.5-5.5
					c0.9,0.3,1.7,0.8,2.4,1.3c0.1-1.4,0.2-2.8,0.3-4.3c0.9,2.6,1.9,5.6,3.6,8.1c0.1,0,0.2,0,0.4,0c0-3.7,1.8-7.2,5.1-9.2
					c-1.5,2.7-0.8,4.1-0.3,6.4c13.1-3.8-1.1-17.5-7-19.9c11.2,1.2,20,8,26.1,16.7c1.7-3.7,2.2-8,1-11.9c1.7,3.4,3.4,6.9,3.4,10.9
					c5.2-12.6,14.4-23.5,28.1-27.5c-6.3,4-20.1,22.9-4,24.7c0-2.9,0.6-4.6-1.7-7.5c4.6,1.7,7.5,5.7,8,10.3c1.7-3.4,2.3-7.5,2.9-10.9
					c0.9,4.1,1.8,8.2,3.9,12c1.8-0.2,3.6-0.4,5.4-0.5c1.2-3.3,1.1-6.8-0.5-9.8c2.1,2.6,4.2,5.3,4.6,8.6
					c3.7-11.2,11.6-21.5,24.8-26.7c-5.8,4.2-17.3,21.8-1.2,21.1c-0.3-2.4,0.1-3.9-2.5-6c4.7,0.8,8,3.8,9.1,7.5
					c1.3-3.1,1.4-6.5,1.6-9.5c1.4,3.3,2.8,6.7,5.3,9.6c4-4.6,5.7-10.9,4-16.6c1.7,3.4,3.4,6.9,3.4,10.9
					c5.2-12.6,14.4-23.5,28.1-27.5c-6.3,4-20.1,22.9-4,24.7c0-2.9,0.6-4.6-1.7-7.5c4.6,1.7,7.5,5.7,8,10.3c1.7-3.4,2.3-7.5,2.9-10.9
					c0.6,2.7,1.2,5.3,2.1,7.9c0-1.2,0-2.4,0-3.5c1.1,2.1,3.2,3.2,4.8,4.8c0-1.6,0-3.2,0-4.3c1.6,1.1,3.7,1.6,4.8,2.7
					c1.1-4.3,0-8,0-11.7c2.1,2.7,3.7,6.4,5.9,9.6c0.5-2.1,1.6-4.3,2.1-5.9c-0.5,2.7,1.1,5.9,3.2,7.5c4.3-8-2.1-16-5.9-22.9
					c7.5,6.9,13.9,12.8,16.5,22.9c0.5-2.7,1.6-5.9,3.2-8.5c-0.4,1.2-0.7,2.5-0.9,3.8c0.7-1.4,1.9-2.6,3.4-3.6
					c0.6,1.2,0.6,2.5,0.6,3.7c4.4-1.9,4.4-5,3.1-8.7c2.5,2.5,5,5.6,7.5,8.1c0.6-2.5,3.1-3.7,3.7-5.6c-0.4,2.5,0.3,5.1,1.1,7.5
					c4.5-0.7,8.9-1.5,13.4-2.2V0H0z"/>
			</g>
			<path class="st0" d="M236.2,221C236.2,221,236.2,221,236.2,221l-0.3,0C236,221,236.1,221,236.2,221z"/>
			<path class="st0" d="M893.6,209.8l-3.4,0.6c0.1,0.2,0.3,0.3,0.5,0.5c1.2-0.1,2.5-0.3,3.7-0.4C894.2,210.3,893.9,210,893.6,209.8z
				"/>
			<rect x="0" y="150.3" class="st2" width="999.7" height="449.7"/>
			<path class="st3" d="M999.7,149.5v-3.1h-0.9c-0.5-2.5-0.4-5.1,0.4-7.6c-1.2,2.5-2.5,4.9-3.1,7.6h-1.9c-4-7.2-7.6-2-19.6,0h-3
				c0-2.6-0.5-4.3,1.7-7c-3.5,1.3-5.9,3.9-7.2,7h-1.6c-0.3-0.7-0.7-1.4-1-2c-0.5-1.9-0.7-3.8-1-5.6c-0.2,0.9-0.4,1.9-0.7,2.8
				c-3.2-4.6-7.3-8.5-11.9-12.7c2.9,5.4,7.4,11.4,7.3,17.5h-4.6c-0.1-0.7-0.1-1.4,0-2.1c-0.2,0.6-0.5,1.3-0.8,2.1h-3.6
				c-1.2-2.1-2.3-4.1-3.6-5.8c0,1.9,0.3,3.8,0.4,5.8h-13.2c0-0.3,0-0.7,0.1-1c-0.1,0.4-0.3,0.7-0.6,1h-7.4c-0.7-0.8-1.5-1.6-2.2-2.4
				c0-1.4,0.2-2.8,0.7-4.2c-0.5,1.1-1.1,2.2-1.6,3.3c-0.1-0.1-0.1-0.1-0.2-0.2c0,0.1,0.1,0.2,0.1,0.3c-0.5,1-0.9,2.1-1.2,3.2h-2.8
				c-3.2-4.8-6.5-2.1-14.4,0h-7.6c-0.1-2.1-0.1-3.7,1.8-6c-3.1,1.2-5.4,3.4-6.7,6h-2.9c-0.6-2.2-1-4.5-1.3-6.6
				c-0.5,2.2-1,4.4-1.7,6.6h-3c0-1.1,0.3-2.3,0.7-3.5c-1.1,1.1-2.2,2.3-3.3,3.5H871c-0.2-0.3-0.4-0.7-0.6-1c0,0.3,0.1,0.7,0.1,1
				h-13.8c-0.3-2.2-0.1-4.5,0.5-6.6c-1.1,2.2-2.2,4.3-2.8,6.6h-2.8c-3.2-4.8-6.5-2.1-14.4,0h-7.6c-0.1-2.1-0.1-3.7,1.8-6
				c-3.1,1.2-5.4,3.4-6.7,6h-2.9c-0.6-2.2-1-4.5-1.3-6.6c-0.5,2.2-1,4.4-1.7,6.6h-24.6c0-1.1,0.3-2.3,0.7-3.5
				c-1.1,1.1-2.2,2.3-3.3,3.5h-7.4c-0.2-0.3-0.4-0.7-0.6-1c0,0.3,0.1,0.7,0.1,1h-9.2c-0.3-2.2-0.1-4.5,0.5-6.6
				c-1.1,2.2-2.2,4.3-2.8,6.6h-2.8c-3.2-4.8-6.5-2.1-14.4,0h-6.6c-0.2-1.8-0.2-3.6,0.2-5.3c0.2-0.2,0.3-0.5,0.5-0.7
				c-0.1,0.1-0.3,0.1-0.4,0.2c0.1-0.3,0.1-0.5,0.2-0.8c-0.1,0.3-0.3,0.6-0.4,0.9c-2.5,1.1-4.4,2.9-5.7,5c-1.2-1.5-2.4-2-3.9-2
				c-0.3-1.3-0.5-2.7-0.7-3.9c-0.3,1.4-0.6,2.8-1,4.1c-2.1,0.4-4.7,1.5-8.3,2.5h-7.6c-0.1-2.1-0.1-3.7,1.8-6c-3.1,1.2-5.4,3.4-6.7,6
				h-2.9c-0.1-0.3-0.2-0.6-0.2-0.9c-0.1-1.9,0.1-3.9,0.6-5.7c-0.4,0.9-0.9,1.7-1.3,2.6c-0.2-0.9-0.3-1.8-0.4-2.6
				c-0.5,2.2-1,4.4-1.7,6.6h-2.2c-3.2-4.8-6.5-2.1-14.4,0h-7.6c-0.1-2.1-0.1-3.7,1.8-6c-3.1,1.2-5.4,3.4-6.7,6h-2
				c-0.3-2.2-0.1-4.5,0.5-6.6c-0.7,1.4-1.4,2.8-2,4.2c-0.3-1.4-0.5-2.9-0.7-4.2c-0.5,2.2-1,4.4-1.7,6.6h-1.2
				c-3.2-4.8-6.5-2.1-14.4,0h-7.6c-0.1-2.1-0.1-3.7,1.8-6c-3.1,1.2-5.4,3.4-6.7,6h-2.9c-0.6-2.2-1-4.5-1.3-6.6
				c-0.5,2.2-1,4.4-1.7,6.6h-22.1c-1-3.3-1.6-6.8-1.1-10.1c-1,3.1-5.1,5.1-6.1,9.2c-4.1-4.1-8.2-9.2-12.3-13.3c2,6,2,11.1-4.8,14.2
				h-0.3c0-2,0-4-1-6c-2.5,1.7-4.4,3.7-5.6,6h-8.8c-0.9-3.1-1.5-6.4-1-9.5c-1,3-5,5-6,8.9c-4-4-8-8.9-11.9-12.9
				c1.9,5.7,2,10.5-4.1,13.5h-0.9c0-1.8-0.1-3.7-1-5.5c-2.4,1.6-4.1,3.5-5.3,5.5h-1.7c-1.1-3.7-1.7-7.6-1.2-11.2
				c-1.2,3.5-5.9,5.9-7.1,10.6c-4.7-4.7-9.5-10.6-14.2-15.4c2.2,6.7,2.4,12.4-4.7,16h-1.3c0-2.2-0.1-4.3-1.2-6.5
				c-2.8,1.8-4.8,4.1-6.2,6.5h-3.5c-0.3-2.2-0.1-4.5,0.5-6.6c-1.1,2.2-2.2,4.3-2.8,6.6h-2.8c-3.2-4.8-6.5-2.1-14.4,0h-7.6
				c-0.1-2.1-0.1-3.7,1.8-6c-3.1,1.2-5.4,3.4-6.7,6h-2.9c-0.6-2.2-1-4.5-1.3-6.6c-0.3,1.5-0.7,3-1.1,4.5c-0.7-3-1-6.1-0.6-9.1
				c-1.2,3.5-5.9,5.9-7.1,10.6c-4.7-4.7-9.5-10.6-14.2-15.4c2.2,6.7,2.4,12.4-4.7,16h-1.3c0-2.2-0.1-4.3-1.2-6.5
				c-0.1,0.1-0.2,0.2-0.3,0.2c0-0.1,0.1-0.2,0.1-0.3c-0.1,0.1-0.1,0.3-0.2,0.4c-2.4,1.7-4.3,3.7-5.6,5.9c-3.2-4.4-6.4-1.7-14.2,0.3
				h-7.6c-0.1-2.1-0.1-3.7,1.8-6c-3.1,1.2-5.4,3.4-6.7,6h-2.7c-0.2-0.6-0.4-1.3-0.6-1.9c-0.3-1.6-0.6-3.2-0.8-4.7
				c-0.1,0.2-0.1,0.5-0.2,0.7c-0.6-2.8-0.8-5.6-0.4-8.2c-1.2,3.7-6.1,6.1-7.3,11c-4.9-4.9-9.8-11-14.7-15.9
				c2.4,7.3,2.4,13.5-6.1,17.1c0-2.4,0-4.9-1.2-7.3c-1.5,1-2.8,2.1-4,3.4c-0.1-0.3-0.1-0.5-0.2-0.8c-0.1,0.4-0.1,0.8-0.2,1.2
				c-1.5,1.7-2.6,3.5-3.3,5.5h-0.7c-1.4-2.7-3.6-4.9-6.7-6c1.9,2.4,1.8,4,1.8,6h-7.6c-7.9-2.1-11.1-4.8-14.4,0h-2.2
				c-0.7-2.2-1.2-4.4-1.7-6.6c-0.1,0.8-0.3,1.7-0.4,2.6c-0.4-0.9-0.8-1.7-1.3-2.6c0.6,1.9,0.8,3.8,0.6,5.7c-0.1,0.3-0.1,0.6-0.2,0.9
				h-2.9c-1.4-2.7-3.6-4.9-6.7-6c1.9,2.4,1.8,4,1.8,6h-7.6c-3-0.8-5.3-1.7-7.2-2.2c0-1.5,0.2-3,0.7-4.4c-0.7,1.4-1.4,2.7-1.9,4.1
				c-1.9-0.4-3.4-0.2-4.8,1.1c-1.2-1.1-2.4-1.4-3.9-1.3c0-1.3,0.3-2.7,0.6-4c-0.6,1.2-1.2,2.4-1.7,3.6c-0.5-1.2-1.1-2.4-1.7-3.6
				c0.4,1.4,0.6,2.9,0.7,4.4c-1.1,0.3-2.3,0.7-3.7,1.2c-2.6-2.9-5.5-1.4-11.2,0.4c0-1.8,0.1-3.3,1.8-5.4c-3.1,1.2-5.4,3.4-6.7,6
				h-2.9c-0.5-1.7-0.8-3.5-1.1-5.1c0.2-0.3,0.4-0.6,0.6-0.9c-0.3,0.1-0.5,0.2-0.7,0.3c-0.1-0.3-0.1-0.6-0.2-0.9
				c-0.1,0.4-0.2,0.7-0.2,1.1c-2.5,1.2-4.4,3.2-5.6,5.5h-2.9c-0.6-2.2-1-4.5-1.3-6.6c-0.5,2.2-1,4.4-1.7,6.6h-1.5
				c-1.1-1.2-2.2-2.4-3.3-3.5c0.4,1.3,0.7,2.4,0.7,3.5h-25.5c0.2-1.1,0.4-2.2,0.8-3.1c-0.6,1-1.1,2-1.5,3.1h-3.6
				c-3.2-7-8.6-11.9-14.6-17.5c2.9,5.4,7.4,11.4,7.3,17.5h-4.6c-0.1-0.7-0.1-1.4,0-2.1c-0.2,0.6-0.5,1.3-0.8,2.1h-3.6
				c-1.2-2.1-2.3-4.1-3.6-5.8c0,1.9,0.3,3.8,0.4,5.8H208c-0.3-2.2-0.1-4.5,0.5-6.6c-1.1,2.2-2.2,4.3-2.8,6.6h-2.8
				c-3.2-4.8-6.5-2.1-14.4,0h-5.6c-0.3-2.2-0.1-4.5,0.5-6.6c-1,1.9-1.9,3.9-2.6,5.9c0-1.8,0.1-3.2,1.8-5.3c-2.5,1-4.5,2.6-5.9,4.7
				c-1.3-1.2-2.6-1.5-4.3-1.2c-0.3-1.4-0.5-2.7-0.7-4c-0.3,1.5-0.7,2.9-1,4.4c-1.9,0.5-4.2,1.4-7.2,2.2h-7.6c-0.1-2.1-0.1-3.7,1.8-6
				c-3.1,1.2-5.4,3.4-6.7,6H148c-0.6-2.2-1-4.5-1.3-6.6c-0.5,2.2-1,4.4-1.7,6.6h-5.8c-0.5-2.1-0.8-4.2-0.5-6.2
				c-0.7,2.1-3.4,3.5-4.3,6.2H134c-2.8-2.9-5.6-6.3-8.4-9.2c1.2,3.7,1.4,6.9-1.6,9.2h-2c0-1.1-0.2-2.2-0.7-3.3
				c-1.4,1-2.5,2.1-3.4,3.3h-12.9c0-1.1,0.3-2.3,0.7-3.5c-1.1,1.1-2.2,2.3-3.3,3.5h-7.4c-0.2-0.3-0.4-0.7-0.6-1c0,0.3,0.1,0.7,0.1,1
				h-6.1c0.2-1.1,0.4-2.2,0.8-3.1c-0.6,1-1.1,2-1.5,3.1h-3.6c-3.2-7-8.6-11.9-14.6-17.5c2.9,5.4,7.4,11.4,7.3,17.5H72
				c-0.1-0.7-0.1-1.4,0-2.1c-0.2,0.6-0.5,1.3-0.8,2.1h-3.6c-1.2-2.1-2.3-4.1-3.6-5.8c0,1.9,0.3,3.8,0.4,5.8h-2
				c-0.2-1.4-0.2-2.7-0.1-4.1c-0.5,1.5-1.9,2.6-3.1,4.1H55c-2.2-2.4-4.4-5-6.6-7.2c0.9,2.7,1.3,5.1,0.3,7.2h-4
				c-0.3-2.2-0.1-4.5,0.5-6.6c-1.1,2.2-2.2,4.3-2.8,6.6h-2.8c-3.2-4.8-6.5-2.1-14.4,0h-7.6c-0.1-2.1-0.1-3.7,1.8-6
				c-3.1,1.2-5.4,3.4-6.7,6H9.9c-0.6-2.2-1-4.5-1.3-6.6c-0.5,2.2-1,4.4-1.7,6.6H0v190.8c1.2,0.2,2.3,0.4,3.5,0.6
				c2.2-3.7,2.5-9.2,1.6-13.4c1.4,3.2,2.2,6.9,2.5,9.9c4.3-11,12.2-16.7,21.5-23.5c-5.1,7.3-13.3,15.4-9.5,24.8
				c2.6-1.5,4.8-4.9,4.5-7.9c0.4,1.9,1.3,4.4,1.6,6.8c2.8-3.3,5.1-7.3,7.8-10c-0.5,4.2-2.2,8.2-1.5,13.1c0.3-0.2,0.6-0.4,1-0.6
				c0.1-0.6,0.2-1.1,0.3-1.6c0.1,0.5,0.3,0.9,0.5,1.3c1.2-0.4,2.6-0.8,3.8-1.4c-0.1,1.2-0.3,3-0.6,4.8c0.1,0,0.1-0.1,0.2-0.1
				c0.2-1.2,0.4-2.3,0.6-3c0.5,0.5,1.2,1,1.8,1.5c1.3-0.8,2.5-1.7,3.4-3c-0.1,1.2-0.3,2.5-0.5,3.8c1.3-3.5,1.1-7,1.8-10.2
				c1.6,3,2.4,7,3.9,10.6c0.9-2,2.4-3.9,3.2-5.3c-1,2.5-0.1,6,1.7,7.9c5.7-7,1-16.1-1.3-23.6c5.8,8,10.8,14.9,11.7,24.8
				c1-3.3,1-7.2,0.3-10.3c1,2.2,1.6,4.5,2,6.8c0.7-1.2,1.6-2.3,2.5-3.4c-1,1.7-1.7,3.7-2.2,5.8c0,0.2,0.1,0.5,0.1,0.7
				c4.3-11,12.2-16.7,21.5-23.5c-5.1,7.3-13.3,15.4-9.5,24.8c2.6-1.5,4.8-4.9,4.5-7.9c0.4,1.9,1.3,4.4,1.6,6.8
				c2.8-3.3,5.1-7.3,7.8-10c-0.5,4.2-2.2,8.2-1.5,13.1c1.3-1.1,3.8-1.4,5.7-2.4c-0.1,1.2-0.3,3-0.6,4.8c0.6-0.5,1.3-0.9,2-1.3
				c1.4-3.1,3.9-5.7,7.7-7.4c0.6,2,0.3,3.8,0,5.6c6.9-1.6,7.7-6.2,6.8-12c3,4.3,5.9,9.5,8.9,13.8c0.5-1.1,1.2-2,2-2.7
				c-0.1-1.1-0.2-2.2-0.4-3.2c0.4,0.9,0.7,1.8,1,2.7c1.6-1.4,3.4-2.4,4.3-4c-0.7,2.1-0.9,4.5-0.8,6.8c4.5-8.2,11.5-13.2,19.4-19
				c-5.1,7.3-13.3,15.4-9.5,24.8c2.6-1.5,4.8-4.9,4.5-7.9c0.4,1.9,1.3,4.4,1.6,6.8c2.8-3.3,5.1-7.3,7.8-10
				c-0.5,4.2-2.2,8.2-1.5,13.1c1.3-1.1,3.8-1.4,5.7-2.4c-0.1,1.2-0.3,3-0.6,4.8c2-1.6,4.5-2.5,6-4.7c-0.3,2.3-0.6,4.9-1.1,7.4
				c1,0.1,1.9,0.2,2.9,0.3c1.9-3.7,2.1-8.8,1.3-12.8c1.4,3.2,2.2,6.9,2.5,9.9c4.3-11,12.2-16.7,21.5-23.5
				c-5.1,7.3-13.3,15.4-9.5,24.8c2.6-1.5,4.8-4.9,4.5-7.9c0.4,1.9,1.3,4.4,1.6,6.8c2.8-3.3,5.1-7.3,7.8-10
				c-0.5,4.2-2.2,8.2-1.5,13.1c1.3-1.1,3.8-1.4,5.7-2.4c-0.1,1.2-0.3,3-0.6,4.8c2-1.6,4.5-2.5,6-4.7c-0.2,1.7-0.4,3.7-0.8,5.6
				c1.6,0.1,3.2,0.3,4.8,0.4c-0.2-2.1-0.2-4.4-0.2-6.4c1.1,2.1,3.2,3.2,4.8,4.8c0-1.6,0-3.2,0-4.3c1.6,1.1,3.7,1.6,4.8,2.7
				c1.1-4.3,0-8,0-11.7c2.1,2.7,3.7,6.4,5.9,9.6c0.5-2.1,1.6-4.3,2.1-5.9c-0.5,2.7,1.1,5.9,3.2,7.5c4.3-8-2.1-16-5.9-22.9
				c7.5,6.9,13.9,12.8,16.5,22.9c0.3-1.5,0.8-3.1,1.4-4.7c-0.1-0.9-0.2-1.8-0.4-2.7c0.3,0.6,0.5,1.2,0.7,1.8c0.4-1,0.9-2,1.5-3
				c-0.5,1.4-0.8,3-0.9,4.6c0.6,2.2,1,4.5,1.2,6.5c4.3-11,12.2-16.7,21.5-23.5c-5.1,7.3-13.3,15.4-9.5,24.8c2.6-1.5,4.8-4.9,4.5-7.9
				c0.4,1.9,1.3,4.4,1.6,6.8c2.8-3.3,5.1-7.3,7.8-10c-0.5,4.2-2.2,8.2-1.5,13.1c1.3-1.1,3.8-1.4,5.7-2.4c-0.1,1.2-0.3,3-0.6,4.8
				c2-1.6,4.5-2.5,6-4.7c-0.2,1.7-0.4,3.7-0.8,5.6c0.7,0,1.4,0.1,2.1,0.1c1-2.7,2.9-5.2,5.8-7.2c0.9,1.9,0.9,3.7,0.9,5.6
				c6.5-2.8,6.5-7.4,4.6-13c3.7,3.7,7.4,8.3,11.1,12c0.9-3.7,4.6-5.6,5.6-8.3c-0.6,4.2,0.7,8.8,2.3,12.8c0.6,0,1.1,0.1,1.7,0.1
				c-0.3-3-0.3-6.2-0.3-9c1.5,3.1,4.6,4.6,7,7c0-2.3,0-4.6,0-6.2c2.3,1.5,5.4,2.3,7,3.9c1.5-6.2,0-11.6,0-17
				c3.1,3.9,5.4,9.3,8.5,13.9c0.8-3.1,2.3-6.2,3.1-8.5c-0.8,3.9,1.5,8.5,4.6,10.8c6.2-11.6-3.1-23.2-8.5-33.2
				c10.7,9.9,19.9,18.4,23.8,32.7c0.1,0,0.1,0.1,0.2,0.1c0.8-3.8,2.3-8.3,4.6-12c-1.4,4.1-1.9,9.3-1,13.8c1.2,0.6,2.4,1.1,3.1,1.9
				c1.5-6.2,0-11.6,0-17c3.1,3.9,5.4,9.3,8.5,13.9c0.8-3.1,2.3-6.2,3.1-8.5c-0.8,3.9,1.5,8.5,4.6,10.8c6.2-11.6-3.1-23.2-8.5-33.2
				c10.8,10,20.1,18.5,24,33.2c0.8-3.9,2.3-8.5,4.6-12.4c-0.8,2.5-1.4,5.4-1.5,8.3c4.7-8.6,11.8-15.1,19.6-22.3
				c-5.4,10-14.6,21.6-8.5,33.1c0,0,0.1,0,0.1,0c3-2.3,5.3-6.9,4.5-10.7c0.8,2.3,2.3,5.4,3.1,8.5c3.1-4.6,5.4-10,8.5-13.9
				c0,5.3-1.5,10.6-0.1,16.6c0.2,0,0.4,0,0.6,0c1.6-1.3,4.4-2.1,6.5-3.4c0,1,0,2.2,0,3.6c1,0,2,0,2.9,0.1c1.6-1.3,3.1-2.6,4-4.4
				c0,1.4,0,3,0,4.5c2.8,0.1,5.5,0.1,8.3,0.2c-0.2-3.3,1.2-6.6,4.5-8.8c0.6,1.2,0.6,2.5,0.6,3.7c4.4-1.9,4.4-5,3.1-8.7
				c2.5,2.5,5,5.6,7.5,8.1c0.6-2.5,3.1-3.7,3.7-5.6c-0.3,2,0.1,4.1,0.7,6.1c0.9-4.5,0.4-9.8-1-13.9c2.3,3.9,3.9,8.5,4.6,12.4
				c3.9-14.7,13.1-23.2,24-33.2c-5.4,10-14.7,21.6-8.5,33.2c3.1-2.3,5.4-7,4.6-10.8c0.8,2.3,2.3,5.4,3.1,8.5
				c3.1-4.6,5.4-10,8.5-13.9c0,5.4-1.5,10.8,0,17c1.5-1.5,4.6-2.3,7-3.9c0,1.5,0,3.8,0,6.1c0,0,0,0,0,0c2.3-2.3,5.4-3.8,6.9-6.9
				c0,1.8,0,3.7-0.1,5.7c1.6,0.7,3.2,1.4,4.2,2.4c1.5-6.2,0-11.6,0-17c3.1,3.9,5.4,9.3,8.5,13.9c0.8-3.1,2.3-6.2,3.1-8.5
				c-0.8,3.9,1.5,8.5,4.6,10.8c6.2-11.6-3.1-23.2-8.5-33.2c10.8,10,20.1,18.5,24,33.2c0.8-3.9,2.3-8.5,4.6-12.4
				c-1.6,4.8-2.1,11.1-0.4,16.1c0,0,0,0,0,0c1.2-3,1.4-6.2,0.5-9.3c1.5,2.9,2.9,5.8,2.9,9.2c4.4-10.6,12.1-19.8,23.7-23.2
				c-5.3,3.4-17,19.4-3.4,20.8c0-2.4,0.5-3.9-1.5-6.3c3.7,1.4,6.1,4.6,6.7,8.3c0.1,0,0.2,0,0.2,0c1.3-2.8,1.8-6,2.2-8.8
				c0.5,2,0.9,4.1,1.6,6.1c-0.1-1.8-0.1-3.6-0.1-5.2c1.5,3.1,4.6,4.6,7,7c0-2.3,0-4.6,0-6.2c2.3,1.5,5.4,2.3,7,3.9
				c1.5-6.2,0-11.6,0-17c3.1,3.9,5.4,9.3,8.5,13.9c0.8-3.1,2.3-6.2,3.1-8.5c-0.8,3.9,1.5,8.5,4.6,10.8c6.2-11.6-3.1-23.2-8.5-33.2
				c9.9,9.2,18.6,17.2,22.9,29.7c0.7-0.8,1.6-1.5,2.6-2.1c0,0,0,0,0,0c0.8-2.3,1.8-4.7,3.1-6.8c-1.2,3.5-1.7,7.7-1.4,11.6
				c5.3-2.7,5.2-6.9,3.5-11.9c3.5,3.4,6.9,7.7,10.4,11.2c0.1-1.7,0-3.4-0.5-5c0.5,1.1,1.1,2.2,1.5,3.3c1.4-2.3,3.8-3.9,4.5-6
				c-0.2,1.7-0.1,3.5,0.2,5.3c4.6-7.7,11.3-14,20.5-16.7c-5.3,3.4-17,19.4-3.4,20.8c0-2.4,0.5-3.9-1.5-6.3c3.3,1.2,5.5,3.8,6.4,6.9
				c0.3,0,0.6,0,0.9,0c0.2-0.2,0.3-0.5,0.5-0.7c0.7-2.2,1.1-4.6,1.4-6.7c0.2,0.9,0.4,1.9,0.7,2.8c1-2.6,1.6-5.2,2.2-7.9
				c0.5,2.9,1,6.3,2.4,9.2c0.5-3.9,2.9-7.3,6.8-8.7c-1.9,2.4-1.5,3.9-1.5,6.3c1-0.1,1.8-0.3,2.6-0.6c0.7-2,1.2-4.1,1.6-6.2
				c0.2,1.5,0.5,3.1,0.9,4.7c4.5-4.8-4.1-16-8.5-18.7c9.6,2.8,16.5,9.5,21.1,17.8c2.7-5.2-5.1-15.2-9.2-17.8
				c6.9,2,12.5,6.1,16.7,11.3c4.2-4.8,9.5-8.6,16-10.5c-4.4,2.8-12.9,13.9-8.5,18.7c0.6-1.9,1.5-3.7,2.4-5.5
				c-0.7,2.3-0.7,4.6-0.2,6.9c0.8,0.3,1.8,0.6,3,0.7c0-2.4,0.5-3.9-1.5-6.3c3.7,1.4,6,4.5,6.7,8.1c0.1,0,0.3,0,0.4,0
				c1.2-2.8,1.7-5.9,2.1-8.5c0.6,2.8,1.3,5.6,2.4,8.3c3.1-0.2,6.2-0.4,9.3-0.6c0.7-2.5,0.7-5.1,0-7.6c1.2,2.4,2.4,4.8,2.8,7.4
				c0.3,0,0.6,0,0.9-0.1c4.5-9.9,12-18.2,22.9-21.4c-4.9,3.1-15.2,16.9-6.1,20.2c0.9-0.1,1.8-0.1,2.7-0.2c0.1-2,0.2-3.4-1.5-5.5
				c0.9,0.3,1.7,0.8,2.4,1.3c0.1-1.4,0.2-2.8,0.3-4.3c0.9,2.6,1.9,5.6,3.6,8.1c0.1,0,0.2,0,0.4,0c0-3.7,1.8-7.2,5.1-9.2
				c-1.5,2.7-0.8,4.1-0.3,6.4c13.1-3.8-1.1-17.5-7-19.9c11.2,1.2,20,8,26.1,16.7c1.7-3.7,2.2-8,1-11.9c1.7,3.4,3.4,6.9,3.4,10.9
				c5.2-12.6,14.4-23.5,28.1-27.5c-6.3,4-20.1,22.9-4,24.7c0-2.9,0.6-4.6-1.7-7.5c4.6,1.7,7.5,5.7,8,10.3c1.7-3.4,2.3-7.5,2.9-10.9
				c0.9,4.1,1.8,8.2,3.9,12c1.8-0.2,3.6-0.4,5.4-0.5c1.2-3.3,1.1-6.8-0.5-9.8c2.1,2.6,4.2,5.3,4.6,8.6c3.7-11.2,11.6-21.5,24.8-26.7
				c-5.8,4.2-17.3,21.8-1.2,21.1c-0.3-2.4,0.1-3.9-2.5-6c4.7,0.8,8,3.8,9.1,7.5c1.3-3.1,1.4-6.5,1.6-9.5c1.4,3.3,2.8,6.7,5.3,9.6
				c4-4.6,5.7-10.9,4-16.6c1.7,3.4,3.4,6.9,3.4,10.9c5.2-12.6,14.4-23.5,28.1-27.5c-6.3,4-20.1,22.9-4,24.7c0-2.9,0.6-4.6-1.7-7.5
				c4.6,1.7,7.5,5.7,8,10.3c1.7-3.4,2.3-7.5,2.9-10.9c0.6,2.7,1.2,5.3,2.1,7.9c0-1.2,0-2.4,0-3.5c1.1,2.1,3.2,3.2,4.8,4.8
				c0-1.6,0-3.2,0-4.3c1.6,1.1,3.7,1.6,4.8,2.7c1.1-4.3,0-8,0-11.7c2.1,2.7,3.7,6.4,5.9,9.6c0.5-2.1,1.6-4.3,2.1-5.9
				c-0.5,2.7,1.1,5.9,3.2,7.5c4.3-8-2.1-16-5.9-22.9c7.5,6.9,13.9,12.8,16.5,22.9c0.5-2.7,1.6-5.9,3.2-8.5c-0.4,1.2-0.7,2.5-0.9,3.8
				c0.7-1.4,1.9-2.6,3.4-3.6c0.6,1.2,0.6,2.5,0.6,3.7c4.4-1.9,4.4-5,3.1-8.7c2.5,2.5,5,5.6,7.5,8.1c0.6-2.5,3.1-3.7,3.7-5.6
				c-0.4,2.5,0.3,5.1,1.1,7.5c4.5-0.7,8.9-1.5,13.4-2.2V154.9c0,0,0.1,0,0.1-0.1l0.2,0v-4.6C999.9,150.1,999.8,149.8,999.7,149.5z"
				/>
			<path class="st4" d="M236.2,367.5C236.2,367.5,236.2,367.4,236.2,367.5l-0.3,0C236,367.4,236.1,367.5,236.2,367.5z"/>
			<path class="st4" d="M890.3,356.8c0.1,0.2,0.3,0.3,0.5,0.5c1.2-0.1,2.5-0.3,3.7-0.4c-0.3-0.2-0.6-0.4-0.8-0.6L890.3,356.8z"/>
			<path class="st4" d="M236.2,367.5C236.2,367.5,236.2,367.4,236.2,367.5l-0.3,0C236,367.4,236.1,367.5,236.2,367.5z"/>
			<path class="st4" d="M890.3,356.8c0.1,0.2,0.3,0.3,0.5,0.5c1.2-0.1,2.5-0.3,3.7-0.4c-0.3-0.2-0.6-0.4-0.8-0.6L890.3,356.8z"/>
			<g>
				<path class="st5" d="M357.9,594.5c-2.1-1.6-4.2-3.2-6.2-4.8c-0.1,0-0.2-0.1-0.3-0.1c-0.5-0.3-0.9-0.6-1.2-1
					c-5.1-4.6-10.1-9.3-15-14.1c-0.5,0-1-0.2-1.5-0.6c-2.7-2.3-4.9-4.9-7.2-7.6c-0.8-1-0.8-2-0.3-2.9c-0.8-1-1.6-2-2.4-3l-45.6-45.6
					c-1,0.7-2.3,0.9-3.3-0.1c-3.9-4.4-7.9-8.6-11.4-13.4c-0.1-0.1-0.2-0.3-0.2-0.4c-1.9-2-4-3.9-6.1-5.8c-0.7-0.6-0.9-1.3-0.8-2
					l-45-45c-0.7,0.1-1.4-0.1-2-0.8c-2.4-2.9-4.8-5.8-7.4-8.6l-22.8-22.8c-0.5-0.1-1-0.3-1.4-0.7c-1.5-1.4-3-2.9-4.4-4.4
					c-7.7-7.5-15.8-14.4-23.9-21.3c-0.1-0.1-0.2-0.1-0.3-0.2c-3.1-2.3-5.7-5-8.6-7.6c-1.3-1.1-0.9-2.6,0.1-3.5
					c-6.6-7.7-14-14.7-21.6-21.5c-0.7,1.3-2.5,2-3.8,0.6c-6.3-6.8-12.1-14.1-17.6-21.5c-0.5-0.7-0.6-1.4-0.4-1.9l-37.6-37.6
					c-0.7,1.4-2.8,2.2-4.2,0.9c-3.3-3.2-6-6.7-8.5-10.5c-0.8,0.3-1.8,0.2-2.5-0.5c-7.1-6.3-13.2-13.7-18.4-21.7
					c-3.1-3.1-6.2-6-9.5-8.9c-5.1-4.6-10.4-8.9-15.9-13.1c-0.3-0.2-0.6-0.5-0.9-0.7v29.5l104.7,104.7c0.9-0.7,2.1-0.8,3.1,0.3
					c6.5,6.8,12.8,13.8,18.4,21.3l27,27c8.2,4.2,15.1,10.8,21.3,17.8c7.8,6.6,13.9,14.9,19.7,23.2l29.6,29.6c2,1.9,4,3.8,5.9,5.9
					l15.4,15.4c12.1,7.7,22.5,18.1,33.7,27c1.2,1,0.9,2.5,0,3.4c9.1,8.1,17.9,16.6,26.1,25.6c0.7-0.1,1.4,0.1,2,0.6
					c8.5,7.1,16.1,15.1,23,23.8h30.3L357.9,594.5z"/>
				<g>
					<path class="st6" d="M97.7,335.9c-0.5-0.7-0.6-1.4-0.4-1.9l-11.5-11.5c-4.9,6.6-10.9,13.9-7.6,22.2c2.6-1.5,4.8-4.9,4.5-7.9
						c0.4,1.9,1.3,4.4,1.6,6.8c2.8-3.3,5.1-7.3,7.8-10c-0.5,4.2-2.2,8.2-1.5,13.1c1.3-1.1,3.8-1.4,5.7-2.4c-0.1,1.2-0.3,3-0.6,4.8
						c0.6-0.5,1.3-0.9,2-1.3c1-2.2,2.5-4.1,4.6-5.6C100.8,340,99.3,338,97.7,335.9z"/>
					<path class="st6" d="M59.7,296.3c-0.7,1.4-2.8,2.2-4.2,0.9c-3.3-3.2-6-6.7-8.5-10.5c-0.8,0.3-1.8,0.2-2.5-0.5
						c-7.1-6.3-13.2-13.7-18.4-21.7c-3.1-3.1-6.2-6-9.5-8.9c-5.1-4.6-10.4-8.9-15.9-13.1c-0.3-0.2-0.6-0.5-0.9-0.7v29.5l54.1,54.1
						c-0.7-2.3-1.6-4.5-2.2-6.6c3.1,4.3,6,8.2,8.1,12.5l4.2,4.2c-0.1-0.8-0.2-1.5-0.3-2.2c0.4,1,0.8,2,1.1,3l2.1,2.1
						c0.4-0.6,0.9-1.1,1.3-1.6c-0.4,0.6-0.7,1.3-1,2l0.6,0.6c4-7.6,10.1-12.5,17.1-17.7L59.7,296.3z"/>
				</g>
				<path class="st6" d="M875.6,89.5l31.3,31.3c-4.3-4.9-8.7-9.6-13.3-14.1c-0.8-0.8-0.9-1.7-0.6-2.5
					C887.3,99.2,881.5,94.4,875.6,89.5z"/>
				<path class="st5" d="M977.9,161.1c-0.8-0.7-0.9-1.6-0.6-2.5c-3.1-3.1-6.4-6.2-9.8-9c-1.2-1-1-2.2-0.3-3.1
					c-0.1-0.1-0.2-0.3-0.3-0.4l-43.8-43.8c-0.4,0-0.9-0.1-1.3-0.4c-7.3-5.5-15.9-11.1-19.8-19.8c-0.2-0.4-0.2-0.8-0.2-1.2
					l-23.5-23.5c-6.8-5-13.5-10-19.2-16.3c-0.5-0.6-0.7-1.2-0.7-1.8c-5.7-6.6-11.4-13.3-17.6-19.4c-0.8,0.3-1.7,0.2-2.4-0.7
					c-1.3-1.5-2.5-3.1-3.6-4.7c-0.4-0.3-0.7-0.6-1.1-1c-0.5,0-1-0.2-1.5-0.6c-1.3-1.1-2.5-2.1-3.7-3.3C827.7,9,827.7,8,828,7.1
					L820.9,0h-34.7l10,10c0.9-0.8,2.3-1.1,3.4,0c4.4,4.4,8.7,8.8,12.9,13.3c1,1,0.8,2.3,0.2,3.2l13.8,13.8c0.9-0.8,2.3-1.1,3.4,0
					c10.3,10.3,20.9,20.4,30.2,31.6c0.9-0.6,2.1-0.7,3.1,0.2c11.9,11.1,25.1,20.7,37,31.8c0.9,0.8,0.9,1.9,0.5,2.7
					c7.8,7.9,14.9,16.3,21.7,25c1.1,1.4,0.5,3.1-0.6,3.9l27.8,27.8c0.4-1.7,2.6-3,4.2-1.4c4.3,4.3,8.8,8.5,12.9,12.9
					c0.7,0.7,0.8,1.6,0.6,2.3c6,4.5,11.8,9.1,16.9,14.5c0.5-0.6,0.9-1.1,1.1-1.7c-0.1,1-0.1,1.9,0,2.9c0.5,0.5,0.9,1,1.4,1.5
					c0.4,0.5,0.6,1,0.6,1.4c0.6,0.4,1.1,0.8,1.7,1.2c3.6-0.6,7.2-1.2,10.8-1.8v-16.1C992.5,173,985,167.3,977.9,161.1z"/>
				<g>
					<path class="st6" d="M977.9,161.1c-0.8-0.7-0.9-1.6-0.6-2.5c-3.1-3.1-6.4-6.2-9.8-9c-1.2-1-1-2.2-0.3-3.1
						c-0.1-0.1-0.2-0.3-0.3-0.4l-0.5-0.5c-0.1,0.3-0.2,0.5-0.4,0.8h-1.6c-0.3-0.7-0.7-1.4-1-2c-0.2-0.7-0.3-1.5-0.5-2.2l-1.1-1.1
						c0,0.2-0.1,0.4-0.1,0.6c-0.7-1-1.4-1.9-2.1-2.8l-9.6-9.6c2.9,5.3,7.2,11.2,7.1,17.2h-4.6c-0.1-0.7-0.1-1.4,0-2.1
						c-0.2,0.6-0.5,1.3-0.8,2.1h-3.6c-1.2-2.1-2.3-4.1-3.6-5.8c0,1.9,0.3,3.8,0.4,5.8h-12.5l16.9,16.9c0.4-1.7,2.6-3,4.2-1.4
						c4.3,4.3,8.8,8.5,12.9,12.9c0.7,0.7,0.8,1.6,0.6,2.3c6.9,5.2,13.7,10.6,19.4,17.3c0.4,0.5,0.6,1,0.6,1.4
						c4.4,2.9,8.5,6.3,12.5,9.8v-26.5C992.5,173,985,167.3,977.9,161.1z"/>
					<path class="st5" d="M991,204.9l8.7,8.7v-1.2C996.9,209.8,994,207.3,991,204.9z"/>
					<path class="st5" d="M931.9,145.7c0-0.1,0-0.2,0-0.3C931.9,145.5,931.8,145.6,931.9,145.7L931.9,145.7z"/>
				</g>
			</g>
		</g>
	</g>
	<g>
		<path class="st7" d="M709.2,444.8c0-0.1,0-0.1-0.1-0.2c-2.4-0.1-4.8-0.3-7.2-0.4c0.1,0.3,0.1,0.6,0.1,0.9
			C704.4,445,706.8,444.9,709.2,444.8z"/>
		<path class="st7" d="M625.1,447.1c0,0.1,0,0.2,0,0.4c1.5,0,3-0.1,4.4-0.1C628.1,447.3,626.6,447.2,625.1,447.1z"/>
		<path class="st7" d="M903.1,428.9v1.1c1.8-0.2,3.6-0.5,5.3-0.7C906.7,428.8,904.9,428.8,903.1,428.9z"/>
		<path class="st7" d="M806.3,438.1c-0.5,0.9-1.4,1.4-2.7,0.9c-0.2-0.1-0.4-0.1-0.6-0.2c0,0.2,0.1,0.5,0.1,0.7
			c2.8-0.2,5.6-0.4,8.4-0.6C809.7,438.7,808,438.4,806.3,438.1z"/>
		<path class="st7" d="M313.1,361.8c-2.6,0.1-5.1,0.2-7.6,0.3C308.1,362.1,310.6,362,313.1,361.8z"/>
		<path class="st7" d="M13,403.6c0,1.8,1.2,3.5,3.3,5.2C15.3,407.1,14.2,405.3,13,403.6z"/>
		<path class="st7" d="M366.8,363.8c-1.2-1.3-2.3-2.6-3.7-3.7c-4.6,0.1-9.2,0.3-13.7,0.4C355,362.3,360.8,363.5,366.8,363.8z"/>
		<path class="st7" d="M42.7,388.7c-0.5-0.1-0.9-0.2-1.4-0.3c-1.1,0.3-2.1,0.6-3.1,0.8C39.7,389,41.2,388.9,42.7,388.7z"/>
		<path class="st7" d="M138.2,433.8c-2-0.8-3.9-1.6-5.9-2.3c0.1,0.5,0,1.1-0.2,1.6C134.1,433.4,136.1,433.6,138.2,433.8z"/>
		<path class="st7" d="M500,362c-0.4-1.3-0.9-2.5-1.4-3.7c-4.1,0-8.2,0-12.3,0C490.9,359.6,495.4,360.9,500,362z"/>
		<path class="st7" d="M585.3,360.2c0-0.5,0.1-0.9,0.1-1.4c-1.5,0-3,0-4.5-0.1C582.3,359.3,583.8,359.8,585.3,360.2z"/>
		<path class="st7" d="M285.4,444.2c1.9,0.1,3.7,0.2,5.6,0.3c0.1-0.1,0.2-0.3,0.4-0.4c-0.4-0.4-0.7-0.9-0.8-1.4
			C288.8,443.2,287.1,443.7,285.4,444.2z"/>
		<path class="st7" d="M210.5,438.3l-1.5,1.5c4.3,0.3,8.6,0.6,13,0.9c0-0.2,0.1-0.5,0.2-0.7c0.3-0.8,0.7-1.5,1-2.3
			c-3.5,0.9-7.1,1.4-10.8,1.4C211.6,439.2,210.9,438.8,210.5,438.3z"/>
		<path class="st7" d="M165.6,433.2c-0.4,0.3-0.8,0.4-1.4,0.4c-0.9,0-1.9,0-2.8,0c-0.3,0.4-0.7,0.6-1.2,0.8c-0.3,0.1-0.7,0.2-1,0.3
			c0,0.4-0.1,0.7-0.3,1.1c6,0.5,12.1,1.1,18.4,1.6c-0.2-0.2-0.4-0.5-0.5-0.8C173,435.7,169.3,434.5,165.6,433.2z"/>
		<path class="st7" d="M987,403.7c-1,0.4-2.1,0.7-3.3,1.1c-2.8,0.9-4.2-3.1-1.9-4.6c2-1.3,3.7-3,4.7-4.9c-0.9-0.5-2-0.9-3.1-1.4
			c-2.1,0.2-4.2,0.3-6.4,0.3c-2.7,1-5.4,1.6-8.2,2.3c-1.6,0.4-3.2-0.7-3.2-2.4c0-0.4,0-0.8,0-1.2c-3,1.7-6.2,2.9-9.8,3.6
			c-2.8,0.5-4.3-2.9-1.9-4.6c1.3-0.9,2.5-1.9,3.5-3c-2,1.1-4.3,1.9-6.8,2.1c-1.8,0.1-2.7-1.7-2.4-3.2c0.2-1.2,0.3-2.3,0.4-3.5
			c-0.5-0.1-1-0.2-1.5-0.3c-2.6,1.3-5.5,2.1-8.5,2.3c-1,0.1-1.7-0.4-2-1c-2.7,0.5-5.4,0.9-8.2,1c-1.3,0-2.1-0.9-2.4-1.9
			c-3.6,0.9-7.4,0.9-11.3,0c-0.2-0.1-0.4-0.1-0.6-0.2c-6.3,2.6-13.1,3.9-20.1,4c-2.8,0-3.4-4.3-0.7-4.9c6.5-1.4,13.8-1.6,19.8-4.8
			c-62.5-8.7-156.8-15.3-267.5-18.4c2.9,3.4,5.3,7.2,8.3,10.8c2.1,2.4-1.2,5.8-3.5,3.5c-3-3-6.3-5.6-9.6-8.3
			c-0.4,0.3-0.8,0.6-1.3,0.6c1.1,2-1.1,4.9-3.4,3.4c-5-3.3-11.1-6.7-17.3-6.1c-1.1,0.1-2.1-0.9-2.4-1.8c-0.3-1-0.5-1.9-0.6-2.9
			c-5.4-0.1-10.9-0.2-16.4-0.3c0,0-0.1,0-0.1,0c-3.1-0.1-6.1-0.1-9.2-0.2c-0.1,1.5-0.2,3-0.3,4.6c-0.1,1.6-1.5,2.8-3.2,2.4
			c-6-1.6-11.7-3.8-17.3-6.4c0.1,1,0.1,2,0.1,3c0,2-2.1,3-3.8,2.2c-3.8-1.9-7.4-4.1-11-6.2c-1.4,0-2.8,0-4.2,0
			c-0.5,0.8-1.5,1.3-2.6,1c-1.2-0.3-2.4-0.7-3.6-1c-13.3-0.1-26.8-0.2-40.4-0.2c0.7,2,1.4,4,2.4,5.8c1.2,2-0.8,4-2.8,3.7
			c-11-1.8-21.4-6-32.3-8.4c0.1,0.2,0.1,0.4,0.2,0.7c0.4,2-1.1,3.4-3.1,3.1c-6.2-1.1-12.2-2.8-18.3-4.6c-13.5,0.1-26.9,0.3-40.1,0.6
			c-0.5,0.9-1.5,1.6-2.8,1.3c-1.7-0.4-3.3-0.8-5-1.1c-0.8,0-1.6,0-2.5,0c1.1,1.5-0.1,4-2,4c-9-0.1-18-1.2-26.9-2.1
			c1,1.1,2,2.1,3.2,3c1.9,1.5,1.4,4.5-1.3,4.7c-6.9,0.4-13.7-0.5-20.3-2.2c1.4,1.7-0.3,4.7-2.6,4c-8.2-2.8-16.3-5.8-24.6-8.1
			c0,1.1-0.6,2.2-1.8,2.5c-14.8,4.3-30.2,0.6-45.4,0.1c0.8,0.6,1.6,1.2,2.4,1.8c2.2,1.6,0.9,5.4-1.9,4.6c-3.7-1.1-7.3-2.2-10.9-3.4
			c-0.5,1.1-1.7,1.9-3,1.5c-4-1.2-7.7-3-11.3-5c-11.7,0.6-23.2,1.3-34.2,2.1c1.1,1.6,0.2,4-2,4c-5.5-0.1-10.7-0.9-15.7-2.8
			c-47.4,3.4-87.8,7.7-118.9,12.4c-0.1,1.2-1.1,2.3-2.5,2.4c-2.3,0-4.6,0-6.8,0.1c0.2,1.2-0.3,2.4-1.7,2.6
			c-5.1,0.9-10.3,1.4-15.4,1.8c2,0.8,2,4.3-0.3,4.7c-4.5,0.8-9,1.4-13.5,1.9c-0.3,0.4-0.7,0.7-1.3,0.8c-2.9,0.7-5.9,1.3-8.9,1.7
			c0.9,1.5,0.3,3.9-2,3.9H17.5c0.3,0.6,0.6,1.2,1,1.8c2,1.7,3.9,3.5,5.8,5.3c0.4,0,0.9,0.1,1.3,0.3c1.9,1.1,3.8,2.3,5.6,3.5
			c0.2-1.1,1.1-2,2.4-1.9c0.8,0,1.7,0.1,2.5,0.1c-0.5-0.5-1-1-1.5-1.4c-2-2,0.6-5.4,3-3.9c7.4,4.3,14.5,9,21.6,13.6c0,0,0,0,0,0
			c-1.6-2.4,2-5,3.9-3c3.2,3.2,6.5,6.4,9.8,9.5c1.2,0.6,2.3,1.3,3.4,1.9c1,0.2,1.9,0.3,2.9,0.5c-0.2-0.5-0.4-0.9-0.7-1.4
			c-1.1-2.4,1.1-4.4,3.4-3.4c4.8,2.1,9.5,4.5,14.4,6.3c-0.3-0.7-0.7-1.3-1.1-2c-1.4-2.2,1.3-4.5,3.4-3.4c3.4,1.8,6.8,3.7,10.2,5.3
			c-0.2-1.6,1.2-3.2,2.9-2.9c0.3-1.3,1.5-2.3,3-1.8c3.4,1.2,6.6,2.6,9.9,4c0.2-1.4,1.5-2.6,3.1-2.1c7.2,1.9,14,4.8,20.7,8
			c0.3-0.3,0.6-0.5,1.1-0.6c1.3-0.3,2.6-0.7,4-1.1c0.2-0.7,0.8-1.4,1.6-1.7c1.5-0.6,3.2-0.8,4.8-0.9c0.3-1.3,1.5-2.5,3-1.9
			c6.2,2.6,12.5,4.5,19,5.9c9.9-1.5,19.8-2,29.8-2.2c0.3-0.1,0.7-0.1,1,0c2.9,0,5.9-0.1,8.9-0.1c1.2,0,2.1,0.8,2.4,1.9
			c0.8-0.3,1.7-0.5,2.5-0.8c1.3-0.5,2.6,0.5,3,1.7c0.4-0.5,0.7-0.9,1-1.5c1.7-2.8,5.6-0.4,4.3,2.5c-0.9,2.1-1.4,4.3-1.8,6.5
			c1.2-0.2,2.4-0.5,3.6-0.9c1-0.4,1.8-0.1,2.4,0.5c3.6-1.4,7.3-2.3,11.3-2.5c1,0,1.6,0.4,2,0.9h7.3c0.4-0.5,1.1-0.8,1.8-0.9
			c8.9-0.9,17.9-0.9,26.9-0.9c0.7,0,1.2,0.2,1.6,0.6c1.4-0.5,2.8-0.9,4.2-1.4c1.8-0.6,3.3,1.1,3.1,2.8c1.3-0.1,2.7-0.1,4-0.1
			c0.9,0,1.5,0.4,1.9,0.9c2.4-0.5,4.8-0.8,7.3-0.9c2-0.1,2.9,2.1,2.1,3.7c2-0.3,4-0.3,6.2-0.1c6.6-0.1,13.1-0.1,19.6,1.4
			c0.5-0.6,1-1.3,1.4-1.9c1.1-1.5,3.3-1.7,4.3,0c0.4,0.6,0.8,1.1,1.2,1.7c0-0.5-0.1-1-0.2-1.6c-0.4-1.8,1-3.1,2.4-3.1
			c0.9-1.1,2.6-1.6,3.7-0.3c1.3,1.6,2.8,2.9,4.4,4.2c0.6-0.9,1.7-1.5,2.8-1.1c1.6,0.5,3.2,1,4.7,1.4c-0.1-0.4-0.3-0.8-0.4-1.1
			c-0.8-2.1,1.9-3.8,3.7-2.8c2.3,1.4,4.7,2.6,7,3.8c-1.6-2.1,0.7-5.2,3.1-3.8c1.1,0.7,2.3,1.4,3.4,2c-0.1-0.2-0.2-0.3-0.3-0.5
			c-1.4-2,1.4-4.8,3.4-3.4c1.6,1.2,3.2,2.3,4.9,3.4c0.3-0.1,0.6,0,1,0c4.2,0.9,8.4,1.9,12.6,2.7c-0.1-1.5,1.2-3.1,3.1-2.7
			c2.7,0.6,5.2,1.5,7.8,2.4c0.4-0.4,1-0.7,1.7-0.6c5.8,0.7,11.5,2.1,17.2,3.3c-0.5-1.7,0.8-3.9,2.9-3.2c0.5,0.2,0.9,0.3,1.4,0.5
			c0.5-0.6,1.4-0.9,2.3-0.5c4.5,1.7,9,3.2,13.6,4.4c-2.3-1.4-0.3-4.9,2.2-4.4c4.8,1,9.7,2,14.5,3.1c0.3-1.3,1.6-2.5,3.1-2.1
			c4.2,1,8.4,1.7,12.7,2.3c-0.4-1.5,0.7-3.4,2.4-3.3c2.9,0.1,5.7,0.7,8.5,1.5c-0.3-0.3-0.7-0.6-1-0.9c-1.8-1.7,0.1-5,2.4-4.2
			c3.4,1.1,6.9,2.2,10.4,2.9c-0.1-0.1-0.2-0.2-0.3-0.2c-2.6-1.8-0.2-6.1,2.5-4.3c3.4,2.2,6.8,4.1,9.8,6.9c0.8,0.8,0.9,1.9,0.4,2.9
			c0.9,0.5,1.9,0.8,2.9,0.9c0.4-1,1.3-1.8,2.3-1.8c1.9-0.1,3.8-0.2,5.7-0.2c0.1-1.4,1.7-2.7,3.3-2.5c1.1,0.2,2.2,0.3,3.3,0.4
			c0.2-1.4,1.7-2.6,3.2-2.2c6.9,1.9,13.9,3.7,20.9,5.4c-0.3-1.9,2-3.2,3.8-2.4c2,0.9,4.2,1.3,6.4,1.6c-0.2-1.5,1.5-3.1,3.2-2.8
			c1.8,0.3,3.6,0.5,5.3,0.6c0.5-1.1,1.7-1.9,3-1.6c4.9,1.3,9.7,2.8,14.5,3.9c-0.3-1.5,0.7-3.3,2.4-3.1c3.9,0.5,7.8,0.9,11.6,1.3
			c-0.4-1.5,0.3-3.3,2.2-3.1c3.9,0.4,7.8,0.5,11.7,0.6c0.4-1.1,1.4-1.9,2.9-1.5c3.1,1,6.2,1.8,9.3,2.8c0.3,0.1,0.6,0.3,0.8,0.4
			c0.4-1,1.5-1.7,2.9-1.4c2.7,0.6,5.5,1.2,8.2,1.8c-2.3-1.7-0.8-5,2-4.5c4,0.6,8,1.4,12.1,2c0.4-0.7,1.1-1.3,2.1-1.2
			c2.3,0.2,4.1,1.1,6.2,1.9c0.4,0.2,0.8,0.4,1,0.7c2.3,0.7,4.6,1.2,6.9,1.5c0.2-1.2,1.2-2.3,2.5-2.3h9.9c-0.8-1.5,0.1-3.7,2.2-3.7
			c3.6,0,7.1,0.3,10.6,0.6c-0.6-1.9,1.4-4.3,3.6-3c3.5,2.2,7.4,3.7,11.3,4.7c1.2-0.1,2.4-0.2,3.5-0.3c0.2-1.1,1.1-1.9,2.4-2
			c3.7-0.2,7.4-0.1,11.1,0.1c0.3-0.1,0.6-0.1,0.9-0.1c1.3,0.1,2.5,0.2,3.8,0.4c2.7,0.2,5.4,0.4,8.2,0.6c0.5-0.2,1-0.2,1.7,0
			c0.2,0.1,0.3,0.1,0.5,0.2c3.8,0.2,7.7,0.3,11.5,0.1c0.6-0.9,1.7-1.4,2.8-1.2c1.2,0.3,2.4,0.4,3.6,0.6c0.2-0.4,0.5-0.8,0.8-1.1
			c-0.5-1.7,0.9-4,3-3.2c0.2,0.1,0.4,0.2,0.6,0.3c0,0,0,0,0,0c0.1,0,0.2,0.1,0.2,0.1c1.1,0.5,2.1,1,3.1,1.6c0.7,0.3,1.3,0.6,2,0.9
			c0.4-0.2,0.9-0.2,1.5-0.1c1.7,0.4,3.4,0.6,5.2,0.7c0-1.5,1.5-2.9,3.2-2.5c2,0.4,3.9,0.4,5.9,0.5c-1.6-1.7-0.1-4.9,2.4-4.2
			c1,0.3,2.1,0.5,3.1,0.7c0.6-0.6,1.5-0.9,2.4-0.7c9.7,2.2,19.6,3,29.4,1.6c-0.2-1.3,0.6-2.7,2.4-2.7h11.5c0.1-1.1,0.9-2,2.3-1.9
			c0.4,0,0.7,0.1,1,0.2c0.7,0.1,1.3,0.3,2,0.4c0.6-0.5,1.4-0.8,2.3-0.5c0.5,0.2,0.9,0.4,1.3,0.6c0.8-0.7,2.1-0.9,3-0.4
			c1,0.6,2.1,1.2,3.1,1.8c0.4-0.7,1.1-1.2,2.1-1.2h6.8c0-1.3,1-2.8,2.5-2.8c3.2,0,6.4,0.2,9.6,0.5c-0.5-1.8,1.5-4,3.7-2.9
			c1.4,0.8,3,1.2,4.6,1.5c-0.2-2,2.2-3.7,4.2-2c1,0.8,2,1.4,3.1,2v-0.2c0-1.4,1.1-2.5,2.5-2.5c2.6-0.1,5-0.3,7.3,0.1
			c0.7-0.8,1.9-1.2,3.2-0.7c0.6,0.3,1.3,0.6,1.9,0.8c0.4-1.8,2.5-2.7,4.2-1.4c0.4,0.3,0.8,0.6,1.2,0.9c-0.3-2.1,2.8-3.2,4.3-1.8
			c0.6,0.5,1.2,1,1.9,1.4c0.1-0.8,0.3-1.6,0.3-2.4c0.2-2.1,2.6-3.3,4.3-1.8c0.5,0.4,0.9,0.8,1.3,1.2c0.3-1.8,2.2-2.3,3.7-1.5
			c0.8-0.7,2-0.5,2.9,0.1c0.9-0.6,2.3-0.6,3.2,0.3c1.3-1.5,4.5-1,4.5,1.6c0,1,0.2,1.8,0.4,2.7c0.9-0.2,1.8-0.3,2.7-0.5
			c-0.2-0.4-0.4-0.9-0.6-1.3c-1.6-0.3-3.1-1.9-1.8-3.6c0.1-0.1,0.1-0.2,0.2-0.2c0.3-0.4,0.7-0.7,1.2-0.9c0.2-0.1,0.4-0.3,0.4-0.4
			c0.7-1.7,2.7-2.5,4.2-1.1c0.6,0.6,1.2,1.2,1.9,1.9c0.8,0.8,1,2.1,0.4,3c-0.4,0.6-0.7,1-1,1.3c0,0.1,0.1,0.2,0.1,0.3
			c0.7-0.1,1.4-0.3,2-0.4c0.4-0.3,0.9-0.5,1.4-0.5c0.1,0,0.2-0.1,0.3-0.1c0.1-1.8,0.3-3.5,1-5.2c0.6-1.5,2.2-2.3,3.7-1.5
			c0.7,0.4,1.4,0.8,2,1.3c0.2-0.6,0.6-1.1,1.3-1.4c1.5-0.6,2.9,0.1,4.2,0.8c0.6-1.5,1.5-2.9,2.9-3.5c2.3-0.9,3.1,1.4,4.7-1
			c0.8-1.2,2.1-1.5,3.4-0.9c1,0.5,1.9,1.2,2.5,2c0.5-0.4,1.1-0.9,1.6-1.4c-0.6-0.9-0.7-2,0.3-3C985.1,406,986.1,404.9,987,403.7z"/>
		<path class="st8" d="M926.3,403.4c-0.9,0.2-1.9,0.3-2.9,0.5c-2.5,0.4-3.7-1.4-1.7-2.1c1.8-0.6,3.2-1.4,4.2-2.3
			c-0.8-0.2-1.7-0.4-2.7-0.6c-1.8,0.1-3.7,0.1-5.6,0.2c-2.3,0.4-4.7,0.7-7.2,1c-1.4,0.2-2.8-0.3-2.8-1.1c0-0.2,0-0.4,0-0.6
			c-2.6,0.8-5.4,1.4-8.6,1.7c-2.5,0.2-3.7-1.3-1.7-2.1c1.1-0.4,2.2-0.9,3-1.4c-1.8,0.5-3.8,0.9-6,1c-1.5,0.1-2.3-0.8-2.1-1.5
			c0.2-0.5,0.3-1.1,0.3-1.6c-0.4,0-0.8-0.1-1.3-0.1c-2.3,0.6-4.8,1-7.5,1.1c-0.9,0-1.5-0.2-1.8-0.4c-2.3,0.2-4.7,0.4-7.1,0.4
			c-1.1,0-1.9-0.4-2.1-0.9c-3.1,0.4-6.4,0.4-9.8,0c-0.2,0-0.4-0.1-0.5-0.1c-5.5,1.2-11.5,1.8-17.5,1.9c-2.4,0-3-2-0.6-2.3
			c5.7-0.6,12.1-0.8,17.3-2.2c-54.7-4-137.1-7-234-8.5c2.5,1.6,4.6,3.3,7.3,5c1.8,1.1-1,2.7-3.1,1.6c-2.7-1.4-5.5-2.6-8.4-3.8
			c-0.3,0.2-0.7,0.3-1.2,0.3c0.9,0.9-0.9,2.3-3,1.6c-4.4-1.5-9.7-3.1-15.1-2.8c-1,0-1.9-0.4-2.1-0.8c-0.3-0.5-0.4-0.9-0.5-1.3
			c-4.7-0.1-9.5-0.1-14.3-0.2c0,0-0.1,0-0.1,0c-2.7,0-5.4-0.1-8-0.1c-0.1,0.7-0.2,1.4-0.3,2.1c-0.1,0.7-1.4,1.3-2.8,1.1
			c-5.2-0.7-10.2-1.7-15.1-2.9c0.1,0.5,0.1,0.9,0.1,1.4c0,0.9-1.8,1.4-3.3,1c-3.3-0.9-6.5-1.9-9.7-2.9c-1.2,0-2.5,0-3.7,0
			c-0.5,0.4-1.3,0.6-2.3,0.4c-1.1-0.1-2.1-0.3-3.2-0.5c-11.7,0-23.4-0.1-35.4-0.1c0.6,0.9,1.2,1.8,2.1,2.7c1,0.9-0.7,1.8-2.5,1.7
			c-9.6-0.8-18.7-2.8-28.3-3.8c0.1,0.1,0.1,0.2,0.2,0.3c0.3,0.9-1,1.6-2.7,1.4c-5.4-0.5-10.7-1.3-16-2.1c-11.8,0.1-23.5,0.1-35,0.3
			c-0.4,0.4-1.3,0.7-2.5,0.6c-1.5-0.2-2.9-0.3-4.4-0.5c-0.7,0-1.4,0-2.2,0c1,0.7-0.1,1.8-1.8,1.8c-7.9,0-15.7-0.6-23.5-1
			c0.9,0.5,1.8,1,2.8,1.4c1.7,0.7,1.2,2.1-1.1,2.1c-6.1,0.2-12-0.2-17.7-1c1.2,0.8-0.3,2.2-2.3,1.8c-7.2-1.3-14.3-2.7-21.6-3.7
			c0,0.5-0.6,1-1.6,1.2c-12.9,2-26.4,0.3-39.7,0c0.7,0.3,1.4,0.6,2.1,0.8c1.9,0.7,0.8,2.5-1.7,2.1c-3.2-0.5-6.4-1-9.6-1.6
			c-0.4,0.5-1.5,0.9-2.6,0.7c-3.5-0.6-6.8-1.4-9.9-2.3c-10.3,0.3-20.3,0.6-30,0.9c0.9,0.7,0.1,1.8-1.7,1.8c-4.8,0-9.3-0.4-13.8-1.3
			c-41.5,1.6-76.8,3.5-104,5.7c-0.1,0.6-1,1.1-2.2,1.1c-2,0-4,0-6,0c0.2,0.5-0.3,1.1-1.5,1.2c-4.5,0.4-9,0.6-13.5,0.8
			c1.7,0.4,1.7,2-0.3,2.2c-3.9,0.4-7.9,0.6-11.8,0.9c-0.3,0.2-0.6,0.3-1.1,0.4c-2.6,0.3-5.2,0.6-7.8,0.8c0.8,0.7,0.3,1.8-1.7,1.8
			H78.3c0.3,0.3,0.6,0.6,0.8,0.8c1.7,0.8,3.4,1.6,5.1,2.4c0.4,0,0.8,0,1.1,0.1c1.7,0.5,3.3,1,4.9,1.6c0.2-0.5,0.9-0.9,2.1-0.9
			c0.7,0,1.5,0,2.2,0.1c-0.4-0.2-0.9-0.4-1.3-0.7c-1.8-0.9,0.5-2.5,2.7-1.8c6.4,2,12.7,4.1,18.9,6.3c0,0,0,0,0,0
			c-1.4-1.1,1.7-2.3,3.4-1.4c2.8,1.5,5.6,3,8.6,4.4c1,0.3,2,0.6,3,0.9c0.8,0.1,1.7,0.1,2.6,0.2c-0.2-0.2-0.4-0.4-0.6-0.6
			c-1-1.1,1-2,3-1.6c4.2,1,8.3,2,12.6,2.9c-0.3-0.3-0.6-0.6-1-0.9c-1.2-1,1.1-2.1,3-1.6c3,0.8,5.9,1.7,8.9,2.5
			c-0.2-0.8,1.1-1.5,2.5-1.3c0.3-0.6,1.3-1.1,2.6-0.8c2.9,0.5,5.8,1.2,8.6,1.8c0.2-0.6,1.3-1.2,2.7-1c6.3,0.9,12.3,2.2,18.1,3.7
			c0.2-0.1,0.6-0.2,1-0.3c1.2-0.2,2.3-0.3,3.5-0.5c0.2-0.3,0.7-0.6,1.4-0.8c1.4-0.3,2.8-0.4,4.2-0.4c0.3-0.6,1.3-1.1,2.6-0.9
			c5.4,1.2,11,2.1,16.6,2.7c8.6-0.7,17.3-0.9,26.1-1c0.3,0,0.6,0,0.8,0c2.6,0,5.2,0,7.7,0c1.1,0,1.8,0.4,2.1,0.9
			c0.7-0.1,1.5-0.2,2.2-0.4c1.1-0.2,2.3,0.2,2.7,0.8c0.3-0.2,0.6-0.4,0.9-0.7c1.5-1.3,4.9-0.2,3.8,1.2c-0.8,1-1.2,2-1.5,3
			c1.1-0.1,2.1-0.2,3.1-0.4c0.9-0.2,1.6,0,2.1,0.2c3.1-0.6,6.3-1.1,9.8-1.1c0.8,0,1.4,0.2,1.8,0.4h6.4c0.4-0.2,0.9-0.4,1.6-0.4
			c7.8-0.4,15.7-0.4,23.5-0.4c0.6,0,1.1,0.1,1.4,0.3c1.2-0.2,2.4-0.4,3.7-0.7c1.6-0.3,2.9,0.5,2.7,1.3c1.2,0,2.3-0.1,3.5-0.1
			c0.8,0,1.3,0.2,1.7,0.4c2.1-0.2,4.2-0.4,6.4-0.4c1.8,0,2.6,1,1.9,1.7c1.8-0.1,3.5-0.1,5.4,0c5.8-0.1,11.5-0.1,17.1,0.6
			c0.4-0.3,0.8-0.6,1.3-0.9c1-0.7,2.9-0.8,3.8,0c0.3,0.3,0.7,0.5,1,0.8c0-0.2-0.1-0.5-0.2-0.7c-0.3-0.8,0.8-1.4,2.1-1.4
			c0.8-0.5,2.3-0.7,3.2-0.1c1.1,0.7,2.5,1.3,3.9,1.9c0.5-0.4,1.5-0.7,2.4-0.5c1.4,0.2,2.8,0.4,4.1,0.7c-0.1-0.2-0.2-0.3-0.4-0.5
			c-0.7-1,1.7-1.8,3.2-1.3c2,0.6,4.1,1.2,6.2,1.7c-1.4-1,0.6-2.4,2.8-1.7c1,0.3,2,0.6,3,0.9c-0.1-0.1-0.2-0.1-0.3-0.2
			c-1.3-0.9,1.2-2.2,3-1.6c1.4,0.5,2.8,1.1,4.3,1.6c0.3,0,0.6,0,0.9,0c3.7,0.4,7.4,0.9,11.1,1.2c-0.1-0.7,1.1-1.4,2.7-1.2
			c2.3,0.3,4.6,0.7,6.8,1.1c0.4-0.2,0.9-0.3,1.5-0.3c5.1,0.3,10,1,15,1.5c-0.5-0.8,0.7-1.8,2.6-1.5c0.4,0.1,0.8,0.2,1.2,0.2
			c0.5-0.3,1.2-0.4,2-0.2c3.9,0.8,7.9,1.5,11.9,2c-2-0.6-0.3-2.3,1.9-2c4.2,0.4,8.5,0.9,12.7,1.4c0.2-0.6,1.4-1.2,2.7-1
			c3.7,0.5,7.4,0.8,11.1,1.1c-0.4-0.7,0.6-1.6,2.1-1.5c2.6,0.1,5,0.3,7.4,0.7c-0.3-0.1-0.6-0.3-0.9-0.4c-1.6-0.8,0-2.3,2.1-1.9
			c3,0.5,6,1,9.1,1.3c-0.1,0-0.2-0.1-0.2-0.1c-2.3-0.8-0.2-2.8,2.2-2c3,1,5.9,1.9,8.5,3.2c0.7,0.3,0.7,0.9,0.4,1.3
			c0.8,0.2,1.6,0.4,2.5,0.4c0.3-0.4,1.1-0.8,2.1-0.8c1.7,0,3.4-0.1,5-0.1c0.1-0.6,1.5-1.3,2.8-1.1c1,0.1,1.9,0.1,2.9,0.2
			c0.2-0.6,1.5-1.2,2.8-1c6.1,0.9,12.2,1.7,18.3,2.5c-0.2-0.9,1.8-1.5,3.3-1.1c1.8,0.4,3.7,0.6,5.6,0.7c-0.2-0.7,1.4-1.4,2.8-1.3
			c1.6,0.2,3.1,0.2,4.7,0.3c0.4-0.5,1.5-0.9,2.6-0.7c4.3,0.6,8.4,1.3,12.7,1.8c-0.3-0.7,0.6-1.5,2.1-1.4c3.4,0.2,6.8,0.4,10.2,0.6
			c-0.4-0.7,0.2-1.5,2-1.4c3.4,0.2,6.8,0.2,10.2,0.3c0.3-0.5,1.3-0.9,2.5-0.7c2.7,0.4,5.4,0.8,8.1,1.3c0.3,0,0.5,0.1,0.7,0.2
			c0.4-0.5,1.3-0.8,2.5-0.6c2.4,0.3,4.8,0.6,7.2,0.8c-2-0.8-0.7-2.3,1.7-2.1c3.5,0.3,7,0.7,10.6,0.9c0.4-0.3,1-0.6,1.8-0.5
			c2,0.1,3.6,0.5,5.4,0.9c0.4,0.1,0.7,0.2,0.9,0.3c2,0.3,4,0.6,6,0.7c0.2-0.6,1.1-1.1,2.2-1.1h8.6c-0.7-0.7,0.1-1.7,1.9-1.7
			c3.1,0,6.2,0.1,9.3,0.3c-0.5-0.9,1.2-2,3.1-1.4c3.1,1,6.4,1.7,9.9,2.2c1,0,2.1-0.1,3.1-0.1c0.2-0.5,1-0.9,2.1-0.9
			c3.3-0.1,6.5-0.1,9.7,0c0.2,0,0.5-0.1,0.8,0c1.1,0,2.2,0.1,3.3,0.2c2.4,0.1,4.8,0.2,7.1,0.3c0.4-0.1,0.9-0.1,1.5,0
			c0.1,0,0.3,0.1,0.4,0.1c3.4,0.1,6.7,0.1,10.1,0c0.5-0.4,1.5-0.7,2.4-0.5c1.1,0.1,2.1,0.2,3.2,0.3c0.2-0.2,0.4-0.4,0.7-0.5
			c-0.4-0.8,0.8-1.8,2.6-1.5c0.2,0,0.3,0.1,0.5,0.1c0,0,0,0,0,0c0.1,0,0.1,0,0.2,0.1c0.9,0.2,1.8,0.5,2.7,0.7
			c0.6,0.1,1.2,0.3,1.8,0.4c0.4-0.1,0.8-0.1,1.3-0.1c1.5,0.2,3,0.3,4.5,0.3c0-0.7,1.3-1.3,2.8-1.2c1.7,0.2,3.4,0.2,5.2,0.2
			c-1.4-0.8-0.1-2.2,2.1-1.9c0.9,0.1,1.8,0.2,2.7,0.3c0.5-0.3,1.3-0.4,2.1-0.3c8.5,1,17.2,1.4,25.7,0.8c-0.1-0.6,0.5-1.2,2.1-1.2
			h10.1c0.1-0.5,0.8-0.9,2.1-0.9c0.3,0,0.6,0,0.9,0.1c0.6,0.1,1.2,0.1,1.8,0.2c0.5-0.3,1.3-0.4,2-0.2c0.4,0.1,0.8,0.2,1.1,0.3
			c0.7-0.3,1.9-0.4,2.6-0.2c0.9,0.3,1.8,0.6,2.7,0.8c0.3-0.3,1-0.5,1.8-0.5h5.9c0-0.6,0.9-1.3,2.2-1.3c2.8,0,5.6,0.1,8.4,0.2
			c-0.4-0.8,1.3-1.9,3.2-1.3c1.3,0.4,2.6,0.5,4.1,0.7c-0.2-0.9,1.9-1.7,3.7-0.9c0.8,0.4,1.8,0.7,2.7,0.9v-0.1c0-0.6,1-1.1,2.2-1.1
			c2.3,0,4.3-0.1,6.4,0c0.6-0.4,1.7-0.6,2.8-0.3c0.5,0.1,1.1,0.3,1.7,0.4c0.3-0.8,2.2-1.3,3.6-0.6c0.3,0.1,0.7,0.3,1.1,0.4
			c-0.2-1,2.4-1.5,3.8-0.8c0.5,0.2,1.1,0.5,1.7,0.7c0.1-0.4,0.2-0.7,0.3-1.1c0.1-1,2.3-1.5,3.7-0.8c0.4,0.2,0.8,0.4,1.2,0.6
			c0.3-0.8,2-1,3.2-0.7c0.7-0.3,1.7-0.2,2.5,0c0.8-0.3,2-0.3,2.8,0.1c1.1-0.7,3.9-0.5,3.9,0.7c0,0.4,0.2,0.8,0.4,1.2
			c0.8-0.1,1.6-0.2,2.3-0.2c-0.2-0.2-0.3-0.4-0.5-0.6c-1.4-0.1-2.7-0.9-1.6-1.6c0.1,0,0.1-0.1,0.2-0.1c0.3-0.2,0.6-0.3,1-0.4
			c0.2-0.1,0.4-0.1,0.4-0.2c0.6-0.8,2.4-1.2,3.7-0.5c0.5,0.3,1.1,0.6,1.6,0.9c0.7,0.4,0.9,1,0.3,1.4c-0.3,0.3-0.6,0.4-0.9,0.6
			c0,0,0.1,0.1,0.1,0.1c0.6-0.1,1.2-0.1,1.8-0.2c0.4-0.2,0.8-0.2,1.2-0.2c0.1,0,0.2,0,0.3-0.1c0.1-0.8,0.3-1.6,0.8-2.4
			c0.5-0.7,1.9-1.1,3.2-0.7c0.6,0.2,1.2,0.4,1.8,0.6c0.2-0.3,0.5-0.5,1.2-0.7c1.3-0.3,2.5,0.1,3.7,0.4c0.5-0.7,1.3-1.3,2.6-1.6
			c2-0.4,2.7,0.6,4.1-0.4c0.7-0.6,1.9-0.7,3-0.4c0.8,0.2,1.6,0.5,2.2,0.9c0.5-0.2,0.9-0.4,1.4-0.6c-0.5-0.4-0.6-0.9,0.3-1.4
			C924.6,404.4,925.5,403.9,926.3,403.4z"/>
		<path class="st7" d="M267.4,442.4c-0.1,0.3-0.4,0.7-0.7,0.9c3.3,0.2,6.7,0.3,10.1,0.5c-0.2-0.6-0.1-1.2,0.1-1.8
			C273.7,442.1,270.6,442.2,267.4,442.4z"/>
		<path class="st7" d="M511.6,447.4c-1.7-0.1-3.3-0.3-5-0.6c0,0.5-0.1,1-0.4,1.4c0.1,0.2,0.2,0.5,0.3,0.7c2.3,0,4.5,0,6.8,0
			C512.7,448.4,512.1,447.9,511.6,447.4z"/>
		<path class="st9" d="M198.3,431l-15.1-15.1c-0.5-0.1-1-0.3-1.4-0.7c-1.5-1.4-3-2.9-4.4-4.4c-7.7-7.5-15.8-14.4-23.9-21.3
			c-0.1-0.1-0.2-0.1-0.3-0.2c-3.1-2.3-5.7-5-8.6-7.6c-1.3-1.1-0.9-2.6,0.1-3.5c-1.5-1.8-3.1-3.5-4.6-5.2c-9.9,1-19.3,2.1-28.3,3.2
			c0,0,0,0,0,0c6.5,6.8,12.8,13.8,18.4,21.3l27,27c1.4,0.7,2.7,1.5,4.1,2.4c0.5-0.3,1.2-0.4,1.9-0.1c6.2,2.6,12.5,4.5,19,5.9
			C187.5,431.9,192.9,431.4,198.3,431z"/>
	</g>
	<g>
		<g>
			<g>
				<path class="st10" d="M952.5,249.2c0,84.8-68.7,153.5-153.5,153.5c-84.8,0-153.5-68.7-153.5-153.5
					c0-84.8,68.7-153.5,153.5-153.5C883.8,95.7,952.5,164.5,952.5,249.2z"/>
				<polygon class="st11" points="766.3,305.9 733.6,249.2 766.3,192.6 831.7,192.6 864.4,249.2 831.7,305.9 				"/>
				<g>
					<path class="st12" d="M736.9,135.9l32.7,56.7h62.1l32.7-56.7l-19-33c-14.6-4.6-30.2-7.1-46.4-7.1c-16.2,0-31.8,2.5-46.4,7.1
						l-19,33H736.9z"/>
					<path class="st12" d="M831.7,305.9h-62.1l-32.7,56.7h-3.4l19,33c14.6,4.6,30.2,7.1,46.4,7.1c16.2,0,31.7-2.5,46.4-7.1l19-33
						L831.7,305.9z"/>
					<path class="st12" d="M831.7,192.6l32.7,56.7h65.4l19-32.9c-6.9-31.5-23.4-59.4-46.4-80.4h-38L831.7,192.6z"/>
					<path class="st12" d="M948.9,282.1l-19-32.9h-65.4l-32.7,56.7l32.7,56.7h38C925.5,341.6,942,313.6,948.9,282.1z"/>
					<path class="st12" d="M736.9,249.2l32.7-56.7h-3.4l-32.7-56.7h-38c-22,20.1-38.1,46.4-45.5,76.2l21.4,37.1H736.9z"/>
					<polygon class="st12" points="733.6,135.9 766.3,192.6 769.6,192.6 736.9,135.9 					"/>
					<path class="st12" d="M766.3,305.9h3.4l-32.7-56.7h-65.4l-21.4,37.1c7.4,29.8,23.5,56.2,45.5,76.2h38L766.3,305.9z"/>
					<polygon class="st12" points="733.6,362.6 736.9,362.6 769.6,305.9 766.3,305.9 					"/>
				</g>
			</g>
		</g>
		<path class="st13" d="M946.1,284.6c-22.2,21.8-50.4,37.4-81.9,44.2c0,0,0,0,0,0c-1,0.2-2,0.4-3,0.6c-0.1,0-0.2,0-0.3,0.1
			c-2.8,0.5-5.5,1-8.3,1.4c-0.4,0.1-0.9,0.1-1.3,0.2c-0.7,0.1-1.4,0.2-2.1,0.3c-0.6,0.1-1.2,0.1-1.8,0.2c-0.6,0.1-1.2,0.1-1.8,0.2
			c-1.2,0.1-2.3,0.2-3.5,0.3c-0.4,0-0.8,0.1-1.1,0.1c-0.9,0.1-1.8,0.1-2.8,0.2c-0.5,0-0.9,0-1.4,0.1c-0.9,0-1.8,0.1-2.7,0.1
			c-0.4,0-0.8,0-1.2,0c-1.3,0-2.6,0-3.9,0s-2.6,0-3.9,0c-0.4,0-0.8,0-1.2,0c-0.9,0-1.8-0.1-2.7-0.1c-0.5,0-0.9,0-1.4-0.1
			c-0.9-0.1-1.8-0.1-2.8-0.2c-0.4,0-0.8,0-1.1-0.1c-1.2-0.1-2.3-0.2-3.5-0.3c-0.6-0.1-1.2-0.1-1.8-0.2c-0.6-0.1-1.2-0.1-1.8-0.2
			c-0.7-0.1-1.4-0.2-2.1-0.3c-0.5-0.1-0.9-0.1-1.4-0.2c-2.8-0.4-5.5-0.9-8.2-1.4c-0.1,0-0.3-0.1-0.4-0.1c-1-0.2-2-0.4-2.9-0.6
			c0,0-0.1,0-0.1,0c-29.4-6.3-56-20.4-77.4-40h0c0,0-0.1-0.1-0.1-0.1c-1.3-1.2-2.7-2.5-4-3.8c-0.2-0.2-0.4-0.4-0.6-0.6
			c-1.4-1.3-2.7-2.7-4-4.1c0,0,0,0,0,0c-1.3-1.4-2.6-2.8-3.9-4.3c-0.1-0.1-0.2-0.2-0.3-0.3c-2.6-3-5.2-6.1-7.6-9.3c0,0,0,0,0,0
			c-18.4-24.2-30.3-53.5-33.3-85.4c-8.3,18.9-12.9,39.7-12.9,61.6c0,34.9,11.6,67,31.2,92.8l0,0c2.2,2.9,4.5,5.8,7,8.5
			c0.1,0.1,0.2,0.2,0.3,0.3c1.2,1.3,2.4,2.6,3.6,3.9c0,0,0,0,0,0c1.2,1.3,2.4,2.5,3.7,3.8c0.2,0.2,0.3,0.3,0.5,0.5
			c1.2,1.2,2.4,2.3,3.6,3.5c0,0,0.1,0.1,0.1,0.1h0c19.7,18,44,30.9,71,36.7c0,0,0.1,0,0.1,0c0.9,0.2,1.8,0.4,2.7,0.6
			c0.1,0,0.3,0,0.4,0.1c2.5,0.5,5,0.9,7.5,1.3c0.4,0.1,0.8,0.1,1.3,0.2c0.6,0.1,1.3,0.2,1.9,0.2c0.6,0.1,1.1,0.1,1.7,0.2
			c0.6,0.1,1.1,0.1,1.7,0.2c1.1,0.1,2.1,0.2,3.2,0.3c0.3,0,0.7,0,1,0.1c0.8,0.1,1.7,0.1,2.5,0.2c0.4,0,0.8,0,1.3,0.1
			c0.8,0,1.6,0.1,2.5,0.1c0.4,0,0.8,0,1.1,0c1.2,0,2.4,0,3.6,0s2.4,0,3.6,0c0.4,0,0.8,0,1.1,0c0.8,0,1.6-0.1,2.5-0.1
			c0.4,0,0.8,0,1.3-0.1c0.8,0,1.7-0.1,2.5-0.2c0.3,0,0.7,0,1-0.1c1.1-0.1,2.1-0.2,3.2-0.3c0.6-0.1,1.1-0.1,1.7-0.2
			c0.5-0.1,1.1-0.1,1.6-0.2c0.6-0.1,1.3-0.2,1.9-0.2c0.4-0.1,0.8-0.1,1.2-0.2c2.6-0.4,5.1-0.8,7.6-1.3c0.1,0,0.2,0,0.3-0.1
			c0.9-0.2,1.8-0.4,2.8-0.6c0,0,0,0,0,0c28.9-6.2,54.8-20.6,75.1-40.6c0.1-0.1,0.2-0.2,0.3-0.2c1.3-1.3,2.7-2.7,4-4
			c0,0,0.1-0.1,0.1-0.1c7.3-7.8,13.8-16.4,19.4-25.6c6.8-12.6,11.9-26.2,15-40.5c-0.9,0.9-1.8,1.9-2.7,2.8
			C946.3,284.5,946.2,284.6,946.1,284.6z"/>
		<circle class="st14" cx="824.8" cy="194" r="86.3"/>
		<circle class="st14" cx="832.4" cy="166.3" r="50.4"/>
		<g>
			<g>
				<path class="st15" d="M148.7,403c-33.2-0.2-58.9-7-76.5-20c-17.8-13.2-26.7-33.6-26.5-60.6c0.2-26.5,9.6-47.7,28.1-63
					c18.1-14.8,41.9-22.3,70.7-22.3l1.2,0c14.2,0.1,27.1,1.1,38.5,3c11.3,1.9,20.6,4,27.6,6.2c1.4,0.3,2.6,1.2,3.8,2.5
					c1.1,1.3,1.8,2.7,1.9,4.1l3.2,27.8c0.3,2.9-0.6,5.4-2.7,7.1c-1.4,1.2-3.1,1.9-4.9,1.9c-0.9,0-1.8-0.1-2.7-0.4
					c-7.1-2.2-15.8-4.3-25.8-6.3c-4.9-1-9.8-1.7-14.7-2.3c-4.9-0.6-9.9-0.9-14.9-0.9l-0.6,0c-14.9,0-27.1,3.8-36.2,11.3
					c-8.7,7.5-13.2,17.6-13.3,30c-0.1,11.8,3.8,20.9,11.7,27.8c8.1,6.9,19.5,10.5,34.1,10.6l1.2,0c10.3,0,18.5-1,24.3-2.9l0-6.8
					l-19.1-0.1c-2.2,0-4.2-0.8-5.7-2.4c-1.6-1.6-2.3-3.5-2.3-5.8l0.2-26.6c0-2.3,0.8-4.2,2.4-5.7c1.6-1.4,3.5-2.2,5.7-2.2l64,0.5
					c2.2,0,4.1,0.8,5.7,2.3c1.6,1.5,2.4,3.4,2.4,5.7l-0.5,70.2c0,1.6-0.6,3.2-1.7,4.6c-1.1,1.4-2.5,2.4-4,2.9
					c-9.8,3-21.1,5.5-33.7,7.2c-11.8,1.7-24.8,2.5-38.4,2.5C150.3,403,149.5,403,148.7,403z"/>
				<path d="M144.5,239c0.4,0,0.8,0,1.2,0c14.1,0.1,26.8,1.1,38.2,3c11.3,1.9,20.4,3.9,27.3,6.1c1.1,0.3,2,0.9,2.9,1.9
					c0.9,1,1.4,2,1.5,3.1l3.2,27.8c0.2,2.3-0.4,4.1-2,5.5c-1.1,0.9-2.3,1.4-3.7,1.4c-0.7,0-1.4-0.1-2.1-0.3
					c-7.2-2.2-15.8-4.3-25.9-6.4c-4.9-1-9.9-1.7-14.9-2.3c-5-0.6-10-0.9-15.1-0.9c-0.2,0-0.4,0-0.6,0c-15.4,0-27.9,3.9-37.4,11.7
					c-9.3,7.9-13.9,18.4-14,31.5c-0.1,12.3,4,22,12.4,29.3c8.5,7.3,20.2,10.9,35.3,11c0.4,0,0.8,0,1.2,0c11.4,0,20.1-1.1,26.2-3.4
					l0.1-10l-21-0.1c-1.7,0-3.2-0.6-4.4-1.8c-1.2-1.2-1.8-2.7-1.8-4.4l0.2-26.6c0-1.7,0.6-3.2,1.8-4.3c1.2-1.1,2.6-1.7,4.4-1.7
					c0,0,0,0,0.1,0l64,0.5c1.7,0,3.2,0.6,4.4,1.7c1.2,1.1,1.8,2.6,1.8,4.3l-0.5,70.2c0,1.2-0.5,2.4-1.3,3.5
					c-0.9,1.1-1.9,1.9-3.1,2.3c-9.7,3-20.9,5.4-33.3,7.2c-11.8,1.7-24.5,2.5-38.1,2.5c-0.8,0-1.6,0-2.4,0
					c-32.9-0.2-58.1-6.8-75.4-19.6c-17.4-12.8-26-32.5-25.8-59.1c0.2-26,9.3-46.5,27.4-61.6C92.8,246.3,116,239,144.5,239
					 M144.5,235.2c-29.3,0-53.5,7.7-71.9,22.8c-18.9,15.8-28.6,37.5-28.8,64.5c-0.2,27.7,9,48.6,27.3,62.1
					c17.9,13.3,44.1,20.1,77.7,20.4c0.8,0,1.6,0,2.4,0c13.7,0,26.7-0.9,38.7-2.6c12.6-1.8,24-4.3,33.9-7.3l0,0l0,0
					c1.9-0.6,3.6-1.8,4.9-3.6c1.4-1.8,2.1-3.7,2.1-5.8l0.5-70.2c0-2.8-1-5.2-2.9-7.1c-1.9-1.8-4.3-2.8-7-2.8l-64-0.5l-0.1,0
					c-2.7,0-5.1,0.9-6.9,2.7c-2,1.8-3,4.3-3,7l-0.2,26.6c0,2.7,1,5.2,2.9,7.1c1.9,1.9,4.3,2.9,7.1,3l17.2,0.1l0,3.5
					c-5.5,1.6-13,2.4-22.4,2.4c-0.4,0-0.8,0-1.2,0c-14.1-0.1-25.1-3.5-32.9-10.1c-7.5-6.5-11.1-15.2-11.1-26.4
					c0.1-12,4.2-21.4,12.7-28.6c8.8-7.2,20.5-10.8,35-10.8l0.6,0c4.9,0,9.8,0.3,14.7,0.9c4.8,0.6,9.7,1.3,14.6,2.3
					c9.9,2,18.5,4.2,25.6,6.3c1.1,0.3,2.2,0.5,3.2,0.5c2.3,0,4.4-0.8,6.2-2.3c2.6-2.2,3.7-5.3,3.3-8.8l-3.2-27.8
					c-0.2-1.8-1-3.6-2.4-5.1c-1.3-1.6-2.9-2.6-4.7-3.1c-7.1-2.2-16.4-4.3-27.8-6.2c-11.5-1.9-24.5-2.9-38.8-3
					C145.3,235.2,144.9,235.2,144.5,235.2L144.5,235.2z"/>
			</g>
			<g>
				<path class="st15" d="M329.6,404.3c-31.2-0.2-55.2-7.3-71.2-20.9c-16.1-13.8-24.2-34.8-24-62.6c0.2-27.8,8.6-48.8,24.9-62.3
					c16-13.3,39.5-20,70-20c0.5,0,1,0,1.5,0c31.2,0.2,55.2,7.3,71.2,21c16.1,13.8,24.2,34.9,24,62.7c-0.2,27.8-8.6,48.7-24.9,62.2
					c-16,13.2-39.5,19.9-70,19.9C330.6,404.3,330.1,404.3,329.6,404.3z M329.9,288.7c-11.7,0-20.7,2.7-26.8,8
					c-6.1,5.4-9.3,13.6-9.3,24.4c-0.1,10.8,2.9,19.1,9,24.5c6.1,5.5,15.3,8.3,27.3,8.4l0.6,0c11.7,0,20.8-2.7,26.9-8
					c6.2-5.3,9.3-13.6,9.4-24.4c0.1-10.8-3-19.1-9.1-24.5c-6.2-5.5-15.4-8.3-27.4-8.4L329.9,288.7z"/>
				<path d="M329.3,240.3c0.5,0,1,0,1.5,0c30.9,0.2,54.3,7.1,70,20.6c15.8,13.5,23.5,33.9,23.4,61.2c-0.2,27.3-8.3,47.6-24.2,60.8
					c-15.7,13-38.6,19.5-68.8,19.5c-0.5,0-1,0-1.5,0c-30.9-0.2-54.3-7-70-20.5c-15.8-13.4-23.6-33.8-23.4-61.1
					c0.2-27.3,8.3-47.6,24.2-60.9C276.1,246.8,299.1,240.3,329.3,240.3 M330.5,356c12.2,0,21.6-2.8,28.2-8.5
					c6.6-5.8,10-14.4,10.1-25.8c0.1-11.5-3.2-20.1-9.7-26c-6.6-5.8-16.1-8.8-28.6-8.9c-0.2,0-0.4,0-0.6,0c-12.2,0-21.6,2.8-28.1,8.5
					c-6.6,5.8-9.9,14.4-10,25.8c-0.1,11.5,3.1,20.1,9.6,26c6.5,5.8,16,8.8,28.5,8.9C330.1,356,330.3,356,330.5,356 M329.3,236.5
					L329.3,236.5c-31,0-54.9,6.9-71.2,20.5c-16.8,14-25.4,35.4-25.6,63.8c-0.2,28.4,8.1,49.9,24.7,64.1c16.4,14,40.8,21.2,72.5,21.4
					c0.5,0,1,0,1.5,0c30.9,0,54.9-6.9,71.2-20.4c16.8-13.9,25.4-35.3,25.6-63.7c0.2-28.4-8.1-49.9-24.7-64.1
					c-16.4-14-40.8-21.3-72.5-21.5C330.3,236.5,329.8,236.5,329.3,236.5L329.3,236.5z M330.5,352.2l-0.5,0
					c-11.5-0.1-20.3-2.7-26-7.9c-5.7-5.1-8.4-12.7-8.4-23.1c0.1-10.4,2.9-17.9,8.7-23c5.7-5,14.3-7.6,25.6-7.6l0.5,0
					c11.5,0.1,20.3,2.8,26.1,7.9c5.8,5.1,8.5,12.7,8.4,23.1c-0.1,10.4-2.9,17.9-8.8,23C350.4,349.7,341.8,352.2,330.5,352.2
					L330.5,352.2z"/>
			</g>
			<g>
				<path class="st16" d="M262.3,273.1c15.5-12.4,38.3-18.4,68.4-18.2c30.1,0.2,52.8,6.6,68.2,19.2c13.9,11.4,21.4,28.1,22.6,50
					c0.1-1.8,0.2-3.6,0.2-5.4c0.2-25.4-7.4-44.4-22.7-57c-15.3-12.6-38.1-20.6-68.2-20.8c-30.1-0.2-52.9,7.5-68.4,19.8
					c-15.5,12.4-23.4,31.3-23.6,56.7c0,2.4,0.1,4.7,0.2,7C240.1,301.7,247.9,284.6,262.3,273.1z"/>
			</g>
			<g>
				<path class="st16" d="M79.5,273.1c16.9-12.4,41.8-18.4,74.7-18.2c23.8,0.1,61.7,10.2,61.7,10.2l-1.5-10c-0.5-3.3-2.8-5.9-6-6.9
					c-9.1-2.8-29.6-7.9-55.1-7.9c-32.8,0-47,1.5-74,18.9c-17.6,11.3-30.1,32.9-30.3,58.3c0,2.4,0.1,4.7,0.2,7
					C50.4,301.7,63.7,284.6,79.5,273.1z"/>
			</g>
			<g>
				<path class="st17" d="M262.3,369.7c15.5,12.4,38.3,18.4,68.4,18.2c30.1-0.2,52.8-6.6,68.2-19.2c13.9-11.4,21.4-28.1,22.6-50
					c0.1,1.8,0.2,3.6,0.2,5.4c0.2,25.4-7.4,44.4-22.7,57c-15.3,12.6-38.1,19-68.2,19.2c-30.1,0.2-52.9-5.9-68.4-18.2
					c-15.5-12.4-23.4-31.3-23.6-56.7c0-2.4,0.1-4.7,0.2-7C240.1,341.1,247.9,358.2,262.3,369.7z"/>
			</g>
			<g>
				<path class="st17" d="M360.6,295.3c-7-6.4-17.2-9.6-30.7-9.5c-13.5,0.1-23.7,3.4-30.6,10c-6.2,5.9-9.6,14.6-10.1,26
					c0-0.9-0.1-1.9-0.1-2.8c-0.1-13.2,3.3-23.1,10.2-29.6c6.9-6.5,17.1-9.8,30.6-10c13.5-0.1,23.7,3.1,30.7,9.5
					c7,6.4,10.5,16.2,10.6,29.4c0,1.2,0,2.4-0.1,3.6C370.6,310.1,367.1,301.2,360.6,295.3z"/>
			</g>
			<g>
				<path class="st16" d="M363.1,349.4c-7.5,6.6-18.6,9.8-33.2,9.7c-14.6-0.1-25.6-3.5-33-10.2c-6.7-6.1-10.4-15-10.9-26.7
					c0,0.9-0.1,1.9-0.1,2.9c-0.1,13.5,3.6,23.7,11,30.4c7.4,6.7,18.5,10.1,33,10.2c14.6,0.1,25.6-3.1,33.2-9.7
					c7.5-6.6,11.3-16.7,11.4-30.2c0-1.3,0-2.5-0.1-3.7C373.8,334.1,370.1,343.2,363.1,349.4z"/>
			</g>
			<g>
				<path class="st15" d="M567.5,403.6c-1.3,0-2.6-0.4-4.1-1.3c-1.4-0.9-2.5-1.9-3-3.2l-9.5-18.6l-72.7-0.5l-9.8,18.5
					c-0.7,1.3-1.8,2.3-3.1,3.1c-1.4,0.8-2.8,1.3-4.2,1.3l-41.4-0.3c-4.2,0-6.3-2-7.4-3.7c-1.1-1.7-1.9-4.6,0.2-8.2l83.1-143.9
					c0.6-1.1,1.6-2.1,3.2-2.9c1.5-0.8,2.8-1.2,3.9-1.2l35.4,0.2c1.3,0,2.6,0.5,4,1.3c1.3,0.8,2.3,1.9,3,3.1l76.4,145.1
					c1.7,3.7,0.9,6.3-0.1,8c-1,1.6-3,3.6-7.2,3.6L567.5,403.6z M531,341.3l-14.7-29l-16.1,28.7L531,341.3z"/>
				<path d="M502.8,244.5C502.8,244.5,502.8,244.5,502.8,244.5l35.4,0.2c0.9,0,1.9,0.3,3,1c1.1,0.7,1.9,1.5,2.4,2.4l76.3,145.1
					c1,2.3,1,4.3,0,6.1c-1.1,1.8-2.9,2.7-5.5,2.7c0,0-0.1,0-0.1,0l-46.8-0.3c-0.9,0-2-0.3-3.1-1c-1.1-0.7-1.9-1.5-2.3-2.4
					l-10.1-19.7l-75-0.5l-10.3,19.5c-0.5,0.9-1.3,1.7-2.4,2.4c-1.1,0.7-2.1,1-3.2,1c0,0,0,0,0,0l-41.4-0.3c-2.7,0-4.6-1-5.8-2.8
					c-1.2-1.9-1.1-3.9,0.2-6.2l83.2-143.9c0.4-0.8,1.2-1.5,2.4-2.2C501,244.8,502,244.5,502.8,244.5 M534.1,343.2l-17.7-34.9
					L497,343L534.1,343.2 M502.8,240.7c-1.5,0-3,0.5-4.8,1.4c-1.8,1-3.2,2.2-3.9,3.7L411,389.7c-2.1,3.5-2.1,7.1-0.2,10.2
					c1.3,2.1,3.9,4.6,9,4.6l41.4,0.3l0,0l0,0c1.8,0,3.5-0.5,5.2-1.5c1.6-1,2.8-2.2,3.7-3.7l0-0.1l0-0.1l9.3-17.5l70.3,0.5l9,17.5
					c0.7,1.6,2,3,3.8,4.1c1.7,1,3.4,1.5,5,1.6l46.8,0.3l0.1,0c5,0,7.5-2.4,8.8-4.5c1.2-2,2.2-5.3,0.2-9.7l0-0.1l0-0.1L547,246.4l0,0
					l0,0c-0.8-1.5-2.1-2.7-3.7-3.8c-1.7-1.1-3.4-1.6-5-1.6L502.8,240.7L502.8,240.7L502.8,240.7L502.8,240.7z M503.4,339.2
					l12.8-22.8l11.7,23L503.4,339.2L503.4,339.2z"/>
			</g>
			<g>
				<g>
					<polygon class="st17" points="502.1,331.7 516.4,306.5 529.5,331.9 530.5,325.2 516.4,300.3 501.2,325 					"/>
				</g>
				<g>
					<path class="st17" d="M617.4,391.5l-3.8-8.1c0.4,1.7,1.4,3.1,0.6,4.5c-1,1.8-2.8,2.7-5.3,2.7l-38.7-0.3c-0.9,0-1.9-0.3-2.9-1
						c-1.1-0.7-1.8-1.5-2.2-2.4l-9.5-19.7l-81-0.5l-9.8,19.5c-0.5,0.9-1.3,1.7-2.3,2.4c-1,0.7-2,1-3,1l-34.3-0.3
						c-2.5,0-3.4-0.7-4.5-2.5c-0.6-1-0.8-2-0.8-3l-4.7,8.1c-1.3,2.3-0.4,2.7,0.8,4.5c1.2,1.9,3.1,2.8,5.8,2.8h38.9
						c1.1,0,2.1-0.3,3.2-1c1.1-0.7,1.9-1.5,2.4-2.4l9.5-19.1l77.5,0.5l9,19.5c0.4,0.9,1.2,1.7,2.3,2.4c1.1,0.7,2.2,1,3.1,1l44.1,0.1
						c2.7,0,4.5-0.9,5.6-2.7C618.5,395.9,618.5,393.8,617.4,391.5z"/>
				</g>
			</g>
			<g>
				<path class="st15" d="M630,404c-2.3,0-4.2-0.8-5.7-2.4c-1.6-1.6-2.3-3.4-2.3-5.6l1-144.7c0-2.1,0.8-3.9,2.3-5.5
					c1.5-1.6,3.4-2.4,5.6-2.4l43.4,0.3c2.1,0,4,0.8,5.6,2.4c1.6,1.6,2.5,3.5,2.5,5.6l-0.9,102.4l73.7,0.5c2.1,0,3.9,0.8,5.5,2.2
					c1.7,1.5,2.5,3.4,2.5,5.7l-0.2,34.4c0,2.1-0.8,4-2.4,5.5c-1.6,1.5-3.4,2.3-5.5,2.3L630,404z"/>
				<path d="M630.9,245.4C630.9,245.4,630.9,245.4,630.9,245.4l43.4,0.3c1.6,0,3,0.6,4.3,1.8c1.3,1.2,1.9,2.6,1.9,4.2l-0.9,104.3
					l75.6,0.5c1.6,0,3,0.6,4.3,1.7c1.3,1.1,1.9,2.6,1.9,4.3L761,397c0,1.6-0.6,3-1.8,4.2c-1.2,1.2-2.6,1.8-4.2,1.8c0,0,0,0,0,0
					l-124.9-0.9c-1.7,0-3.2-0.6-4.4-1.8c-1.2-1.2-1.8-2.6-1.8-4.2l1-144.7c0-1.6,0.6-3,1.7-4.2C627.8,246,629.2,245.4,630.9,245.4
					 M630.9,241.6c-2.7,0-5.2,1-7,2.9c-1.8,1.9-2.8,4.2-2.8,6.8l-1,144.7c0,2.6,1,5,2.9,6.9c1.9,1.9,4.3,2.9,7.1,3l124.9,0.9l0,0
					l0.1,0c2.6,0,4.9-1,6.8-2.9c1.9-1.9,2.9-4.3,3-6.9l0.2-34.4c0-2.8-1.1-5.3-3.1-7.2c-2-1.8-4.3-2.7-6.8-2.7l-71.8-0.5l0.9-100.5
					c0-2.6-1-5.1-3-7c-1.9-1.9-4.3-2.9-6.9-2.9L630.9,241.6L630.9,241.6L630.9,241.6z"/>
			</g>
			<path class="st17" d="M211.7,356.7v18.4c-6,1.7-36.3,9.7-57.6,9.9c-32.8,0.2-57.7-5.9-74.7-18.2c-15.7-11.5-29-28.6-30.4-51.2
				c-0.1,2.3-0.2,4.6-0.2,7c0.2,25.4,6,42.3,25.7,58.2c16.3,13.2,46.5,19.1,79.3,19c25.9-0.1,55-6.2,66.2-9.8
				c3.4-1.1,6.2-4.3,5.7-11.4v-35L211.7,356.7z"/>
			<path class="st16" d="M153.7,321.5v-5.6c0,0,0.7-4.5,7.1-4.5s59.2,0,59.2,0s4.5,0.7,4.5,4.5c0,3.9,0,5,0,5s-0.6-4-5.9-4
				s-58.2,0-58.2,0S153.7,317.2,153.7,321.5z"/>
			<path class="st16" d="M491.3,259.6l5.1-9.1c0,0,2.2-5.1,8.7-5.1s33.9,0,33.9,0s3.6,0.6,5.4,5.6c0.2,0.5,3.9,8.1,3.9,8.1
				s-5.4-4-10.6-4c-5.3,0-32.9,0-32.9,0S494.5,254.6,491.3,259.6z"/>
			<path class="st16" d="M496.8,339.6l-3.5,5.6c0,0-2.4,4.5,4,4.5c6.4,0,38,0,38,0s2.8,0.7,2.8-4.5c0-0.6-4.9-6.4-4.9-6.4
				s3.2,5.4,1,5.4c-5.3,0-37.2,0-37.2,0S495,343.5,496.8,339.6z"/>
			<path class="st17" d="M160.5,340.9c0,0-6.8-0.2-6.8-4.5v5.6c0,0,0.7,4.5,7.1,4.5c2.2,0,9.7,0,18.7,0v12.1l2.4-5.2v-12.5
				L160.5,340.9z"/>
			<path class="st16" d="M671.3,245.9c-1.2,0-36,0-37.2,0c-8.3,0-8.8,5-8.8,5v11.3c0-7,11.1-7.2,11.1-7.2H669c0,0,11.1,0.3,11.1,7.2
				v-11.3C680.1,250.9,679.6,245.9,671.3,245.9z"/>
			<path class="st16" d="M751.2,357.3c-1.1,0-60,0-71.7,0v1.3c0,4.3,3.5,7.8,7.8,7.8c18.1,0,61.6,0,61.6,0s11.1,0.3,11.1,7.2v-11.3
				C759.9,362.2,759.5,357.3,751.2,357.3z"/>
			<g>
				<path class="st17" d="M751.2,401.3c-1.2,0-115.9,0-117.1,0c-8.3,0-8.8-5-8.8-5V385c0,7,11.1,7.2,11.1,7.2h112.4
					c0,0,11.1-0.3,11.1-7.2v11.3C759.9,396.4,759.5,401.3,751.2,401.3z"/>
			</g>
		</g>
	</g>
	<g>
		<path class="st18" d="M690.1,490.2v17.5c0,0.6-0.2,1.1-0.6,1.5s-0.9,0.6-1.5,0.6h-14.8c-0.6,0-1.1-0.2-1.5-0.6
			c-0.4-0.4-0.7-0.9-0.7-1.5V457c0-0.6,0.2-1.1,0.6-1.5s0.9-0.6,1.5-0.6h20.7c4.4,0,8.3,0.3,11.7,0.9c3.4,0.6,6.2,1.6,8.4,3
			c2.2,1.4,3.9,3.2,5.1,5.4c1.1,2.2,1.7,4.9,1.7,8c0,6.2-2,10.8-5.9,13.7s-9.7,4.3-17.4,4.2L690.1,490.2z M690,467.8v9.9l3.6,0.1
			c5.6,0.2,8.5-1.5,8.5-5.1c0-1.8-0.7-3.1-2.1-4.1c-1.4-1-3.4-1.3-5.9-1.2L690,467.8z"/>
		<path class="st18" d="M743,493.6h26.5c0.6,0,1.1,0.2,1.5,0.6s0.7,0.9,0.7,1.5v12c0,0.6-0.2,1.1-0.6,1.5s-0.9,0.6-1.5,0.6h-43.8
			c-0.6,0-1.1-0.2-1.5-0.6s-0.6-0.9-0.6-1.5V457c0-0.6,0.2-1.1,0.6-1.5s0.9-0.6,1.5-0.6h15.2c0.6,0,1.1,0.2,1.5,0.6
			c0.4,0.4,0.7,0.9,0.7,1.5L743,493.6z"/>
		<path class="st18" d="M828.8,509.8c-0.3,0-0.7-0.1-1.1-0.3c-0.4-0.2-0.7-0.5-0.8-0.8l-3.6-6.9H797l-3.6,6.9
			c-0.2,0.3-0.5,0.6-0.8,0.8c-0.4,0.2-0.7,0.3-1.1,0.3H777c-0.9,0-1.6-0.3-2-1c-0.4-0.7-0.4-1.4,0.1-2.2l28.8-50.6
			c0.1-0.3,0.4-0.5,0.8-0.8c0.4-0.2,0.8-0.3,1-0.3h12.4c0.3,0,0.7,0.1,1,0.3c0.4,0.2,0.7,0.5,0.8,0.8l27.1,50.6
			c0.4,0.8,0.4,1.5,0,2.1c-0.4,0.6-1,0.9-2,0.9H828.8z M803.9,489.5h13l-6.3-12.2L803.9,489.5z"/>
		<path class="st18" d="M892.7,454.9c1,0,1.7,0.4,2.1,1.2c0.4,0.8,0.3,1.6-0.3,2.3l-24.4,29.4v19.9c0,0.6-0.2,1.1-0.6,1.5
			s-0.9,0.6-1.5,0.6h-15.7c-0.6,0-1-0.2-1.5-0.6c-0.4-0.4-0.6-0.9-0.6-1.5v-19.9l-24.4-29.4c-0.7-0.7-0.8-1.5-0.4-2.3
			c0.4-0.8,1.1-1.2,2.1-1.2h18.1c0.2,0,0.5,0.1,0.9,0.2c0.4,0.2,0.6,0.3,0.8,0.5l14.2,17.6l13-17.4c0.1-0.2,0.3-0.4,0.8-0.6
			c0.4-0.2,0.7-0.3,1-0.3H892.7z"/>
	</g>
</g>
</svg>
