<svg xmlns="http://www.w3.org/2000/svg" viewBox="0 0 304.11 150.38"><defs><style>.cls-1{fill:#828c96;}.cls-2{fill:#646e78;}.cls-3{fill:#a0aab4;}.cls-4{fill:none;stroke:#fafaf0;stroke-linecap:round;stroke-linejoin:round;stroke-width:1.5px;}.cls-5{fill:#96a0aa;}.cls-6{fill:#d2dce6;}.cls-7{fill:#fafa5a;}.cls-8{fill:#e6e646;}.cls-9{fill:#fafad2;}.cls-10{fill:#c8c828;}</style></defs><title>penalty_arco</title><g id="Capa_2" data-name="Capa 2"><g id="Capa_54" data-name="Capa 54"><path class="cls-1" d="M272.11,117.22c-2.38-3.11-5.4-4.91-9.15-4.91H40.36c-3.76,0-6.77,1.8-9.16,4.91L1.34,145.47c0,2.71,1.15,4.91,6.8,4.91s8.72-.2,11.57-3.88c1.89-2.43,23.19-21.81,23.19-21.81,1.34-1.49,3-1.83,6.28-1.83h205c3.31,0,4.95.34,6.28,1.83,0,0,21.31,19.38,23.19,21.81,2.86,3.68,5.93,3.88,11.58,3.88s6.79-2.2,6.79-4.91Z"/><path class="cls-2" d="M302,145.47l-9.52-9a6.07,6.07,0,0,0-.55,2.6c0,8.86-16-6.42-16-6.42L263.84,122s-.64-2.56-12.26-2.56H51.65C40,119.48,39.38,122,39.38,122l-12,10.6s-16,15.28-16,6.42a6.32,6.32,0,0,0-.52-2.54l-9.47,8.95c0,2.71,1.15,4.91,6.8,4.91s8.72-.2,11.57-3.88c1.89-2.43,23.19-21.81,23.19-21.81,1.34-1.49,3-1.83,6.28-1.83h205c3.31,0,4.95.34,6.28,1.83,0,0,21.31,19.38,23.19,21.81,2.86,3.68,5.93,3.88,11.58,3.88S302,148.18,302,145.47Z"/><path class="cls-3" d="M269.69,118.33c-6.21-4.49-16.59-3.63-16.59-3.63H50.53s-10.38-.86-16.59,3.63S15,137.9,15,137.9l20.9-18.42S40,116.3,51,116.3H252.67c11,0,15.08,3.18,15.08,3.18l20.9,18.42S275.9,122.82,269.69,118.33Z"/><path class="cls-4" d="M10,127.87s13.66-18.15,33.44-21,108.22-2.83,108.22-2.83,90.71-.46,108.06,2.83,26.93,10.1,34.39,25.76"/><path class="cls-4" d="M10,102.43c.53-.38,15.1-14.44,35.46-16.67C70.73,83,151.66,83,151.66,83s81.83-.61,105.25,2.48c18.73,2.48,30.56,8.1,37.2,20.34"/><path class="cls-4" d="M10,77A86.7,86.7,0,0,1,47.48,64.63c30.79-2.57,104.18-2.77,104.18-2.77s72.88-.59,102.43,2.12c20,1.84,34.21,6.09,40,14.92"/><path class="cls-4" d="M10,51.55c1.58-1.14,18.07-6.71,39.51-8,36.31-2.26,102.15-2.75,102.15-2.75s63.91-.4,99.61,1.77c21.35,1.3,37.85,4.09,42.84,9.51"/><path class="cls-4" d="M10,26.11c6.12-4.42,141.66-6.44,141.66-6.44s130.6-.21,142.45,5.5"/><path class="cls-4" d="M291.69,8.09s-26.85-3.06-32,107.55"/><path class="cls-4" d="M271.67,7.22s-23,13.61-27.45,108.42"/><path class="cls-4" d="M251.65,6.34s-19.18,30.29-22.88,109.3"/><path class="cls-4" d="M231.62,5.47s-15.34,47-18.3,110.17"/><path class="cls-4" d="M211.6,4.59s-11.5,63.64-13.72,111.05"/><path class="cls-4" d="M191.58,3.72S183.91,84,182.43,115.64"/><path class="cls-4" d="M171.56,2.84s-3.84,97-4.58,112.8"/><line class="cls-4" x1="151.54" y1="1.97" x2="151.54" y2="115.64"/><path class="cls-4" d="M131.49,2.84s3.83,97,4.57,112.8"/><path class="cls-4" d="M111.44,3.72s7.67,80.31,9.15,111.92"/><path class="cls-4" d="M91.39,4.59s11.51,63.64,13.73,111.05"/><path class="cls-4" d="M71.35,5.47s15.34,47,18.3,110.17"/><path class="cls-4" d="M51.3,6.34s19.18,30.29,22.88,109.3"/><path class="cls-4" d="M31.25,7.22s23,13.61,27.46,108.42"/><path class="cls-4" d="M11.2,8.09S38.05,5,43.24,115.64"/><path class="cls-1" d="M293.49,1.33H9.82c-4.68,0-8.48,2.74-8.48,6.13V144.25c0,3.39,1.44,6.13,8.48,6.13s9.26-2.59,9.26-6.11V19.88c0-3,3.34-5.39,7.46-5.39H276.78c4.12,0,7.46,2.42,7.46,5.39V144.27c0,3.52,2.21,6.11,9.25,6.11s8.48-2.74,8.48-6.13V7.46C302,4.07,298.18,1.33,293.49,1.33Z"/><path class="cls-5" d="M293.49,1.33H9.82c-4.68,0-8.48,2.74-8.48,6.13V54.71q8.45,2.41,17.74,4.56V19.88c0-3,3.34-5.39,7.46-5.39H276.78c4.12,0,7.46,2.42,7.46,5.39V59.41q9.27-2.11,17.73-4.52V7.46C302,4.07,298.18,1.33,293.49,1.33Z"/><path class="cls-6" d="M294.47,12.32s-.3-5.69-10.41-5.69h-265C9,6.63,8.67,12.32,8.67,12.32S9,3.78,19.08,3.78h265C294.17,3.78,294.47,12.32,294.47,12.32Z"/><path class="cls-2" d="M278,10.8H25.27c-4.17,0-7.56,2.45-7.56,5.46v121.9a4.93,4.93,0,0,0,1.37,3.8V19.88c0-3,3.34-5.39,7.46-5.39H276.78c4.12,0,7.46,2.42,7.46,5.39V142a4.92,4.92,0,0,0,1.36-3.8V16.26C285.6,13.25,282.22,10.8,278,10.8Z"/><path class="cls-2" d="M302,144.25V59.69c-1.51.36-2.78,1.1-2.78,2.61V142s-5.42,3.79-14.95-.44v2.75c0,3.52,2.21,6.11,9.25,6.11S302,147.64,302,144.25Z"/><path class="cls-2" d="M17.75,148l.13-.15.23-.28.08-.13a5.63,5.63,0,0,0,.89-3.21v-4.7a.84.84,0,0,0-.3,0s-5.35,4.64-13.93.92V87.06c0-5.61-1.77-8.73-3.51-10.45v67.64c0,3.39,1.44,6.13,8.48,6.13.4,0,.79,0,1.16,0l.35,0,.72-.05.37,0,.65-.09.31-.05.79-.16.2-.06a5,5,0,0,0,.62-.18,2.65,2.65,0,0,0,.3-.11l.4-.15.3-.14.32-.16.28-.16.27-.18a4.17,4.17,0,0,0,.47-.36l.17-.15C17.59,148.21,17.67,148.12,17.75,148Z"/><path class="cls-7" d="M295.63,0H266.25V15.82h9c4.12,0,7.46,2.42,7.46,5.39v6.23h21.42V6.13C304.11,2.74,300.31,0,295.63,0Z"/><path class="cls-8" d="M282.69,21.21v6.23h21.42V6.13a4.62,4.62,0,0,0-.33-1.69C298.4,14,277,10.93,266.25,8.68v7.14h9C279.35,15.82,282.69,18.24,282.69,21.21Z"/><path class="cls-9" d="M289,2.7h-22.7V6.27H289c12.65,0,10.74,5.47,10.74,5.47S301.6,2.7,289,2.7Z"/><path class="cls-10" d="M288.84,27.44c-.86-16.31-6.75-15.12-12.74-15.12-6.49,0-6.38-1.52-6.38-1.52V0h-3.47V15.82h9c4.12,0,7.46,2.42,7.46,5.39v6.23Z"/><path class="cls-7" d="M8.48,0H37.86V15.82h-9c-4.12,0-7.46,2.42-7.46,5.39v6.23H0V6.13C0,2.74,3.8,0,8.48,0Z"/><path class="cls-8" d="M21.42,21.21v6.23H0V6.13A4.62,4.62,0,0,1,.33,4.44C5.71,14,27.15,10.93,37.86,8.68v7.14h-9C24.76,15.82,21.42,18.24,21.42,21.21Z"/><path class="cls-9" d="M15.16,2.7h22.7V6.27H15.16c-12.65,0-10.74,5.47-10.74,5.47S2.51,2.7,15.16,2.7Z"/><path class="cls-10" d="M15.27,27.44C16.13,11.13,22,12.32,28,12.32c6.49,0,6.38-1.52,6.38-1.52V0h3.47V15.82h-9c-4.12,0-7.46,2.42-7.46,5.39v6.23Z"/></g></g></svg>