<svg xmlns="http://www.w3.org/2000/svg" xmlns:xlink="http://www.w3.org/1999/xlink" viewBox="0 0 800 174.17"><defs><style>.cls-1{fill:none;}.cls-2{fill:#505050;}.cls-3{fill:#b4b4b4;}.cls-4{fill:#d2d2d2;}.cls-5{isolation:isolate;}.cls-6{fill:url(#Nueva_muestra_de_motivo_73);}.cls-7{fill:#46465a;}.cls-8{fill:#646478;}.cls-9{fill:#3c46be;}.cls-10{fill:#dcdcf0;}.cls-11{fill:#010002;}.cls-12{fill:#c8d2dc;}.cls-12,.cls-13{mix-blend-mode:multiply;}.cls-13{fill:#a0aab4;}</style><pattern id="Nueva_muestra_de_motivo_73" data-name="Nueva muestra de motivo 73" width="47.25" height="47.24" patternTransform="translate(-0.36 1351.65) scale(0.24)" patternUnits="userSpaceOnUse" viewBox="0 0 47.25 47.24"><rect class="cls-1" width="47.25" height="47.24"/><polygon class="cls-2" points="24.48 24.93 24.85 24.57 24.69 24.41 47.24 1.86 47.25 0.01 46.54 0 23.62 24.07 0.71 1.16 0 0.01 0 1.86 22.54 24.41 22.39 24.57 22.75 24.93 0 46.53 0 47.24 1.86 47.24 23.62 25.48 45.38 47.24 47.25 47.24 47.24 46.53 24.48 24.93"/><polygon class="cls-3" points="46.54 47.24 0.01 0.71 0.01 0.01 0.71 0 47.24 46.53 47.25 47.24 46.54 47.24"/><polygon class="cls-3" points="0.71 47.24 0.01 47.24 0.01 46.53 46.54 0 47.25 0.01 47.24 0.71 0.71 47.24"/><polygon class="cls-4" points="46.54 0 23.62 22.91 0.71 0 0.12 0.01 22.92 22.81 22.51 23.21 22.92 23.62 0 46.53 0.01 47.13 23.62 23.51 47.25 47.13 47.24 46.53 24.33 23.62 24.74 23.21 24.33 22.81 47.13 0.01 46.54 0"/></pattern></defs><title>penalty_reja</title><g class="cls-5"><g id="Capa_2" data-name="Capa 2"><g id="Capa_54" data-name="Capa 54"><rect class="cls-6" y="15.88" width="800" height="155.51"/><rect class="cls-7" x="22.51" width="2.08" height="174.17"/><rect class="cls-7" x="207.56" width="2.08" height="174.17"/><rect class="cls-7" x="392.62" width="2.08" height="174.17"/><rect class="cls-7" x="577.67" width="2.08" height="174.17"/><rect class="cls-7" x="762.73" width="2.08" height="174.17"/><rect class="cls-8" y="14.84" width="800" height="2.08"/><path class="cls-9" d="M173,109.78S129.75,120.5,102.3,120.5,37,112.15,37,112.15l3.89-65.77S89.84,51,102.3,51s62.27-4.64,62.27-4.64Z"/><path class="cls-10" d="M37,112.15s37.91,8.35,65.35,8.35S173,109.78,173,109.78l-4.33-32.6-17,.47C123.14,91.91,93.13,86,93.13,86c-20,2.73-33.33-6.12-33.33-6.12C56,77.14,48.64,82.3,48.64,82.3c-3.52-.35-8.75-2.77-9.73-3.23Z"/><path class="cls-11" d="M45.36,55.82a32,32,0,0,0,6.69,15.62A46.73,46.73,0,0,0,64.79,82.76a56.29,56.29,0,0,0,15.75,6.67A57.53,57.53,0,0,0,89,91a70.9,70.9,0,0,0,8.62.44,56.36,56.36,0,0,1-17.26-1.25,54.68,54.68,0,0,1-16.09-6.57A45.68,45.68,0,0,1,51.44,71.9a36.16,36.16,0,0,1-4.24-7.61A27.52,27.52,0,0,1,45.36,55.82Z"/><path class="cls-11" d="M74.51,100.33A42.39,42.39,0,0,0,95,106.08a58.66,58.66,0,0,0,10.67-.72A75.79,75.79,0,0,0,116,102.79,99.23,99.23,0,0,0,135.59,94a102.2,102.2,0,0,0,9.06-5.79c1.46-1,2.91-2.11,4.29-3.26a25.69,25.69,0,0,0,3.85-3.74,22.88,22.88,0,0,1-3.68,3.94c-1.34,1.21-2.74,2.35-4.17,3.45a102.8,102.8,0,0,1-9,6.07,95.36,95.36,0,0,1-19.65,9,74.72,74.72,0,0,1-10.56,2.51,53.15,53.15,0,0,1-10.84.6A42.06,42.06,0,0,1,84.25,105,40.57,40.57,0,0,1,74.51,100.33Z"/><path class="cls-11" d="M153.75,55.82a11.41,11.41,0,0,1-2.18,3.81,28.61,28.61,0,0,1-3,3.18,48.4,48.4,0,0,1-7.1,5.22,70.61,70.61,0,0,1-16.07,7.18A65.34,65.34,0,0,1,108,78a56.18,56.18,0,0,1-8.79-.55,50.56,50.56,0,0,1-8.53-2.08,56.84,56.84,0,0,0,17.3,1.86,68.23,68.23,0,0,0,17.12-3,74,74,0,0,0,16-6.88,49.54,49.54,0,0,0,7.17-4.93,27.94,27.94,0,0,0,3.17-3A12.25,12.25,0,0,0,153.75,55.82Z"/><path class="cls-11" d="M45.36,49.31c.82.78,1.64,1.55,2.52,2.27s1.73,1.43,2.63,2.11a52.91,52.91,0,0,0,5.61,3.66,41.32,41.32,0,0,0,6.07,2.83l1.58.57,1.62.45c1.07.37,2.19.48,3.29.79A25.71,25.71,0,0,1,62,60.91l-.83-.23-.81-.31c-.53-.2-1.08-.39-1.6-.62-1-.47-2.08-1-3.08-1.53A34.64,34.64,0,0,1,50,54.28,29.69,29.69,0,0,1,45.36,49.31Z"/><path class="cls-11" d="M157.71,51a19.21,19.21,0,0,1,.19,5.41,26.35,26.35,0,0,1-1.06,5.33,26.86,26.86,0,0,1-2.11,5,26,26,0,0,1-1.4,2.32c-.52.73-1.08,1.44-1.66,2.13.83-1.6,1.66-3.17,2.36-4.8a42.12,42.12,0,0,0,1.85-5,42.94,42.94,0,0,0,1.25-5.15A37.2,37.2,0,0,0,157.71,51Z"/><path class="cls-12" d="M57.81,116.08c-5.47-2.6-8.27-4.54-9.75-9.8-2.7-9.54,3.11-19.2,3.11-19.2s7.28,22.54,41.26,24.49S147.9,86,147.9,86C131.58,99.68,110,105,110,105c-34.14,7.66-43.58-14.26-43.58-14.26,3,2.17,27.63.79,27.63.79C48.3,91.13,40.84,46.38,40.84,46.38L37,112.15S45.69,114.08,57.81,116.08Z"/><path class="cls-12" d="M95,82.3s51.43,9.62,62.75-26.48C157.78,55.82,154.68,98,95,82.3Z"/><path class="cls-13" d="M47,51a64.48,64.48,0,0,0,39.11,7.69S64.76,69.25,47,51Z"/><path class="cls-12" d="M41.16,47.9s4.51,59.37,54.65,63.49C95.81,111.39,42.64,117.2,41.16,47.9Z"/><path class="cls-13" d="M95,76.51s38.44-2.68,55.75-16.18C150.78,60.33,128,82.27,95,76.51Z"/><path class="cls-9" d="M163.5,45.75A21.3,21.3,0,0,1,174,48.31S166.1,53.6,163.5,45.75Z"/><path class="cls-12" d="M163.5,45.75s4.37,2.68,8.49,2.43c0,0-4.33.75-5.45-.12a6,6,0,0,0,4.62,1.14S164.75,51.14,163.5,45.75Z"/><path class="cls-9" d="M164,46.79s-4.35-8.89,1.55-11.34C165.59,35.45,169.86,40.94,164,46.79Z"/><path class="cls-12" d="M164.07,46.87c0,.07-2.3-4.23-.57-8.22a17.42,17.42,0,0,0,.2,4.13,49.69,49.69,0,0,0,1.3-6.27s.43,4.9-.51,7.44c0,0,1.63-3.17,1.63-4.65C166.12,39.3,166.77,43.85,164.07,46.87Z"/><path class="cls-9" d="M41.7,45.75a21.32,21.32,0,0,0-10.51,2.56S39.1,53.6,41.7,45.75Z"/><path class="cls-12" d="M41.7,45.75s-4.37,2.68-8.49,2.43c0,0,4.33.75,5.45-.12A6,6,0,0,1,34,49.2S40.45,51.14,41.7,45.75Z"/><path class="cls-9" d="M41.17,46.79s4.34-8.89-1.56-11.34C39.61,35.45,35.34,40.94,41.17,46.79Z"/><path class="cls-12" d="M41.13,46.87a10,10,0,0,0,.57-8.22,17.42,17.42,0,0,1-.2,4.13,51.63,51.63,0,0,1-1.3-6.27s-.43,4.9.51,7.44c0,0-1.63-3.17-1.63-4.65C39.08,39.3,38.43,43.85,41.13,46.87Z"/></g></g></g></svg>