<svg xmlns="http://www.w3.org/2000/svg" viewBox="0 0 1000 610.55"><defs><style>.cls-1{isolation:isolate;}.cls-2{fill:#34444f;}.cls-3{fill:#3f4f5a;}.cls-4{fill:#4a5a64;}.cls-5{fill:#55646f;}.cls-6{opacity:0.3;}.cls-7{fill:#fafafa;}.cls-8{mix-blend-mode:multiply;}.cls-9{fill:#00233a;}.cls-10{fill:#d1b5ca;}.cls-11{fill:#e4c9de;}.cls-12{fill:#bda1b6;}.cls-13{fill:#ffe7ff;}.cls-14{fill:#a98da2;}.cls-15{fill:#8eacca;}.cls-16{fill:#80647a;}.cls-17{fill:#7a97b7;}.cls-18{fill:#a3bfde;}.cls-19{fill:#293945;}.cls-20{fill:#fffaa7;stroke:#cd9700;stroke-miterlimit:10;}</style></defs><title>GOL</title><g class="cls-1"><g id="Capa_2" data-name="Capa 2"><g id="Capa_1-2" data-name="Capa 1"><path class="cls-2" d="M142.73,49.76H857.27A110.75,110.75,0,0,1,968,160.51v450a0,0,0,0,1,0,0H32a0,0,0,0,1,0,0v-450A110.75,110.75,0,0,1,142.73,49.76Z"/><path class="cls-3" d="M857.8,49.76H142.2A110.22,110.22,0,0,0,32,160V268.82C156.37,321,320.11,352.66,499.5,352.66c179.88,0,344-31.85,468.52-84.26V160A110.22,110.22,0,0,0,857.8,49.76Z"/><ellipse class="cls-4" cx="496.52" cy="182.49" rx="398.56" ry="119.42"/><ellipse class="cls-5" cx="496.52" cy="160.1" rx="281.04" ry="84.21"/><g class="cls-6"><path class="cls-7" d="M903.08,79.65C836,81.57,769,82.63,702,83.31l-25.14.28-25.15.18-50.28.33-100.57.26-100.57-.25L350,83.78l-25.14-.18-25.15-.27c-67-.7-134.09-1.73-201.13-3.7,67-2,134.09-3,201.13-3.7l25.15-.28L350,75.48l50.28-.34,100.57-.25,100.57.27,50.28.33,25.15.18L702,76C769,76.65,836,77.64,903.08,79.65Z"/></g><g class="cls-8"><path class="cls-9" d="M903.08,593.16l-25.14.45L852.8,594l-50.28.7q-50.29.55-100.57.92c-33.53.29-67.05.35-100.57.52l-100.57.18-100.57-.17c-33.52-.17-67-.23-100.57-.52s-67-.55-100.56-.92L148.82,594l-25.14-.36-25.14-.47,25.14-.48,25.14-.36,50.29-.71q50.28-.55,100.56-.92c33.53-.29,67.05-.35,100.57-.52L500.81,590l100.57.18c33.52.17,67,.23,100.57.52s67,.55,100.57.92l50.28.7,25.14.36Z"/></g><rect class="cls-4" x="395.04" y="36.15" width="208.02" height="22.56"/><rect class="cls-3" x="395.04" y="36.15" width="208.02" height="20.15"/><rect class="cls-2" x="395.04" y="36.15" width="208.02" height="16.64"/><path class="cls-10" d="M591.35,0H567.57A8.62,8.62,0,0,0,559,8.61h0A12,12,0,0,1,547,20.55H451A12,12,0,0,1,439,8.61h0A8.62,8.62,0,0,0,430.42,0H406.64A12,12,0,0,0,394.7,11.94V37.82a12,12,0,0,0,11.94,11.94H591.35a12,12,0,0,0,11.94-11.94V11.94A12,12,0,0,0,591.35,0Z"/><path class="cls-11" d="M591.35,0H567.57A8.61,8.61,0,0,0,559,8.61,12,12,0,0,1,547,20.55H451A12,12,0,0,1,439,8.61,8.61,8.61,0,0,0,430.42,0H406.64A12,12,0,0,0,394.7,11.94V22.86C424.61,29,463.48,32.71,506,32.71c36.16,0,69.69-2.69,97.31-7.27V11.94A12,12,0,0,0,591.35,0Z"/><path class="cls-12" d="M501.11,42.45c-39.43,0-76.05-2.74-106.41-7.43v2.8a12,12,0,0,0,11.94,11.94H591.35a12,12,0,0,0,11.94-11.94V35.65C573.78,40,538.72,42.45,501.11,42.45Z"/><path class="cls-13" d="M596.41,3.9l-13.56.26-6.77.11-3.39.06a13.33,13.33,0,0,0-3.26.29,8.6,8.6,0,0,0-5.12,3.56,7.74,7.74,0,0,0-1.16,2.91,10.11,10.11,0,0,0-.13,1.58,10.6,10.6,0,0,1-.15,1.78,11,11,0,0,1-1.06,3.4,12.1,12.1,0,0,1-2,3,13.44,13.44,0,0,1-6,3.82,14.58,14.58,0,0,1-3.53.6c-1.18.05-2.27,0-3.41.05l-6.78,0-13.55,0-27.11.09-27.1-.08-13.56-.05-6.77,0c-1.14,0-2.24,0-3.41-.05a14.11,14.11,0,0,1-3.54-.6,13.5,13.5,0,0,1-6-3.82,12.1,12.1,0,0,1-2-3,11.59,11.59,0,0,1-1.06-3.4,13.22,13.22,0,0,1-.15-1.78,10.11,10.11,0,0,0-.13-1.58,7.74,7.74,0,0,0-1.16-2.91,8.55,8.55,0,0,0-5.12-3.55,12.78,12.78,0,0,0-3.25-.3l-3.39-.06-6.78-.11q-6.78-.09-13.55-.26,6.78-.16,13.55-.27l6.78-.11,3.39,0a14.13,14.13,0,0,1,3.47.2,9.54,9.54,0,0,1,5.83,3.89,9,9,0,0,1,1.4,3.31,11.08,11.08,0,0,1,.18,1.79,12.26,12.26,0,0,0,.17,1.59,11.55,11.55,0,0,0,8.22,8.92,12.74,12.74,0,0,0,3.14.46c1.07,0,2.24,0,3.36,0l6.77,0,13.56,0,27.1-.09,27.11.09,13.55,0,6.78,0c1.11,0,2.28,0,3.36,0a12,12,0,0,0,3.14-.46,11.57,11.57,0,0,0,8.22-8.92,10.71,10.71,0,0,0,.16-1.59,12.37,12.37,0,0,1,.19-1.79,8.84,8.84,0,0,1,1.4-3.31,9.49,9.49,0,0,1,5.82-3.88,13.72,13.72,0,0,1,3.48-.21l3.39,0,6.77.12Z"/><path class="cls-14" d="M584.78,37.37a5.24,5.24,0,1,1-5.24-5.24A5.23,5.23,0,0,1,584.78,37.37Z"/><path class="cls-14" d="M413.77,37.37A5.24,5.24,0,1,0,419,32.13,5.24,5.24,0,0,0,413.77,37.37Z"/><path class="cls-15" d="M579.54,41A5.46,5.46,0,1,1,585,35.56,5.47,5.47,0,0,1,579.54,41Z"/><path class="cls-16" d="M579.54,30.32a5.24,5.24,0,1,1-5.23,5.24,5.24,5.24,0,0,1,5.23-5.24m0-.44a5.68,5.68,0,1,0,5.69,5.68,5.69,5.69,0,0,0-5.69-5.68Z"/><path class="cls-17" d="M584.58,34.21a5.21,5.21,0,0,1-10.21.73,6.2,6.2,0,0,0-.06.62,5.24,5.24,0,1,0,10.47,0A5,5,0,0,0,584.58,34.21Z"/><circle class="cls-18" cx="579.07" cy="34.13" r="2.96"/><path class="cls-15" d="M419,41a5.46,5.46,0,1,1,5.46-5.46A5.47,5.47,0,0,1,419,41Z"/><path class="cls-16" d="M419,30.32a5.24,5.24,0,1,1-5.24,5.24A5.25,5.25,0,0,1,419,30.32m0-.44a5.68,5.68,0,1,0,5.68,5.68A5.69,5.69,0,0,0,419,29.88Z"/><path class="cls-17" d="M414,34.21a5.21,5.21,0,0,0,10.21.73,4.2,4.2,0,0,1,.07.62,5.24,5.24,0,0,1-10.48,0A5.43,5.43,0,0,1,414,34.21Z"/><path class="cls-18" d="M416.52,34.13a3,3,0,1,0,3-3A3,3,0,0,0,416.52,34.13Z"/><path class="cls-19" d="M940.05,246.58h6.55a10.16,10.16,0,0,1,10.16,10.16V589.2a0,0,0,0,1,0,0H929.89a0,0,0,0,1,0,0V256.74A10.16,10.16,0,0,1,940.05,246.58Z"/><path class="cls-10" d="M975.79,353.81V258.68a12.1,12.1,0,0,0-12.1-12.1H947.61a12.11,12.11,0,0,0-12.11,12.1V585.36a12.11,12.11,0,0,0,12.11,12.1H987.9a12.1,12.1,0,0,0,12.1-12.1V378a12.11,12.11,0,0,0-12.1-12.11h0A12.11,12.11,0,0,1,975.79,353.81Z"/><path class="cls-12" d="M992.87,575.57H952.58a12.11,12.11,0,0,1-12.1-12.11V248.91a12.11,12.11,0,0,0-5,9.77V585.36a12.11,12.11,0,0,0,12.11,12.1H987.9a12.1,12.1,0,0,0,12.1-12.1V573.23A12.06,12.06,0,0,1,992.87,575.57Z"/><path class="cls-11" d="M990.15,540.41c3.39,0,6.68-2.48,9.85-7.15V378a12.11,12.11,0,0,0-12.1-12.11h0a12.11,12.11,0,0,1-12.11-12.1V258.68a12.1,12.1,0,0,0-12.1-12.1H947.61a12,12,0,0,0-3.13.42C945.51,410.2,965.56,540.41,990.15,540.41Z"/><path class="cls-13" d="M996.14,587.07l-.49-46.6-.28-46.6-.23-93.21,0-11.65v-5.83a14.91,14.91,0,0,0-.57-5.45,11.09,11.09,0,0,0-7.45-7.14,9.55,9.55,0,0,0-1.31-.29,10,10,0,0,0-1.34-.13l-1.5-.08c-.52,0-1-.14-1.55-.22a12.94,12.94,0,0,1-9.26-7.71,13,13,0,0,1-.82-3,18.69,18.69,0,0,1-.15-3l0-11.65.1-23.3.28-46.6.11-11.66a11.71,11.71,0,0,0-10.16-11.82,21.06,21.06,0,0,0-2.88-.13l-2.91,0-11.65-.15,11.65-.15,2.91,0a20.53,20.53,0,0,1,2.93.08,12.21,12.21,0,0,1,5.51,2.06,12.35,12.35,0,0,1,3.92,4.42,12.52,12.52,0,0,1,1.43,5.75l.11,11.66.28,46.6.09,23.3,0,11.65a16.47,16.47,0,0,0,.14,2.77,10.94,10.94,0,0,0,.72,2.59,11.12,11.12,0,0,0,8,6.6c.44.07.88.16,1.33.19l1.41.07a10.3,10.3,0,0,1,1.56.15,10.15,10.15,0,0,1,1.53.32,13,13,0,0,1,8.75,8.32,17.05,17.05,0,0,1,.69,6.06V389l0,11.65-.23,93.21-.28,46.6Z"/><path class="cls-14" d="M958.5,504.83a5.24,5.24,0,1,1-5.23-5.23A5.23,5.23,0,0,1,958.5,504.83Z"/><circle class="cls-15" cx="953.27" cy="503.03" r="5.46"/><path class="cls-16" d="M953.27,497.79A5.24,5.24,0,1,1,948,503a5.24,5.24,0,0,1,5.24-5.24m0-.45A5.69,5.69,0,1,0,959,503a5.69,5.69,0,0,0-5.68-5.69Z"/><path class="cls-17" d="M958.3,501.67a5.21,5.21,0,0,1-10.21.73c0,.21-.06.41-.06.63a5.24,5.24,0,1,0,10.47,0A5.14,5.14,0,0,0,958.3,501.67Z"/><path class="cls-18" d="M955.75,501.59a3,3,0,1,1-3-3A3,3,0,0,1,955.75,501.59Z"/><path class="cls-14" d="M948,404.32a5.24,5.24,0,1,0,5.24-5.24A5.24,5.24,0,0,0,948,404.32Z"/><circle class="cls-15" cx="953.27" cy="402.51" r="5.46"/><path class="cls-16" d="M953.27,397.27a5.24,5.24,0,1,1-5.24,5.24,5.24,5.24,0,0,1,5.24-5.24m0-.44a5.69,5.69,0,1,0,5.68,5.68,5.69,5.69,0,0,0-5.68-5.68Z"/><path class="cls-17" d="M948.23,401.16a5.21,5.21,0,0,0,10.21.73,4.2,4.2,0,0,1,.06.62,5.24,5.24,0,1,1-10.47,0A5,5,0,0,1,948.23,401.16Z"/><path class="cls-18" d="M950.78,401.08a3,3,0,1,0,3-3A3,3,0,0,0,950.78,401.08Z"/><path class="cls-19" d="M53.8,246.58h6.55a10.16,10.16,0,0,1,10.16,10.16V589.2a0,0,0,0,1,0,0H43.64a0,0,0,0,1,0,0V256.74A10.16,10.16,0,0,1,53.8,246.58Z"/><path class="cls-10" d="M24.21,353.81V258.68a12.1,12.1,0,0,1,12.1-12.1H52.39a12.11,12.11,0,0,1,12.11,12.1V585.36a12.11,12.11,0,0,1-12.11,12.1H12.1A12.1,12.1,0,0,1,0,585.36V378a12.11,12.11,0,0,1,12.1-12.11h0A12.11,12.11,0,0,0,24.21,353.81Z"/><path class="cls-12" d="M7.13,575.57H47.42a12.11,12.11,0,0,0,12.1-12.11V248.91a12.11,12.11,0,0,1,5,9.77V585.36a12.11,12.11,0,0,1-12.11,12.1H12.1A12.1,12.1,0,0,1,0,585.36V573.23A12.06,12.06,0,0,0,7.13,575.57Z"/><path class="cls-11" d="M9.85,540.41c-3.39,0-6.68-2.48-9.85-7.15V378a12.11,12.11,0,0,1,12.1-12.11h0a12.11,12.11,0,0,0,12.11-12.1V258.68a12.1,12.1,0,0,1,12.1-12.1H52.39a12,12,0,0,1,3.13.42C54.49,410.2,34.44,540.41,9.85,540.41Z"/><path class="cls-13" d="M3.86,587.07l-.48-46.6-.28-46.6-.23-93.21,0-11.65v-5.83a17.05,17.05,0,0,1,.69-6.06,13,13,0,0,1,8.75-8.32,10.15,10.15,0,0,1,1.53-.32,10.3,10.3,0,0,1,1.56-.15l1.41-.07c.45,0,.89-.12,1.33-.19a11.12,11.12,0,0,0,8-6.6,10.94,10.94,0,0,0,.72-2.59,16.47,16.47,0,0,0,.14-2.77l0-11.65.09-23.3.28-46.6.11-11.66A12.52,12.52,0,0,1,29,257.15a12.35,12.35,0,0,1,3.92-4.42,12.21,12.21,0,0,1,5.51-2.06,20.53,20.53,0,0,1,2.93-.08l2.91,0,11.65.15-11.65.15-2.91,0a21.06,21.06,0,0,0-2.88.13A11.74,11.74,0,0,0,28.27,262.9l.11,11.66.28,46.6.1,23.3,0,11.65a18.69,18.69,0,0,1-.15,3,13,13,0,0,1-.82,3,13.4,13.4,0,0,1-3.68,5,13.28,13.28,0,0,1-5.58,2.71c-.52.08-1,.18-1.55.22l-1.5.08a10,10,0,0,0-1.34.13,9.55,9.55,0,0,0-1.31.29,11.09,11.09,0,0,0-7.45,7.14,14.91,14.91,0,0,0-.57,5.45V389l0,11.65-.23,93.21-.28,46.6Z"/><path class="cls-14" d="M41.5,504.83a5.24,5.24,0,1,0,5.23-5.23A5.23,5.23,0,0,0,41.5,504.83Z"/><path class="cls-15" d="M46.73,508.49A5.46,5.46,0,1,1,52.19,503,5.47,5.47,0,0,1,46.73,508.49Z"/><path class="cls-16" d="M46.73,497.79A5.24,5.24,0,1,1,41.5,503a5.25,5.25,0,0,1,5.23-5.24m0-.45A5.69,5.69,0,1,0,52.42,503a5.69,5.69,0,0,0-5.69-5.69Z"/><path class="cls-17" d="M41.7,501.67a5.21,5.21,0,0,0,10.21.73c0,.21.06.41.06.63a5.24,5.24,0,1,1-10.47,0A5.14,5.14,0,0,1,41.7,501.67Z"/><path class="cls-18" d="M44.25,501.59a3,3,0,1,0,3-3A3,3,0,0,0,44.25,501.59Z"/><path class="cls-14" d="M52,404.32a5.24,5.24,0,1,1-5.24-5.24A5.24,5.24,0,0,1,52,404.32Z"/><path class="cls-15" d="M46.73,408a5.46,5.46,0,1,1,5.46-5.46A5.47,5.47,0,0,1,46.73,408Z"/><path class="cls-16" d="M46.73,397.27a5.24,5.24,0,1,1-5.23,5.24,5.25,5.25,0,0,1,5.23-5.24m0-.44a5.69,5.69,0,1,0,5.69,5.68,5.69,5.69,0,0,0-5.69-5.68Z"/><path class="cls-17" d="M51.77,401.16a5.21,5.21,0,0,1-10.21.73,4.2,4.2,0,0,0-.06.62,5.24,5.24,0,1,0,10.47,0A5,5,0,0,0,51.77,401.16Z"/><path class="cls-18" d="M49.22,401.08a3,3,0,1,1-3-3A3,3,0,0,1,49.22,401.08Z"/><path class="cls-20" d="M190.55,375q13.69,11.55,37.88,11.56,19.26,0,29.31-3.86V372H235.27a6.57,6.57,0,0,1-6.63-6.63V336.9a6,6,0,0,1,1.93-4.6,6.6,6.6,0,0,1,4.7-1.82h68.48a6.6,6.6,0,0,1,4.71,1.82,6,6,0,0,1,1.93,4.6V412a6.14,6.14,0,0,1-1.39,3.75,7,7,0,0,1-3.32,2.46,235.52,235.52,0,0,1-35.63,7.92,294.36,294.36,0,0,1-43.34,3q-52.86,0-80.89-20.43t-28-63q0-41.73,28.89-66.12,28.89-24,75.54-24a261.56,261.56,0,0,1,40.87,2.89,220.66,220.66,0,0,1,29.32,6.31,6.12,6.12,0,0,1,3.11,2,6.3,6.3,0,0,1,1.6,3.32l3.64,29.75a6.38,6.38,0,0,1-2.14,5.88,6.2,6.2,0,0,1-6.21,1.18q-11.55-3.42-27.82-6.64-7.92-1.49-15.94-2.35a152.48,152.48,0,0,0-16.16-.86q-25.25,0-40.66,12.84-14.76,12.84-14.76,33.82Q177.07,363.43,190.55,375Z"/><path class="cls-20" d="M495.5,407.73q-25.47,21.4-75.12,21.4t-75.11-21.4q-25.47-21.39-25.47-65.27t25.47-65.37q25.46-21.51,75.11-21.51t75.12,21.51Q521,298.59,521,342.46T495.5,407.73Zm-44.41-93q-10.59-9.31-30.71-9.31t-30.6,9.31q-10.48,9.31-10.49,27.71t10.49,27.72q10.49,9.3,30.6,9.3t30.71-9.3q10.59-9.31,10.59-27.72T451.09,314.75Z"/><path class="cls-20" d="M675,426.56a6.6,6.6,0,0,1-3.32-1.07,5.62,5.62,0,0,1-2.46-2.56l-10.91-21H578.1l-10.92,21a7.29,7.29,0,0,1-2.56,2.56,6.4,6.4,0,0,1-3.43,1.07h-44.3c-2.85,0-4.92-1-6.2-3s-1.22-4.21.21-6.64l88-154.72a5.93,5.93,0,0,1,2.56-2.35,7.1,7.1,0,0,1,3.21-1.07h37.88a6.15,6.15,0,0,1,3.21,1.07,7.34,7.34,0,0,1,2.57,2.57l82.82,154.72a6.64,6.64,0,0,1,0,6.53q-1.71,2.88-6,2.88Zm-76-62.27h39.8l-19.26-37.24Z"/><path class="cls-20" d="M794.66,376.92h80.89a6.74,6.74,0,0,1,4.61,1.82,5.91,5.91,0,0,1,2,4.6v36.8a6.58,6.58,0,0,1-6.42,6.42H742a6.4,6.4,0,0,1-4.71-1.92,6.19,6.19,0,0,1-1.93-4.5V265.21a6.38,6.38,0,0,1,1.82-4.5,6.07,6.07,0,0,1,4.6-1.92h46.44a6.5,6.5,0,0,1,4.6,1.92,6,6,0,0,1,2,4.5Z"/></g></g></g></svg>