<svg xmlns="http://www.w3.org/2000/svg" viewBox="0 0 187.45 187.45"><defs><style>.cls-1{isolation:isolate;}.cls-2,.cls-3{fill:#271201;}.cls-2,.cls-4{stroke:#000;stroke-miterlimit:10;stroke-width:3.1px;}.cls-4{fill:#f1daaa;}.cls-5{fill:#cbbda9;}.cls-5,.cls-6{mix-blend-mode:multiply;}.cls-6{opacity:0.5;}.cls-7{fill:#936e41;}</style></defs><title>penalty_ball</title><g class="cls-1"><g id="Capa_2" data-name="Capa 2"><g id="Capa_54" data-name="Capa 54"><path class="cls-2" d="M185.9,93.72A92.18,92.18,0,1,1,93.73,1.55,92.18,92.18,0,0,1,185.9,93.72Z"/><polygon class="cls-3" points="74.08 127.76 54.43 93.72 74.08 59.7 113.37 59.7 133.02 93.72 113.37 127.76 74.08 127.76"/><path class="cls-4" d="M56.44,25.66l19.65,34h37.28l19.65-34L121.59,5.84a92.61,92.61,0,0,0-55.72,0L54.43,25.66Z"/><path class="cls-4" d="M113.37,127.76H76.09l-19.65,34h-2L65.87,181.6a92.4,92.4,0,0,0,55.72,0L133,161.79Z"/><path class="cls-4" d="M113.39,59.7l19.65,34h39.3L183.75,74a92,92,0,0,0-27.88-48.3H133Z"/><path class="cls-4" d="M183.75,113.49,172.34,93.72H133l-19.65,34,19.65,34h22.83A92,92,0,0,0,183.75,113.49Z"/><path class="cls-4" d="M56.44,93.72l19.65-34h-2l-19.65-34H31.58A92.1,92.1,0,0,0,4.28,71.44L17.15,93.72Z"/><polygon class="cls-4" points="54.43 25.66 74.08 59.7 76.09 59.7 56.44 25.66 54.43 25.66"/><path class="cls-4" d="M74.08,127.76h2l-19.65-34H17.15L4.28,116a92.06,92.06,0,0,0,27.3,45.78H54.43Z"/><polygon class="cls-4" points="54.43 161.79 56.44 161.79 76.09 127.76 74.08 127.76 54.43 161.79"/><path class="cls-5" d="M106.4,123.15A92.21,92.21,0,0,1,16.09,49.5,91.7,91.7,0,0,0,1.83,90.36a92.16,92.16,0,0,0,183.79,7.15A92.63,92.63,0,0,0,183.81,81,92.06,92.06,0,0,1,106.4,123.15Z"/><g class="cls-6"><path class="cls-7" d="M117.27,27.66a91.69,91.69,0,0,1-5.74,8.59c-2,2.75-4.15,5.45-6.35,8.07S100.7,49.5,98.34,52a91.79,91.79,0,0,1-7.46,7.15,91.69,91.69,0,0,1,5.74-8.59c2-2.76,4.15-5.46,6.35-8.07s4.48-5.18,6.84-7.66A93.45,93.45,0,0,1,117.27,27.66Z"/><path class="cls-7" d="M123,31.78a95.62,95.62,0,0,1-5.74,8.58q-3.06,4.14-6.36,8.08c-2.19,2.62-4.48,5.17-6.84,7.66a90,90,0,0,1-7.46,7.14,93,93,0,0,1,5.74-8.59c2-2.75,4.15-5.45,6.35-8.07s4.49-5.17,6.85-7.66A93.41,93.41,0,0,1,123,31.78Z"/><path class="cls-7" d="M128.8,35.9a93,93,0,0,1-5.74,8.59c-2,2.75-4.15,5.45-6.35,8.07s-4.49,5.17-6.85,7.66a91.79,91.79,0,0,1-7.46,7.15,90.4,90.4,0,0,1,5.74-8.59c2-2.76,4.15-5.46,6.36-8.07s4.48-5.18,6.84-7.66A91.79,91.79,0,0,1,128.8,35.9Z"/><path class="cls-7" d="M134.56,40a92.87,92.87,0,0,1-5.74,8.58q-3.06,4.14-6.35,8.08t-6.84,7.66a93.26,93.26,0,0,1-7.46,7.14,91,91,0,0,1,5.73-8.59c2-2.75,4.15-5.45,6.36-8.07s4.48-5.17,6.84-7.66A91.67,91.67,0,0,1,134.56,40Z"/></g><g class="cls-6"><path class="cls-7" d="M108.17,27.66a93.31,93.31,0,0,1,7.45,7.15q3.54,3.72,6.85,7.66c2.2,2.61,4.31,5.31,6.35,8.07a91.69,91.69,0,0,1,5.74,8.59A91.79,91.79,0,0,1,127.1,52c-2.36-2.48-4.65-5-6.84-7.66s-4.32-5.32-6.35-8.07A91.69,91.69,0,0,1,108.17,27.66Z"/><path class="cls-7" d="M102.4,31.78a93.41,93.41,0,0,1,7.46,7.14q3.54,3.73,6.85,7.66c2.2,2.62,4.31,5.32,6.35,8.07a93,93,0,0,1,5.74,8.59,90,90,0,0,1-7.46-7.14c-2.36-2.49-4.65-5-6.84-7.66s-4.32-5.32-6.36-8.08A95.62,95.62,0,0,1,102.4,31.78Z"/><path class="cls-7" d="M96.64,35.9a91.79,91.79,0,0,1,7.46,7.15q3.54,3.72,6.84,7.66c2.21,2.61,4.32,5.31,6.36,8.07A90.4,90.4,0,0,1,123,67.37a93.59,93.59,0,0,1-7.47-7.15c-2.36-2.49-4.64-5-6.84-7.66s-4.31-5.32-6.35-8.07A93,93,0,0,1,96.64,35.9Z"/><path class="cls-7" d="M90.88,40a93.33,93.33,0,0,1,7.46,7.14q3.54,3.73,6.84,7.66c2.21,2.62,4.32,5.32,6.36,8.07a95,95,0,0,1,5.73,8.59,90,90,0,0,1-7.46-7.14c-2.36-2.49-4.65-5-6.84-7.66s-4.31-5.32-6.35-8.08A92.87,92.87,0,0,1,90.88,40Z"/></g><g class="cls-6"><path class="cls-7" d="M50.28,111.51a74.19,74.19,0,0,1-4.62,6.91c-1.62,2.23-3.35,4.37-5.11,6.5s-3.59,4.17-5.5,6.16a74.21,74.21,0,0,1-6,5.75,76.13,76.13,0,0,1,4.61-6.91c1.63-2.23,3.36-4.37,5.12-6.49s3.59-4.18,5.5-6.17A74.21,74.21,0,0,1,50.28,111.51Z"/><path class="cls-7" d="M54.92,114.82a76.23,76.23,0,0,1-4.62,6.91c-1.63,2.23-3.36,4.37-5.11,6.49s-3.59,4.18-5.5,6.17a74.35,74.35,0,0,1-6,5.75,74.19,74.19,0,0,1,4.62-6.91c1.63-2.23,3.36-4.37,5.11-6.5s3.6-4.17,5.51-6.16A74.21,74.21,0,0,1,54.92,114.82Z"/><path class="cls-7" d="M59.55,118.14a76.13,76.13,0,0,1-4.61,6.91c-1.63,2.23-3.36,4.37-5.12,6.49s-3.59,4.18-5.5,6.17a74.21,74.21,0,0,1-6,5.75,74.76,74.76,0,0,1,4.61-6.91c1.63-2.23,3.36-4.37,5.12-6.5s3.59-4.17,5.5-6.16A75.9,75.9,0,0,1,59.55,118.14Z"/><path class="cls-7" d="M64.19,121.45a74.19,74.19,0,0,1-4.62,6.91c-1.63,2.23-3.36,4.37-5.11,6.49S50.87,139,49,141a75.9,75.9,0,0,1-6,5.75,70.94,70.94,0,0,1,4.61-6.91c1.63-2.23,3.36-4.37,5.11-6.5s3.6-4.17,5.51-6.16A74.21,74.21,0,0,1,64.19,121.45Z"/></g><g class="cls-6"><path class="cls-7" d="M43,111.51a75.76,75.76,0,0,1,6,5.75c1.92,2,3.72,4.07,5.51,6.17s3.49,4.26,5.11,6.49a74.19,74.19,0,0,1,4.62,6.91,74.21,74.21,0,0,1-6-5.75c-1.91-2-3.72-4.07-5.51-6.16s-3.48-4.27-5.11-6.5A74.1,74.1,0,0,1,43,111.51Z"/><path class="cls-7" d="M38.32,114.82a74.21,74.21,0,0,1,6,5.75c1.91,2,3.72,4.07,5.5,6.16s3.49,4.27,5.12,6.5a74.1,74.1,0,0,1,4.61,6.91,74.21,74.21,0,0,1-6-5.75c-1.91-2-3.72-4.07-5.5-6.17s-3.49-4.26-5.11-6.49A74.19,74.19,0,0,1,38.32,114.82Z"/><path class="cls-7" d="M33.68,118.14a74.21,74.21,0,0,1,6,5.75c1.91,2,3.72,4.07,5.51,6.16s3.48,4.27,5.11,6.5a72.89,72.89,0,0,1,4.62,6.91,74.35,74.35,0,0,1-6-5.75c-1.91-2-3.71-4.07-5.5-6.17s-3.48-4.26-5.11-6.49A76.23,76.23,0,0,1,33.68,118.14Z"/><path class="cls-7" d="M29.05,121.45a74.21,74.21,0,0,1,6,5.75c1.91,2,3.72,4.07,5.5,6.16s3.49,4.27,5.12,6.5a72.8,72.8,0,0,1,4.61,6.91,74.21,74.21,0,0,1-6-5.75c-1.91-2-3.72-4.07-5.5-6.17s-3.49-4.26-5.11-6.49A74.19,74.19,0,0,1,29.05,121.45Z"/></g></g></g></g></svg>