<svg xmlns="http://www.w3.org/2000/svg" viewBox="0 0 800 79.43"><defs><style>.cls-1{isolation:isolate;}.cls-2{fill:#b4a0b4;}.cls-3{fill:#aa96aa;}.cls-4{fill:#96a0ff;mix-blend-mode:multiply;}.cls-5{opacity:0.7;}.cls-6{fill:#faf0fa;}</style></defs><title>penalty_muro</title><g class="cls-1"><g id="Capa_2" data-name="Capa 2"><g id="Capa_54" data-name="Capa 54"><rect class="cls-2" width="800" height="79.43"/><path class="cls-3" d="M400,49.73C179.09,49.73,0,27.46,0,0V79.43H800V.08C799.67,27.5,620.71,49.73,400,49.73Z"/><rect class="cls-4" x="66.43" width="133.4" height="79.43"/><rect class="cls-4" x="333.3" width="133.39" height="79.43"/><rect class="cls-4" x="600.17" width="133.4" height="79.43"/><g class="cls-5"><path class="cls-6" d="M43.42,5.07c29.92-.33,59.83-.48,89.74-.73l89.75-.42c29.91-.18,59.82-.14,89.74-.21l89.74-.14,179.48.35,89.74.42c29.91.25,59.83.39,89.74.73-29.91.34-59.83.49-89.74.74l-89.74.42-179.48.34-89.74-.13c-29.92-.07-59.83,0-89.74-.22L133.16,5.8C103.25,5.56,73.34,5.41,43.42,5.07Z"/></g></g></g></g></svg>