<svg xmlns="http://www.w3.org/2000/svg" viewBox="0 0 228.73 260.91"><defs><style>.cls-1{isolation:isolate;}.cls-2{fill:#505a64;}.cls-3{fill:#3c4650;}.cls-4{fill:#5a646e;}.cls-5{fill:#28323c;}.cls-6{fill:#46505a;}.cls-7,.cls-9{fill:none;stroke:#000a14;stroke-miterlimit:10;}.cls-7{stroke-width:2.95px;}.cls-8{fill:#96a0aa;}.cls-9{stroke-width:1.04px;}.cls-10{fill:#00000a;}.cls-11{fill:#ffaa3c;}.cls-12{opacity:0.3;}.cls-13{fill:#fafafa;}.cls-14{mix-blend-mode:multiply;}.cls-15{fill:#14283c;}</style></defs><title>penalty_tablero</title><g class="cls-1"><g id="Capa_2" data-name="Capa 2"><g id="Capa_54" data-name="Capa 54"><path class="cls-2" d="M100.36,78.9v177c0,2.75,5,5,11.25,5s11.25-2.24,11.25-5V78.9Z"/><path class="cls-3" d="M103.18,259.21a19.39,19.39,0,0,0,8.43,1.7,21.18,21.18,0,0,0,7.24-1.18V78.9H103.18Z"/><path class="cls-3" d="M100.36,78.9v33.74s22.5,0,22.5,13.91V78.9Z"/><path class="cls-4" d="M105,259.54a22,22,0,0,0,6.57.94h.24V85.56H105Z"/><path class="cls-5" d="M100.36,73.66v33.75s22.5-4.15,22.5,6V73.66Z"/><path class="cls-3" d="M7.08,0H221.64a7.08,7.08,0,0,1,7.08,7.08V96.73a7.09,7.09,0,0,1-7.09,7.09H7.09A7.09,7.09,0,0,1,0,96.73V7.08A7.08,7.08,0,0,1,7.08,0Z"/><path class="cls-6" d="M221.64,0H7.08A7.08,7.08,0,0,0,0,7.09V42.75C29.85,58.69,70.09,68.46,114.36,68.46s84.52-9.77,114.37-25.71V7.09A7.09,7.09,0,0,0,221.64,0Z"/><path class="cls-2" d="M191.38,30.35c0,14.41-34.48,26.09-77,26.09s-77-11.68-77-26.09,34.49-26.1,77-26.1S191.38,15.94,191.38,30.35Z"/><path class="cls-4" d="M156.84,22.11c0,8.69-20.78,15.73-46.41,15.73S64,30.8,64,22.11,84.79,6.39,110.43,6.39,156.84,13.43,156.84,22.11Z"/><rect class="cls-7" x="16.28" y="11.04" width="196.17" height="83.4" rx="6.08" ry="6.08"/><path class="cls-8" d="M207.59,9.49a6.19,6.19,0,0,1,6.16,6.22v74a6.2,6.2,0,0,1-6.16,6.23H21.13A6.19,6.19,0,0,1,15,89.68v-74a6.19,6.19,0,0,1,6.15-6.22H207.59m0-.59H21.13a6.78,6.78,0,0,0-6.74,6.81v74a6.79,6.79,0,0,0,6.74,6.82H207.59a6.79,6.79,0,0,0,6.75-6.82v-74a6.79,6.79,0,0,0-6.75-6.81Z"/><path class="cls-8" d="M205.27,12.36a5.44,5.44,0,0,1,5.43,5.43V87.61A5.44,5.44,0,0,1,205.27,93H23.46A5.44,5.44,0,0,1,18,87.61V17.79a5.44,5.44,0,0,1,5.43-5.43H205.27m0-.57H23.46a6,6,0,0,0-6,6V87.61a6,6,0,0,0,6,6H205.27a6,6,0,0,0,6-6V17.79a6,6,0,0,0-6-6Z"/><rect class="cls-9" x="26.28" y="45.38" width="68.95" height="34.99" rx="2.14" ry="2.14"/><path class="cls-8" d="M93.52,44.83A2.18,2.18,0,0,1,95.68,47V78.7a2.17,2.17,0,0,1-2.16,2.18H28a2.17,2.17,0,0,1-2.17-2.18V47A2.18,2.18,0,0,1,28,44.83H93.52m0-.21H28A2.4,2.4,0,0,0,25.61,47V78.7A2.39,2.39,0,0,0,28,81.09H93.52a2.39,2.39,0,0,0,2.37-2.39V47a2.39,2.39,0,0,0-2.37-2.4Z"/><rect class="cls-10" x="26.79" y="45.74" width="67.91" height="34.23" rx="2.01" ry="2.01"/><path class="cls-8" d="M92.7,45.84a1.92,1.92,0,0,1,1.91,1.91V78a1.92,1.92,0,0,1-1.91,1.91H28.8A1.92,1.92,0,0,1,26.89,78V47.75a1.92,1.92,0,0,1,1.91-1.91H92.7m0-.2H28.8a2.11,2.11,0,0,0-2.11,2.11V78a2.12,2.12,0,0,0,2.11,2.11H92.7A2.12,2.12,0,0,0,94.81,78V47.75a2.11,2.11,0,0,0-2.11-2.11Z"/><rect class="cls-9" x="126.79" y="45.38" width="68.95" height="34.99" rx="2.14" ry="2.14"/><path class="cls-8" d="M194,44.83A2.18,2.18,0,0,1,196.19,47V78.7A2.17,2.17,0,0,1,194,80.88H128.49a2.17,2.17,0,0,1-2.16-2.18V47a2.18,2.18,0,0,1,2.16-2.19H194m0-.21H128.49a2.39,2.39,0,0,0-2.37,2.4V78.7a2.38,2.38,0,0,0,2.37,2.39H194a2.39,2.39,0,0,0,2.38-2.39V47a2.4,2.4,0,0,0-2.38-2.4Z"/><rect class="cls-10" x="127.3" y="45.74" width="67.91" height="34.23" rx="2.01" ry="2.01"/><path class="cls-8" d="M193.21,45.84a1.91,1.91,0,0,1,1.9,1.91V78a1.91,1.91,0,0,1-1.9,1.91h-63.9A1.92,1.92,0,0,1,127.4,78V47.75a1.92,1.92,0,0,1,1.91-1.91h63.9m0-.2h-63.9a2.1,2.1,0,0,0-2.11,2.11V78a2.11,2.11,0,0,0,2.11,2.11h63.9a2.11,2.11,0,0,0,2.1-2.11V47.75a2.1,2.1,0,0,0-2.1-2.11Z"/><path class="cls-11" d="M34.54,21.29h13v3.42H43.19V35.14H38.9V24.71H34.54Z"/><path class="cls-11" d="M49.66,21.29H54V35.14H49.66Z"/><path class="cls-11" d="M57,21.29h5.64l2.17,8.43,2.15-8.43h5.63V35.14H69.05V24.58l-2.7,10.56H63.18l-2.7-10.56V35.14H57Z"/><path class="cls-11" d="M75.28,21.29H86.75v2.95H79.57v2.21h6.67v2.82H79.57V32H87v3.14H75.28Z"/><path class="cls-11" d="M124.94,30.56,129,30.3a3,3,0,0,0,.53,1.51,2.3,2.3,0,0,0,1.89.85,2.13,2.13,0,0,0,1.42-.43,1.29,1.29,0,0,0,.49-1,1.27,1.27,0,0,0-.47-1,5.5,5.5,0,0,0-2.19-.8,9.29,9.29,0,0,1-4-1.68,3.41,3.41,0,0,1-1.21-2.68,3.63,3.63,0,0,1,.62-2,4.1,4.1,0,0,1,1.86-1.5,8.77,8.77,0,0,1,3.41-.54,7,7,0,0,1,4.05,1,4.27,4.27,0,0,1,1.66,3.14l-4,.24a1.89,1.89,0,0,0-2.1-1.79,1.72,1.72,0,0,0-1.12.32,1,1,0,0,0-.38.77.77.77,0,0,0,.31.59,3.35,3.35,0,0,0,1.44.51,17.89,17.89,0,0,1,4,1.23A4.22,4.22,0,0,1,137,28.58a3.89,3.89,0,0,1,.55,2.05,4.4,4.4,0,0,1-.73,2.46,4.67,4.67,0,0,1-2.07,1.71,8.43,8.43,0,0,1-3.33.58c-2.36,0-4-.46-4.9-1.36A5.41,5.41,0,0,1,124.94,30.56Z"/><path class="cls-11" d="M148.89,29.47l3.75,1.14a6.86,6.86,0,0,1-1.19,2.63,5.09,5.09,0,0,1-2,1.6,7.49,7.49,0,0,1-3.06.54,8.83,8.83,0,0,1-3.69-.66,5.83,5.83,0,0,1-2.47-2.31,7.75,7.75,0,0,1-1-4.23A7.22,7.22,0,0,1,141,22.9a8.33,8.33,0,0,1,9.3-.79,6.21,6.21,0,0,1,2.22,3.25l-3.78.84a3.15,3.15,0,0,0-.42-.93,2.48,2.48,0,0,0-2-1A2.52,2.52,0,0,0,144,25.42a5,5,0,0,0-.58,2.73,5.16,5.16,0,0,0,.7,3.16,2.76,2.76,0,0,0,3.82.16A4.19,4.19,0,0,0,148.89,29.47Z"/><path class="cls-11" d="M154.18,28.22a7.14,7.14,0,0,1,1.89-5.28,7.13,7.13,0,0,1,5.27-1.89,7.25,7.25,0,0,1,5.33,1.86,7,7,0,0,1,1.87,5.2,8.43,8.43,0,0,1-.82,4,5.74,5.74,0,0,1-2.36,2.42,7.77,7.77,0,0,1-3.85.87,8.83,8.83,0,0,1-3.88-.75,5.76,5.76,0,0,1-2.49-2.36A7.83,7.83,0,0,1,154.18,28.22Zm4.28,0a4.66,4.66,0,0,0,.78,3,3,3,0,0,0,4.26,0,5.11,5.11,0,0,0,.76-3.23,4.34,4.34,0,0,0-.79-2.86,2.71,2.71,0,0,0-2.14-.9,2.6,2.6,0,0,0-2.08.92A4.66,4.66,0,0,0,158.46,28.24Z"/><path class="cls-11" d="M170.9,35.14V21.29H178a10.25,10.25,0,0,1,3,.34,3.16,3.16,0,0,1,1.69,1.26,3.79,3.79,0,0,1,.64,2.24,3.72,3.72,0,0,1-1.84,3.35,5.33,5.33,0,0,1-1.5.55,4.17,4.17,0,0,1,1.11.51,3.84,3.84,0,0,1,.69.73,4.92,4.92,0,0,1,.6.86l2.07,4h-4.84l-2.29-4.23a3,3,0,0,0-.77-1.07,1.76,1.76,0,0,0-1-.32h-.38v5.62Zm4.3-8.24H177a6.14,6.14,0,0,0,1.13-.19,1.18,1.18,0,0,0,.7-.43,1.4,1.4,0,0,0-.16-1.84,2.57,2.57,0,0,0-1.6-.36H175.2Z"/><path class="cls-11" d="M185.89,21.29h11.48v2.95h-7.19v2.21h6.67v2.82h-6.67V32h7.39v3.14H185.89Z"/><g class="cls-12"><path class="cls-13" d="M221.38,18.38,221.17,9V9a8.83,8.83,0,0,0-4.29-4.93,9.32,9.32,0,0,0-3.18-.93c-.55-.07-1.11-.06-1.67-.08l-1.73,0q-6.92.13-13.83.2l-27.66.29-27.67.17-27.66.05L85.83,3.78,58.17,3.62,30.5,3.32q-6.91-.06-13.83-.2l-1.73,0c-.56,0-1.12,0-1.67.08a9.21,9.21,0,0,0-3.17.93A8.76,8.76,0,0,0,5.81,9V9l-.22,9.4L5.39,9V8.92A9.41,9.41,0,0,1,9.78,3.51,10,10,0,0,1,13.17,2.4c.59-.1,1.19-.11,1.77-.15l1.73,0Q23.59,2.09,30.5,2l27.67-.3,27.66-.16,27.66-.05,27.66.05,27.67.17L196.48,2q6.92.06,13.83.2l1.73,0a17.36,17.36,0,0,1,1.77.15,9.89,9.89,0,0,1,3.39,1.12,9.32,9.32,0,0,1,4.38,5.4V9Z"/></g><g class="cls-14"><path class="cls-15" d="M221.38,93.54a9.16,9.16,0,0,1-4.25,5.33A9.84,9.84,0,0,1,213.8,100a29.47,29.47,0,0,1-3.49.18l-13.83.26-27.66.32c-18.44.22-36.89.25-55.33.28s-36.88-.06-55.32-.27l-27.67-.33-13.83-.26a27.33,27.33,0,0,1-3.48-.18,9.77,9.77,0,0,1-3.33-1.11A9.18,9.18,0,0,1,5.6,93.54a9,9,0,0,0,4.42,5,9.68,9.68,0,0,0,3.23.94,27.79,27.79,0,0,0,3.42,0l13.83-.26L58.17,99c18.44-.21,36.88-.24,55.32-.27s36.89.06,55.33.27l27.66.33,13.83.26a29.85,29.85,0,0,0,3.42,0,9.54,9.54,0,0,0,3.23-.94A9,9,0,0,0,221.38,93.54Z"/></g></g></g></g></svg>