<svg xmlns="http://www.w3.org/2000/svg" viewBox="0 0 799.1 245.2"><defs><style>.cls-1{opacity:0.7;}.cls-2{fill:#9f9fb2;}.cls-3{fill:#cbbdd0;}.cls-4{fill:#eadbef;}.cls-5{fill:#a8a8bc;}.cls-6{fill:#bab3bc;}.cls-7{fill:#bdbdd0;}.cls-8{fill:#d5c7da;}.cls-9{fill:#d1d1e4;}.cls-10{fill:#c7c7da;}</style></defs><title>penalty_city</title><g id="Capa_2" data-name="Capa 2"><g id="Capa_54" data-name="Capa 54"><g class="cls-1"><polygon class="cls-2" points="230.19 44.76 155.52 44.76 191.83 0 230.19 44.76"/><rect class="cls-3" x="145.2" y="41.84" width="95.29" height="80.22"/><rect class="cls-4" x="131.92" y="104.89" width="121.86" height="140.31"/><rect class="cls-4" x="183.15" y="93.62" width="18.85" height="10.23"/><rect class="cls-4" x="208.59" y="93.62" width="18.85" height="10.23"/><rect class="cls-4" x="234.93" y="93.62" width="18.85" height="10.23"/><rect class="cls-4" x="157.71" y="93.62" width="18.85" height="10.23"/><rect class="cls-4" x="131.92" y="93.62" width="18.85" height="10.23"/><rect class="cls-3" x="185.04" y="30.12" width="15.17" height="10.23"/><rect class="cls-3" x="205.52" y="30.12" width="15.17" height="10.23"/><rect class="cls-3" x="225.33" y="30.12" width="15.17" height="10.23"/><rect class="cls-3" x="164.57" y="30.12" width="15.17" height="10.23"/><rect class="cls-3" x="145.2" y="30.12" width="15.18" height="10.23"/><rect class="cls-4" x="148.91" y="46.05" width="19.84" height="19.25"/><rect class="cls-4" x="171.99" y="46.05" width="19.84" height="19.25"/><rect class="cls-4" x="195.06" y="46.05" width="19.84" height="19.25"/><rect class="cls-4" x="216.95" y="46.05" width="19.84" height="19.25"/><rect class="cls-4" x="148.91" y="68.43" width="19.84" height="19.25"/><rect class="cls-4" x="171.99" y="68.43" width="19.84" height="19.25"/><rect class="cls-4" x="195.06" y="68.43" width="19.84" height="19.25"/><rect class="cls-4" x="216.95" y="68.43" width="19.84" height="19.25"/><rect class="cls-3" x="137.58" y="109.88" width="16.36" height="40.97"/><rect class="cls-3" x="156.61" y="109.88" width="16.37" height="40.97"/><rect class="cls-3" x="175.64" y="109.88" width="16.37" height="40.97"/><rect class="cls-3" x="193.7" y="109.88" width="16.37" height="40.97"/><rect class="cls-3" x="212.73" y="109.88" width="16.36" height="40.97"/><rect class="cls-3" x="231.76" y="109.88" width="16.37" height="40.97"/><rect class="cls-3" x="137.58" y="163.95" width="16.36" height="40.97"/><rect class="cls-3" x="156.61" y="163.95" width="16.37" height="40.97"/><rect class="cls-3" x="175.64" y="163.95" width="16.37" height="40.97"/><rect class="cls-3" x="193.7" y="163.95" width="16.37" height="40.97"/><rect class="cls-3" x="212.73" y="163.95" width="16.36" height="40.97"/><rect class="cls-3" x="231.76" y="163.95" width="16.37" height="40.97"/><rect class="cls-3" x="137.58" y="153.61" width="16.36" height="7.39"/><rect class="cls-3" x="156.61" y="153.61" width="16.37" height="7.39"/><rect class="cls-3" x="175.64" y="153.61" width="16.37" height="7.39"/><rect class="cls-3" x="193.7" y="153.61" width="16.37" height="7.39"/><rect class="cls-3" x="212.73" y="153.61" width="16.36" height="7.39"/><rect class="cls-3" x="231.76" y="153.61" width="16.37" height="7.39"/><path class="cls-5" d="M404.88,79.19c0,10-9.34,18-20.88,18s-20.9-8.08-20.9-18,9.35-18,20.9-18S404.88,69.23,404.88,79.19Z"/><rect class="cls-6" x="363.28" y="80.29" width="41.25" height="125.36"/><path class="cls-5" d="M400.92,136.73c0,4.34-3.88,7.84-8.69,7.84s-8.69-3.5-8.69-7.84,3.89-7.84,8.69-7.84S400.92,132.4,400.92,136.73Z"/><polygon class="cls-5" points="383.99 1.5 384.78 66.56 383.2 66.56 383.99 1.5"/><path class="cls-5" d="M363.3,112.51c0,13.16-12.33,23.82-27.56,23.82s-27.59-10.66-27.59-23.82,12.35-23.82,27.59-23.82S363.3,99.36,363.3,112.51Z"/><rect class="cls-6" x="311.23" y="119.84" width="94.92" height="125.36"/><rect class="cls-5" x="307.81" y="113.75" width="101.76" height="12.58"/><path class="cls-5" d="M335.35,136.73c0,4.34-3.9,7.84-8.69,7.84s-8.69-3.5-8.69-7.84,3.89-7.84,8.69-7.84S335.35,132.4,335.35,136.73Z"/><path class="cls-5" d="M357,136.73c0,4.34-3.88,7.84-8.68,7.84s-8.7-3.5-8.7-7.84,3.9-7.84,8.7-7.84S357,132.4,357,136.73Z"/><path class="cls-5" d="M378.63,136.73c0,4.34-3.89,7.84-8.69,7.84s-8.69-3.5-8.69-7.84,3.89-7.84,8.69-7.84S378.63,132.4,378.63,136.73Z"/><path class="cls-5" d="M400.92,136.73c0,4.34-3.88,7.84-8.69,7.84s-8.69-3.5-8.69-7.84,3.89-7.84,8.69-7.84S400.92,132.4,400.92,136.73Z"/><path class="cls-5" d="M335.35,192.7c0,4.32-3.9,7.84-8.69,7.84S318,197,318,192.7s3.89-7.85,8.69-7.85S335.35,188.36,335.35,192.7Z"/><path class="cls-5" d="M357,192.7c0,4.32-3.88,7.84-8.68,7.84s-8.7-3.52-8.7-7.84,3.9-7.85,8.7-7.85S357,188.36,357,192.7Z"/><path class="cls-5" d="M378.63,192.7c0,4.32-3.89,7.84-8.69,7.84s-8.69-3.52-8.69-7.84,3.89-7.85,8.69-7.85S378.63,188.36,378.63,192.7Z"/><path class="cls-5" d="M400.92,192.7c0,4.32-3.88,7.84-8.69,7.84s-8.69-3.52-8.69-7.84,3.89-7.85,8.69-7.85S400.92,188.36,400.92,192.7Z"/><rect class="cls-5" x="319.86" y="151.17" width="18.2" height="28.64"/><rect class="cls-5" x="343.05" y="151.17" width="18.2" height="28.64"/><rect class="cls-5" x="364.43" y="151.17" width="15.35" height="28.64"/><rect class="cls-5" x="383.99" y="151.17" width="15.35" height="28.64"/><rect class="cls-5" x="319.86" y="206.61" width="25.84" height="28.63"/><rect class="cls-5" x="352.79" y="206.61" width="25.84" height="28.63"/><polygon class="cls-5" points="335.73 3.33 336.77 89.2 334.68 89.2 335.73 3.33"/><path class="cls-5" d="M383.09,85.51c-5.23,0-9.4,9.79-9.26,10.39v13.33h18.51V95.9C392.48,95.3,388.32,85.51,383.09,85.51Z"/><path class="cls-5" d="M392.34,95.9c.14-.6,0-10.39-9.25-10.39s-9.4,9.79-9.26,10.39"/><polygon class="cls-7" points="128.73 135.14 82.74 135.14 105.73 108.72 128.73 135.14"/><polygon class="cls-7" points="61.22 150.22 58.37 150.22 59.8 91.52 61.22 150.22"/><polygon class="cls-7" points="107.16 113.41 104.31 113.41 105.73 54.71 107.16 113.41"/><polygon class="cls-7" points="153.1 150.22 150.25 150.22 151.67 91.52 153.1 150.22"/><rect class="cls-8" x="58.09" y="149.35" width="95.3" height="95.85"/><rect class="cls-8" x="71.66" y="130.9" width="68.15" height="52.85"/><path class="cls-9" d="M77.46,170a5.91,5.91,0,1,1-5.9-5.56A5.74,5.74,0,0,1,77.46,170Z"/><path class="cls-9" d="M100.24,170a5.91,5.91,0,1,1-5.9-5.56A5.74,5.74,0,0,1,100.24,170Z"/><path class="cls-9" d="M123,170a5.91,5.91,0,1,1-5.89-5.56A5.74,5.74,0,0,1,123,170Z"/><path class="cls-9" d="M145.81,170a5.91,5.91,0,1,1-5.9-5.56A5.75,5.75,0,0,1,145.81,170Z"/><path class="cls-9" d="M81.65,143.24A3.44,3.44,0,1,1,78.22,140,3.34,3.34,0,0,1,81.65,143.24Z"/><path class="cls-9" d="M90.82,143.24A3.44,3.44,0,1,1,87.39,140,3.34,3.34,0,0,1,90.82,143.24Z"/><path class="cls-9" d="M100,143.24A3.44,3.44,0,1,1,96.56,140,3.34,3.34,0,0,1,100,143.24Z"/><path class="cls-9" d="M109.16,143.24a3.44,3.44,0,1,1-3.42-3.24A3.33,3.33,0,0,1,109.16,143.24Z"/><path class="cls-9" d="M118.34,143.24a3.44,3.44,0,1,1-3.43-3.24A3.34,3.34,0,0,1,118.34,143.24Z"/><path class="cls-9" d="M127.51,143.24a3.44,3.44,0,1,1-3.42-3.24A3.33,3.33,0,0,1,127.51,143.24Z"/><path class="cls-9" d="M136.69,143.24a3.44,3.44,0,1,1-3.43-3.24A3.34,3.34,0,0,1,136.69,143.24Z"/><rect class="cls-9" x="74.51" y="133.56" width="13.78" height="3.17"/><rect class="cls-9" x="90.73" y="133.56" width="13.77" height="3.17"/><rect class="cls-9" x="106.96" y="133.56" width="13.77" height="3.17"/><rect class="cls-9" x="123.19" y="133.56" width="13.78" height="3.17"/><rect class="cls-9" x="74.51" y="154.18" width="13.78" height="5.24"/><rect class="cls-9" x="90.73" y="154.18" width="13.77" height="5.24"/><rect class="cls-9" x="106.96" y="154.18" width="13.77" height="5.24"/><rect class="cls-9" x="123.19" y="154.18" width="13.78" height="5.24"/><rect class="cls-9" x="90.73" y="154.18" width="13.77" height="5.24"/><rect class="cls-9" x="106.96" y="154.18" width="13.77" height="5.24"/><rect class="cls-9" x="74.51" y="178.79" width="13.78" height="5.25"/><rect class="cls-9" x="90.73" y="178.79" width="13.77" height="5.25"/><rect class="cls-9" x="106.96" y="178.79" width="13.77" height="5.25"/><rect class="cls-9" x="123.19" y="178.79" width="13.78" height="5.25"/><rect class="cls-9" x="90.73" y="178.79" width="13.77" height="5.25"/><rect class="cls-9" x="106.96" y="178.79" width="13.77" height="5.25"/><path class="cls-9" d="M77.46,192.69a5.91,5.91,0,1,1-5.9-5.56A5.73,5.73,0,0,1,77.46,192.69Z"/><path class="cls-9" d="M100.24,192.69a5.91,5.91,0,1,1-5.9-5.56A5.73,5.73,0,0,1,100.24,192.69Z"/><path class="cls-9" d="M123,192.69a5.91,5.91,0,1,1-5.89-5.56A5.73,5.73,0,0,1,123,192.69Z"/><path class="cls-9" d="M145.81,192.69a5.91,5.91,0,1,1-5.9-5.56A5.74,5.74,0,0,1,145.81,192.69Z"/><rect class="cls-9" x="74.51" y="201.44" width="13.78" height="5.25"/><rect class="cls-9" x="90.73" y="201.44" width="13.77" height="5.25"/><rect class="cls-9" x="106.96" y="201.44" width="13.77" height="5.25"/><rect class="cls-9" x="123.19" y="201.44" width="13.78" height="5.25"/><rect class="cls-9" x="90.73" y="201.44" width="13.77" height="5.25"/><rect class="cls-9" x="106.96" y="201.44" width="13.77" height="5.25"/><rect class="cls-10" x="273.59" y="132.12" width="43.3" height="22.46"/><rect class="cls-10" x="244.36" y="139.22" width="81.19" height="105.98"/><rect class="cls-10" x="244.36" y="132.12" width="24.14" height="22.46"/><rect class="cls-5" x="249.71" y="143.5" width="11.03" height="14.56"/><rect class="cls-5" x="249.71" y="159.89" width="11.03" height="14.57"/><rect class="cls-5" x="249.71" y="176.58" width="11.03" height="14.56"/><rect class="cls-5" x="249.71" y="192.97" width="11.03" height="14.57"/><rect class="cls-5" x="249.71" y="209.65" width="11.03" height="14.57"/><rect class="cls-5" x="249.71" y="226.05" width="11.03" height="14.57"/><rect class="cls-5" x="264.54" y="143.5" width="41.82" height="14.56"/><rect class="cls-5" x="308.84" y="143.5" width="11.04" height="14.56"/><rect class="cls-5" x="264.54" y="159.89" width="41.82" height="14.57"/><rect class="cls-5" x="308.84" y="159.89" width="11.04" height="14.57"/><rect class="cls-5" x="264.54" y="176.58" width="41.82" height="14.56"/><rect class="cls-5" x="308.84" y="176.58" width="11.04" height="14.56"/><rect class="cls-5" x="264.54" y="192.97" width="41.82" height="14.57"/><rect class="cls-5" x="308.84" y="192.97" width="11.04" height="14.57"/><rect class="cls-5" x="264.54" y="209.65" width="41.82" height="14.57"/><rect class="cls-5" x="308.84" y="209.65" width="11.04" height="14.57"/><rect class="cls-5" x="264.54" y="226.05" width="41.82" height="14.57"/><rect class="cls-5" x="308.84" y="226.05" width="11.04" height="14.57"/><rect class="cls-10" x="721.58" y="76.51" width="64.6" height="33.51"/><rect class="cls-10" x="677.97" y="87.1" width="121.13" height="158.11"/><rect class="cls-10" x="677.97" y="76.51" width="36.01" height="33.51"/><rect class="cls-5" x="685.96" y="93.48" width="16.46" height="21.72"/><rect class="cls-5" x="685.96" y="117.93" width="16.46" height="21.73"/><rect class="cls-5" x="685.96" y="142.83" width="16.46" height="21.72"/><rect class="cls-5" x="685.96" y="167.28" width="16.46" height="21.73"/><rect class="cls-5" x="685.96" y="192.17" width="16.46" height="21.73"/><rect class="cls-5" x="685.96" y="216.63" width="16.46" height="21.73"/><rect class="cls-5" x="708.09" y="93.48" width="62.39" height="21.72"/><rect class="cls-5" x="774.17" y="93.48" width="16.46" height="21.72"/><rect class="cls-5" x="708.09" y="117.93" width="62.39" height="21.73"/><rect class="cls-5" x="774.17" y="117.93" width="16.46" height="21.73"/><rect class="cls-5" x="708.09" y="142.83" width="62.39" height="21.72"/><rect class="cls-5" x="774.17" y="142.83" width="16.46" height="21.72"/><rect class="cls-5" x="708.09" y="167.28" width="62.39" height="21.73"/><rect class="cls-5" x="774.17" y="167.28" width="16.46" height="21.73"/><rect class="cls-5" x="708.09" y="192.17" width="62.39" height="21.73"/><rect class="cls-5" x="774.17" y="192.17" width="16.46" height="21.73"/><rect class="cls-5" x="708.09" y="216.63" width="62.39" height="21.73"/><rect class="cls-5" x="774.17" y="216.63" width="16.46" height="21.73"/><rect class="cls-8" x="552.73" y="55.94" width="125.25" height="189.27"/><rect class="cls-10" x="552.73" y="111.65" width="125.25" height="7.24"/><rect class="cls-10" x="552.73" y="95.87" width="125.25" height="7.25"/><rect class="cls-10" x="552.73" y="80.1" width="125.25" height="7.24"/><rect class="cls-10" x="552.73" y="64.32" width="125.25" height="7.24"/><rect class="cls-10" x="552.73" y="158.92" width="125.25" height="7.24"/><rect class="cls-10" x="552.73" y="143.15" width="125.25" height="7.24"/><rect class="cls-10" x="552.73" y="127.37" width="125.25" height="7.24"/><rect class="cls-10" x="552.73" y="206.38" width="125.25" height="7.23"/><rect class="cls-10" x="552.73" y="190.61" width="125.25" height="7.24"/><rect class="cls-10" x="552.73" y="174.82" width="125.25" height="7.25"/><rect class="cls-10" x="552.73" y="222.1" width="125.25" height="7.24"/><rect class="cls-8" y="2.77" width="77.46" height="242.43"/><rect class="cls-10" y="74.13" width="77.46" height="9.28"/><rect class="cls-10" y="53.93" width="77.46" height="9.28"/><rect class="cls-10" y="33.73" width="77.46" height="9.27"/><rect class="cls-10" y="13.52" width="77.46" height="9.27"/><rect class="cls-10" y="134.69" width="77.46" height="9.27"/><rect class="cls-10" y="114.49" width="77.46" height="9.28"/><rect class="cls-10" y="94.27" width="77.46" height="9.28"/><rect class="cls-10" y="195.48" width="77.46" height="9.28"/><rect class="cls-10" y="175.28" width="77.46" height="9.27"/><rect class="cls-10" y="155.06" width="77.46" height="9.28"/><rect class="cls-10" y="215.61" width="77.46" height="9.28"/><rect class="cls-9" x="469.99" y="11.78" width="84.04" height="233.42"/><rect class="cls-10" x="475.25" y="19.07" width="20.56" height="58.66"/><rect class="cls-10" x="501.73" y="19.07" width="20.56" height="58.66"/><rect class="cls-10" x="528.2" y="19.07" width="20.57" height="58.66"/><rect class="cls-10" x="475.25" y="82.52" width="20.56" height="58.67"/><rect class="cls-10" x="501.73" y="82.52" width="20.56" height="58.67"/><rect class="cls-10" x="528.2" y="82.52" width="20.57" height="58.67"/><rect class="cls-10" x="475.25" y="146.44" width="20.56" height="58.67"/><rect class="cls-10" x="501.73" y="146.44" width="20.56" height="58.67"/><rect class="cls-10" x="528.2" y="146.44" width="20.57" height="58.67"/><rect class="cls-10" x="475.25" y="209.9" width="20.56" height="35.27"/><rect class="cls-10" x="501.73" y="209.9" width="20.56" height="35.27"/><rect class="cls-10" x="528.2" y="209.9" width="20.57" height="35.27"/><rect class="cls-9" x="407.04" y="11.78" width="84.04" height="233.42"/><rect class="cls-10" x="412.31" y="19.07" width="20.56" height="58.66"/><rect class="cls-10" x="438.78" y="19.07" width="20.56" height="58.66"/><rect class="cls-10" x="465.26" y="19.07" width="20.57" height="58.66"/><rect class="cls-10" x="412.31" y="82.52" width="20.56" height="58.67"/><rect class="cls-10" x="438.78" y="82.52" width="20.56" height="58.67"/><rect class="cls-10" x="465.26" y="82.52" width="20.57" height="58.67"/><rect class="cls-10" x="412.31" y="146.44" width="20.56" height="58.67"/><rect class="cls-10" x="438.78" y="146.44" width="20.56" height="58.67"/><rect class="cls-10" x="465.26" y="146.44" width="20.57" height="58.67"/><rect class="cls-10" x="412.31" y="209.9" width="20.56" height="35.27"/><rect class="cls-10" x="438.78" y="209.9" width="20.56" height="35.27"/><rect class="cls-10" x="465.26" y="209.9" width="20.57" height="35.27"/></g></g></g></svg>